<?xml version="1.0" encoding="UTF-8"?>
<svg version="1.1" xmlns="http://www.w3.org/2000/svg" width="1280" height="1299">
<path d="M0 0 C2.94220995 1.39730095 5.59283466 2.99964324 8.28125 4.8359375 C9.11237305 5.39933838 9.94349609 5.96273926 10.79980469 6.54321289 C12.13640137 7.44994751 12.13640137 7.44994751 13.5 8.375 C81.56894249 54.0299965 158.76195755 78.69015023 240.71337891 63.15600586 C291.7721452 52.96369396 336.16261933 28.57921067 379 0 C383.97472162 2.67776718 388.79346204 5.45440576 393.46044922 8.63867188 C463.36822094 56.0639901 556.78686829 70.87271294 639.125 55.6875 C643.42955314 54.84679675 647.71693825 53.94379325 652 53 C653.02770508 52.77441406 654.05541016 52.54882812 655.11425781 52.31640625 C667.64507218 49.50442002 679.74824895 45.95451037 691.78027344 41.4519043 C692.68422852 41.11843994 693.58818359 40.78497559 694.51953125 40.44140625 C695.31464111 40.13920166 696.10975098 39.83699707 696.92895508 39.52563477 C699 39 699 39 702 40 C703.55953734 41.94791633 704.97402264 43.87999886 706.375 45.9375 C707.27139438 47.22317323 708.16856795 48.50830345 709.06640625 49.79296875 C709.54223145 50.47794434 710.01805664 51.16291992 710.50830078 51.86865234 C713.06793816 55.52587563 715.6927619 59.13571348 718.3125 62.75 C719.41941143 64.28114837 720.52618071 65.81239951 721.6328125 67.34375 C722.75516235 68.89586659 723.87755834 70.44794981 725 72 C727.22962512 75.0830022 729.45886814 78.16627971 731.6875 81.25 C732.49550049 82.36785889 732.49550049 82.36785889 733.31982422 83.50830078 C735.83157132 86.98616335 738.33774683 90.46773427 740.828125 93.9609375 C741.26777588 94.57751221 741.70742676 95.19408691 742.16040039 95.8293457 C742.99531247 97.00326624 743.82793205 98.1788215 744.65795898 99.35620117 C747.3406989 103.14640668 750.17149854 106.76383912 753.234375 110.25390625 C754 112 754 112 753.44921875 114.29296875 C751.62803156 117.69480897 749.40008716 120.69527218 747.0625 123.75 C726.47156666 151.29990618 709.96675751 182.20488006 697 214 C696.67692871 214.78729492 696.35385742 215.57458984 696.02099609 216.38574219 C688.26639959 235.55096896 682.94506776 255.77076841 679.125 276.0625 C678.93405762 277.06990234 678.74311523 278.07730469 678.54638672 279.11523438 C675.52293282 296.20885042 674.61682209 313.29473806 674.6875 330.625 C674.68965515 331.58455597 674.6918103 332.54411194 674.69403076 333.53274536 C674.74908662 348.87312267 675.3432561 363.85679845 678 379 C678.19867676 380.13824219 678.39735352 381.27648437 678.60205078 382.44921875 C684.65967355 416.02705282 695.32975338 448.22192651 710 479 C710.43650879 479.92216309 710.87301758 480.84432617 711.32275391 481.79443359 C728.25641087 517.32823439 750.32679183 550.37887278 775 581 C775.74636719 581.92941406 776.49273438 582.85882812 777.26171875 583.81640625 C785.59821983 594.09858981 794.21698158 604.15484396 803.16015625 613.9140625 C804.07087891 614.94660156 804.07087891 614.94660156 805 616 C805.59683594 616.66773438 806.19367188 617.33546875 806.80859375 618.0234375 C808 620 808 620 807.90858459 621.80780029 C806.58645354 624.99778979 804.21419938 626.84767208 801.65405273 629.05175781 C800.50061144 630.07283922 799.34801806 631.09487904 798.19615173 632.11773682 C797.27641728 632.92891338 797.27641728 632.92891338 796.33810234 633.75647736 C792.37275589 637.2890399 788.50579698 640.92975127 784.62223721 644.55167007 C781.22665528 647.70739999 777.80594876 650.8183402 774.2980957 653.84912109 C755.9754159 669.35360723 755.9754159 669.35360723 748.24951172 691.16894531 C747.90775226 698.7603821 748.48972879 706.28141983 749.34123516 713.82235336 C750.31218235 722.67046666 749.81336496 731.38855643 749.25 740.25 C749.15187051 741.91326482 749.05415814 743.5765543 748.9568634 745.23986816 C745.38631921 805.70404047 733.06297242 865.6407086 708 921 C707.5575293 921.9890332 707.11505859 922.97806641 706.65917969 923.99707031 C684.02467496 974.19494655 648.39944218 1025.00397363 604.5390625 1059.01953125 C602.13498975 1060.89470799 599.83325935 1062.86029791 597.53540039 1064.86328125 C589.1193346 1072.16706333 580.13192673 1078.62654776 571 1085 C570.05302246 1085.66298096 570.05302246 1085.66298096 569.08691406 1086.33935547 C550.67747949 1099.14396219 531.00989274 1109.93293315 511 1120 C510.16774902 1120.42345703 509.33549805 1120.84691406 508.47802734 1121.28320312 C457.48375273 1147.09221639 400.73791668 1162.60037869 344.4375 1171.1875 C343.61033478 1171.31445251 342.78316956 1171.44140503 341.93093872 1171.57220459 C332.3119969 1173.0285332 322.72724486 1174.16876893 313.0234375 1174.875 C312.12176346 1174.94552078 311.22008942 1175.01604156 310.29109192 1175.08869934 C305.97143947 1175.42646138 301.66015913 1175.71938035 297.33178711 1175.91674805 C285.30356029 1176.67748435 279.36475387 1180.55054742 271 1189 C269.31184177 1190.39969624 267.60712876 1191.78009936 265.875 1193.125 C260.53624563 1197.35977931 255.26801051 1201.67771929 250 1206 C248.16689838 1207.50028317 246.33356573 1209.00028408 244.5 1210.5 C243.5925 1211.2425 242.685 1211.985 241.75 1212.75 C211.5 1237.5 211.5 1237.5 208.77734375 1239.7265625 C206.8514851 1241.30300376 204.9271071 1242.88125492 203.00390625 1244.4609375 C202.03324219 1245.25757813 201.06257812 1246.05421875 200.0625 1246.875 C199.18722656 1247.59429688 198.31195312 1248.31359375 197.41015625 1249.0546875 C195.30601354 1250.7530069 193.1755913 1252.39480735 191 1254 C187.16657345 1252.3292572 184.0557677 1249.83891616 180.8125 1247.25 C180.20519043 1246.76901855 179.59788086 1246.28803711 178.97216797 1245.79248047 C172.68412739 1240.79037682 166.49316147 1235.67038325 160.30078125 1230.55078125 C151.2248816 1223.04937696 142.09987815 1215.61333012 132.8125 1208.375 C127.64379719 1204.34588249 122.61046842 1200.18336375 117.62792969 1195.92675781 C113.59042229 1192.48131866 109.48192737 1189.14051309 105.31640625 1185.8515625 C103 1184 103 1184 100.39892578 1181.46777344 C96.62870292 1178.34104492 93.06844509 1178.03177001 88.30078125 1177.6640625 C87.02445831 1177.53711754 87.02445831 1177.53711754 85.72235107 1177.40760803 C83.88345627 1177.22551083 82.04365601 1177.05237871 80.20315552 1176.88729858 C75.22878601 1176.43592343 70.26325743 1175.90227895 65.296875 1175.37109375 C64.27380753 1175.2626564 63.25074005 1175.15421906 62.19667053 1175.04249573 C-15.79674037 1166.59284176 -93.95166909 1144.86967883 -235.41796875 1055.3359375 C-237.52109231 1053.43326293 -239.64991251 1051.57500442 -241.796875 1049.72265625 C-246.05782515 1046.0016159 -250.07516084 1042.07304385 -254.0625 1038.0625 C-254.73087891 1037.39798828 -255.39925781 1036.73347656 -256.08789062 1036.04882812 C-260.59688046 1031.53107446 -264.86104761 1026.85788896 -269 1022 C-269.54970459 1021.35699951 -270.09940918 1020.71399902 -270.66577148 1020.05151367 C-279.3917692 1009.77120163 -287.45344852 999.17234187 -295 988 C-295.67361572 987.01193359 -295.67361572 987.01193359 -296.36083984 986.00390625 C-327.19880289 940.55138137 -346.91339954 888.61244863 -358 835 C-358.22139648 833.93281738 -358.44279297 832.86563477 -358.67089844 831.76611328 C-364.02964918 805.47990645 -367.27127141 778.76467529 -369 752 C-369.05784668 751.13858398 -369.11569336 750.27716797 -369.17529297 749.38964844 C-369.28656618 747.64163538 -369.38618863 745.89284785 -369.47509766 744.14355469 C-369.57767605 742.24902859 -369.71307443 740.35607295 -369.87646484 738.46582031 C-370.27861553 732.31224618 -369.8669624 726.92718538 -368.51062012 720.9465332 C-365.58657021 707.51205299 -363.39613055 692.28436643 -371.2307663 680.08329773 C-387.11666545 657.97692748 -409.51376739 639.70231169 -430 622 C-428.59760925 618.27731774 -427.37938993 616.07321824 -424.4375 613.375 C-420.34114899 609.44131997 -416.8284777 605.20260298 -413.27734375 600.77734375 C-411.13509649 598.16475747 -408.91359429 595.67190984 -406.625 593.1875 C-401.55364873 587.61342347 -396.94983024 581.71324678 -392.35107422 575.74951172 C-391.08537183 574.11054834 -389.81169317 572.47818647 -388.53515625 570.84765625 C-328.15967227 493.24999207 -285.19549115 398.49321658 -296.59765625 298.19580078 C-304.57853384 234.80400001 -330.56939858 173.62236378 -368.96508789 122.6171875 C-374.65758492 115.01137643 -374.65758492 115.01137643 -375 112 C-373.45869057 109.05106824 -371.3784621 106.6063347 -369.25 104.0625 C-368.02288633 102.53143141 -366.79764488 100.99886053 -365.57421875 99.46484375 C-364.96239746 98.70671387 -364.35057617 97.94858398 -363.72021484 97.16748047 C-361.38813388 94.22904521 -359.21283693 91.1976249 -357.0625 88.125 C-347.4440374 74.50578008 -337.42085554 61.17437501 -327.39453125 47.85400391 C-324.92598411 44.57211543 -322.46321147 41.28589401 -320 38 C-315.18244605 39.59758226 -310.37246629 41.2125021 -305.57421875 42.8671875 C-222.10637449 71.48493634 -126.23057057 66.29390976 -46.40844727 28.21557617 C-43.59226387 26.83498759 -40.79169803 25.42935797 -38 24 C-36.95610107 23.46777832 -36.95610107 23.46777832 -35.89111328 22.92480469 C-25.0916036 17.31621955 -15.10430149 10.20083554 -5.04614258 3.38525391 C-3.36888062 2.24973495 -1.68530981 1.12353987 0 0 Z " fill="#EBBA00" transform="translate(450,25)"/>
<path d="M0 0 C320.43 0 640.86 0 971 0 C978.72970413 46.3782248 974.55849994 96.0656036 966 142 C965.82807129 142.95487305 965.65614258 143.90974609 965.47900391 144.89355469 C955.66788488 198.09813049 930.37233867 249.52489024 896 291 C895.17757812 292.00804687 894.35515625 293.01609375 893.5078125 294.0546875 C881.71086289 308.30496649 868.60998804 321.63920059 854 333 C852.12230452 334.60101074 850.24745955 336.20536873 848.375 337.8125 C804.35870585 374.46442061 747.19966141 400.59834917 691.63574219 413.35791016 C688.35454524 414.15723842 685.10476417 415.05687781 681.84765625 415.94921875 C674.33769516 417.98337163 666.77135885 419.55797514 659.125 421 C658.45581543 421.12695251 657.78663086 421.25390503 657.09716797 421.38470459 C652.40131622 422.27438516 647.70165699 423.14154125 643 424 C641.93491211 424.19625977 640.86982422 424.39251953 639.77246094 424.59472656 C605.96961648 430.72350817 572.14536079 432.645222 537.85162616 432.63609672 C533.76885352 432.63694879 529.68614005 432.64934126 525.60338646 432.66104633 C515.92410825 432.68810701 506.24498187 432.69384126 496.56567383 432.6862793 C487.84017607 432.67986788 479.11526497 432.70101111 470.38989258 432.74780273 C376.63656729 433.23933872 376.63656729 433.23933872 332 425 C330.21066128 424.67844147 328.4212011 424.35755805 326.63162231 424.03733826 C316.69762495 422.24534789 306.8413385 420.25463452 297 418 C295.90816406 417.75427246 294.81632812 417.50854492 293.69140625 417.25537109 C225.33794977 401.69237281 159.05405283 372.31590441 106 326 C104.83210938 325.00033203 104.83210938 325.00033203 103.640625 323.98046875 C90.81208104 312.76655187 78.3045914 300.5901133 68 287 C66.99103683 285.71760508 65.98048695 284.43645769 64.96875 283.15625 C29.27791573 237.67351797 8.85369985 183.6666268 -0.1875 126.875 C-0.34250977 125.91207031 -0.49751953 124.94914063 -0.65722656 123.95703125 C-3.66420992 104.06770339 -4.36746188 84.27731832 -4.3125 64.1875 C-4.31200653 62.94539764 -4.31151306 61.70329529 -4.31100464 60.42355347 C-4.24794864 8.49589729 -4.24794864 8.49589729 0 0 Z " fill="#030303" transform="translate(155,700)"/>
<path d="M0 0 C4.29787981 2.29147164 8.50288514 4.70359787 12.6875 7.1953125 C33.57261198 19.34201348 56.53730299 28.95287387 80.0625 34.6328125 C80.97547852 34.85678711 81.88845703 35.08076172 82.82910156 35.31152344 C97.02969733 38.73372906 111.19179061 41.25578292 125.6875 42.9453125 C126.37549683 43.02644287 127.06349365 43.10757324 127.77233887 43.19116211 C146.64370515 45.38048913 165.41015047 45.79563446 184.40014648 45.76318359 C188.09428071 45.7578568 191.78829148 45.76314215 195.48242188 45.76953125 C215.31809386 45.77589795 235.18274711 45.51128167 254.9375 43.5703125 C262.34226442 42.85421388 269.6209735 42.51110108 277.0625 42.6328125 C273.96938487 48.90684013 270.81098285 55.132623 267.52099609 61.30541992 C254.33982763 86.09037154 243.90557639 111.64690833 236.0625 138.6328125 C235.74055664 139.72722656 235.74055664 139.72722656 235.41210938 140.84375 C225.66447088 174.41567714 221.83091339 209.22124579 221.875 244.0703125 C221.87626892 245.0996994 221.87753784 246.1290863 221.87884521 247.18966675 C221.9131408 261.76288265 221.99367897 276.18251313 224.0625 290.6328125 C224.15251282 291.27293274 224.24252563 291.91305298 224.33526611 292.5725708 C230.39348178 335.49371985 241.07911803 377.04693817 258.97216797 416.64599609 C260.24823705 419.50430145 261.0625 421.46130771 261.0625 424.6328125 C-38.9075 424.6328125 -338.8775 424.6328125 -647.9375 424.6328125 C-645.99921153 418.17185095 -644.03392499 412.21622987 -641.4375 406.0703125 C-633.05402 385.62694935 -625.82626164 364.18493174 -620.9375 342.6328125 C-620.64117676 341.34842285 -620.64117676 341.34842285 -620.33886719 340.03808594 C-612.7905804 306.89840693 -608.81217383 273.86319373 -608.6875 239.8828125 C-608.67932755 238.53671402 -608.67932755 238.53671402 -608.67098999 237.16342163 C-608.42547427 182.85223614 -621.65669709 128.58171847 -644.9375 79.6328125 C-645.28876953 78.88870117 -645.64003906 78.14458984 -646.00195312 77.37792969 C-650.63018732 67.64759637 -655.8321294 58.22429874 -661.07788086 48.81567383 C-661.57811768 47.91228271 -662.07835449 47.0088916 -662.59375 46.078125 C-663.04556641 45.26875488 -663.49738281 44.45938477 -663.96289062 43.62548828 C-664.9375 41.6328125 -664.9375 41.6328125 -664.9375 39.6328125 C-658.32715983 40.00439967 -651.77268308 40.39530434 -645.25 41.5703125 C-640.15970648 42.47375532 -635.07483814 43.13650317 -629.9375 43.6953125 C-629.24567627 43.77450928 -628.55385254 43.85370605 -627.84106445 43.93530273 C-609.38930638 45.87256454 -590.78049452 45.87380154 -572.25 45.8828125 C-570.99459412 45.88348724 -569.73918823 45.88416199 -568.44573975 45.88485718 C-539.40192043 45.86013923 -511.39323195 43.85046914 -482.9375 37.6328125 C-481.99167053 37.42907516 -481.99167053 37.42907516 -481.0267334 37.22122192 C-469.84129112 34.79087272 -459.02562578 31.61375503 -448.1875 27.9453125 C-447.40380035 27.68203156 -446.62010071 27.41875061 -445.81265259 27.14749146 C-427.70865473 21.05044734 -410.54915151 13.57414012 -393.39526367 5.17358398 C-392.4797876 4.72700439 -391.56431152 4.2804248 -390.62109375 3.8203125 C-389.40764282 3.22283203 -389.40764282 3.22283203 -388.16967773 2.61328125 C-386.02309783 1.67041076 -384.26670661 0.91083143 -381.9375 0.6328125 C-379.98413086 1.41455078 -379.98413086 1.41455078 -377.90234375 2.703125 C-377.10739502 3.18088379 -376.31244629 3.65864258 -375.4934082 4.15087891 C-374.6293335 4.68116699 -373.76525879 5.21145508 -372.875 5.7578125 C-341.45099601 24.31588176 -306.82428716 38.38986856 -271.11547852 46.13134766 C-268.48530345 46.7369277 -265.88100311 47.42771113 -263.26953125 48.109375 C-246.9893842 52.20237749 -229.71843473 54.37164232 -212.9375 54.6328125 C-211.74801758 54.65327637 -210.55853516 54.67374023 -209.33300781 54.69482422 C-168.21353977 55.32815262 -128.21799695 51.17695346 -89.125 37.8828125 C-88.33802734 37.61725555 -87.55105469 37.35169861 -86.74023438 37.07809448 C-60.00756917 28.04939385 -33.23895778 17.57402576 -9.15234375 2.70776367 C-3.76674618 -0.47084327 -3.76674618 -0.47084327 0 0 Z " fill="#DB012F" transform="translate(831.9375,111.3671875)"/>
<path d="M0 0 C2.26111848 1.19740464 4.43465391 2.43544957 6.625 3.75 C40.50381701 23.32389214 76.96434307 36.43149344 115 45 C116.28511475 45.29801514 116.28511475 45.29801514 117.59619141 45.60205078 C139.43411828 50.63141818 161.66330292 51.88316515 184 53 C184 170.15 184 287.3 184 408 C38.14 408 -107.72 408 -258 408 C-256.25660734 402.76982203 -254.51755242 397.59549044 -252.6171875 392.4296875 C-243.60314916 367.67156831 -235.66217553 342.72575461 -230.56298828 316.82983398 C-230.14886546 314.74826522 -229.71763885 312.6700809 -229.27685547 310.59399414 C-227.46631645 301.93561193 -226.14026742 293.32011657 -225.11962891 284.53833008 C-224.87460956 282.43414698 -224.61963453 280.33134497 -224.36328125 278.22851562 C-222.55183593 263.16433312 -221.76229915 248.22536189 -221.75 233.0625 C-221.74899292 232.19205048 -221.74798584 231.32160095 -221.74694824 230.42477417 C-221.75984081 213.79355587 -222.82550455 197.50249426 -225 181 C-225.14453613 179.89672363 -225.28907227 178.79344727 -225.43798828 177.65673828 C-231.80725272 130.75835593 -247.23342346 83.69510889 -271.12158203 42.73120117 C-272 41 -272 41 -272 39 C-266.49981743 38.80334543 -261.29853875 39.15532655 -255.83984375 39.875 C-235.05373948 42.58223926 -214.39982829 43.42614161 -193.45918655 43.4352417 C-191.41227636 43.43745961 -189.36546172 43.44547393 -187.318573 43.45483398 C-163.45674295 43.52643463 -139.71842107 42.08955326 -116.25 37.5625 C-115.09790039 37.34787109 -113.94580078 37.13324219 -112.75878906 36.91210938 C-98.2000291 34.15653391 -84.06948359 30.67941023 -70 26 C-68.59814453 25.54197998 -68.59814453 25.54197998 -67.16796875 25.07470703 C-46.66412027 18.34973131 -26.58502437 10.51151094 -7.671875 0.046875 C-4.45022923 -1.21540726 -3.2416164 -1.1499312 0 0 Z " fill="#DA0130" transform="translate(452,121)"/>
<path d="M0 0 C2.94220995 1.39730095 5.59283466 2.99964324 8.28125 4.8359375 C9.11237305 5.39933838 9.94349609 5.96273926 10.79980469 6.54321289 C12.13640137 7.44994751 12.13640137 7.44994751 13.5 8.375 C81.56894249 54.0299965 158.76195755 78.69015023 240.71337891 63.15600586 C291.7721452 52.96369396 336.16261933 28.57921067 379 0 C383.97472162 2.67776718 388.79346204 5.45440576 393.46044922 8.63867188 C463.36822094 56.0639901 556.78686829 70.87271294 639.125 55.6875 C643.42955314 54.84679675 647.71693825 53.94379325 652 53 C653.02770508 52.77441406 654.05541016 52.54882812 655.11425781 52.31640625 C667.64507218 49.50442002 679.74824895 45.95451037 691.78027344 41.4519043 C692.68422852 41.11843994 693.58818359 40.78497559 694.51953125 40.44140625 C695.31464111 40.13920166 696.10975098 39.83699707 696.92895508 39.52563477 C699 39 699 39 702 40 C703.55953734 41.94791633 704.97402264 43.87999886 706.375 45.9375 C707.27139438 47.22317323 708.16856795 48.50830345 709.06640625 49.79296875 C709.54223145 50.47794434 710.01805664 51.16291992 710.50830078 51.86865234 C713.06793816 55.52587563 715.6927619 59.13571348 718.3125 62.75 C719.41941143 64.28114837 720.52618071 65.81239951 721.6328125 67.34375 C722.75516235 68.89586659 723.87755834 70.44794981 725 72 C727.22962512 75.0830022 729.45886814 78.16627971 731.6875 81.25 C732.49550049 82.36785889 732.49550049 82.36785889 733.31982422 83.50830078 C735.83157132 86.98616335 738.33774683 90.46773427 740.828125 93.9609375 C741.26777588 94.57751221 741.70742676 95.19408691 742.16040039 95.8293457 C742.99531247 97.00326624 743.82793205 98.1788215 744.65795898 99.35620117 C747.3406989 103.14640668 750.17149854 106.76383912 753.234375 110.25390625 C754 112 754 112 753.44921875 114.29296875 C751.62803156 117.69480897 749.40008716 120.69527218 747.0625 123.75 C726.47156666 151.29990618 709.96675751 182.20488006 697 214 C696.67692871 214.78729492 696.35385742 215.57458984 696.02099609 216.38574219 C688.26639959 235.55096896 682.94506776 255.77076841 679.125 276.0625 C678.93405762 277.06990234 678.74311523 278.07730469 678.54638672 279.11523438 C675.52293282 296.20885042 674.61682209 313.29473806 674.6875 330.625 C674.68965515 331.58455597 674.6918103 332.54411194 674.69403076 333.53274536 C674.74908662 348.87312267 675.3432561 363.85679845 678 379 C678.19867676 380.13824219 678.39735352 381.27648437 678.60205078 382.44921875 C684.65967355 416.02705282 695.32975338 448.22192651 710 479 C710.43650879 479.92216309 710.87301758 480.84432617 711.32275391 481.79443359 C728.25641087 517.32823439 750.32679183 550.37887278 775 581 C775.74636719 581.92941406 776.49273438 582.85882812 777.26171875 583.81640625 C785.59821983 594.09858981 794.21698158 604.15484396 803.16015625 613.9140625 C804.07087891 614.94660156 804.07087891 614.94660156 805 616 C805.59683594 616.66773438 806.19367188 617.33546875 806.80859375 618.0234375 C808 620 808 620 807.90858459 621.80780029 C806.58645354 624.99778979 804.21419938 626.84767208 801.65405273 629.05175781 C800.50061144 630.07283922 799.34801806 631.09487904 798.19615173 632.11773682 C797.27641728 632.92891338 797.27641728 632.92891338 796.33810234 633.75647736 C792.37275589 637.2890399 788.50579698 640.92975127 784.62223721 644.55167007 C781.22665528 647.70739999 777.80594876 650.8183402 774.2980957 653.84912109 C755.9754159 669.35360723 755.9754159 669.35360723 748.24951172 691.16894531 C747.90775226 698.7603821 748.48972879 706.28141983 749.34123516 713.82235336 C750.31218235 722.67046666 749.81336496 731.38855643 749.25 740.25 C749.15187051 741.91326482 749.05415814 743.5765543 748.9568634 745.23986816 C745.38631921 805.70404047 733.06297242 865.6407086 708 921 C707.5575293 921.9890332 707.11505859 922.97806641 706.65917969 923.99707031 C684.02467496 974.19494655 648.39944218 1025.00397363 604.5390625 1059.01953125 C602.13498975 1060.89470799 599.83325935 1062.86029791 597.53540039 1064.86328125 C589.1193346 1072.16706333 580.13192673 1078.62654776 571 1085 C570.05302246 1085.66298096 570.05302246 1085.66298096 569.08691406 1086.33935547 C550.67747949 1099.14396219 531.00989274 1109.93293315 511 1120 C510.16774902 1120.42345703 509.33549805 1120.84691406 508.47802734 1121.28320312 C457.48375273 1147.09221639 400.73791668 1162.60037869 344.4375 1171.1875 C343.61033478 1171.31445251 342.78316956 1171.44140503 341.93093872 1171.57220459 C332.3119969 1173.0285332 322.72724486 1174.16876893 313.0234375 1174.875 C312.12176346 1174.94552078 311.22008942 1175.01604156 310.29109192 1175.08869934 C305.97143947 1175.42646138 301.66015913 1175.71938035 297.33178711 1175.91674805 C285.30356029 1176.67748435 279.36475387 1180.55054742 271 1189 C269.31184177 1190.39969624 267.60712876 1191.78009936 265.875 1193.125 C260.53624563 1197.35977931 255.26801051 1201.67771929 250 1206 C248.16689838 1207.50028317 246.33356573 1209.00028408 244.5 1210.5 C243.5925 1211.2425 242.685 1211.985 241.75 1212.75 C211.5 1237.5 211.5 1237.5 208.77734375 1239.7265625 C206.8514851 1241.30300376 204.9271071 1242.88125492 203.00390625 1244.4609375 C202.03324219 1245.25757813 201.06257812 1246.05421875 200.0625 1246.875 C199.18722656 1247.59429688 198.31195312 1248.31359375 197.41015625 1249.0546875 C195.30601354 1250.7530069 193.1755913 1252.39480735 191 1254 C187.16657345 1252.3292572 184.0557677 1249.83891616 180.8125 1247.25 C180.20519043 1246.76901855 179.59788086 1246.28803711 178.97216797 1245.79248047 C172.68412739 1240.79037682 166.49316147 1235.67038325 160.30078125 1230.55078125 C151.2248816 1223.04937696 142.09987815 1215.61333012 132.8125 1208.375 C127.64379719 1204.34588249 122.61046842 1200.18336375 117.62792969 1195.92675781 C113.59042229 1192.48131866 109.48192737 1189.14051309 105.31640625 1185.8515625 C103 1184 103 1184 100.39892578 1181.46777344 C96.62870292 1178.34104492 93.06844509 1178.03177001 88.30078125 1177.6640625 C87.02445831 1177.53711754 87.02445831 1177.53711754 85.72235107 1177.40760803 C83.88345627 1177.22551083 82.04365601 1177.05237871 80.20315552 1176.88729858 C75.22878601 1176.43592343 70.26325743 1175.90227895 65.296875 1175.37109375 C64.27380753 1175.2626564 63.25074005 1175.15421906 62.19667053 1175.04249573 C-15.79674037 1166.59284176 -93.95166909 1144.86967883 -235.41796875 1055.3359375 C-237.52109231 1053.43326293 -239.64991251 1051.57500442 -241.796875 1049.72265625 C-246.05782515 1046.0016159 -250.07516084 1042.07304385 -254.0625 1038.0625 C-254.73087891 1037.39798828 -255.39925781 1036.73347656 -256.08789062 1036.04882812 C-260.59688046 1031.53107446 -264.86104761 1026.85788896 -269 1022 C-269.54970459 1021.35699951 -270.09940918 1020.71399902 -270.66577148 1020.05151367 C-279.3917692 1009.77120163 -287.45344852 999.17234187 -295 988 C-295.67361572 987.01193359 -295.67361572 987.01193359 -296.36083984 986.00390625 C-327.19880289 940.55138137 -346.91339954 888.61244863 -358 835 C-358.22139648 833.93281738 -358.44279297 832.86563477 -358.67089844 831.76611328 C-364.02964918 805.47990645 -367.27127141 778.76467529 -369 752 C-369.05784668 751.13858398 -369.11569336 750.27716797 -369.17529297 749.38964844 C-369.28656618 747.64163538 -369.38618863 745.89284785 -369.47509766 744.14355469 C-369.57767605 742.24902859 -369.71307443 740.35607295 -369.87646484 738.46582031 C-370.27861553 732.31224618 -369.8669624 726.92718538 -368.51062012 720.9465332 C-365.58657021 707.51205299 -363.39613055 692.28436643 -371.2307663 680.08329773 C-387.11666545 657.97692748 -409.51376739 639.70231169 -430 622 C-428.59760925 618.27731774 -427.37938993 616.07321824 -424.4375 613.375 C-420.34114899 609.44131997 -416.8284777 605.20260298 -413.27734375 600.77734375 C-411.13509649 598.16475747 -408.91359429 595.67190984 -406.625 593.1875 C-401.55364873 587.61342347 -396.94983024 581.71324678 -392.35107422 575.74951172 C-391.08537183 574.11054834 -389.81169317 572.47818647 -388.53515625 570.84765625 C-328.15967227 493.24999207 -285.19549115 398.49321658 -296.59765625 298.19580078 C-304.57853384 234.80400001 -330.56939858 173.62236378 -368.96508789 122.6171875 C-374.65758492 115.01137643 -374.65758492 115.01137643 -375 112 C-373.45869057 109.05106824 -371.3784621 106.6063347 -369.25 104.0625 C-368.02288633 102.53143141 -366.79764488 100.99886053 -365.57421875 99.46484375 C-364.96239746 98.70671387 -364.35057617 97.94858398 -363.72021484 97.16748047 C-361.38813388 94.22904521 -359.21283693 91.1976249 -357.0625 88.125 C-347.4440374 74.50578008 -337.42085554 61.17437501 -327.39453125 47.85400391 C-324.92598411 44.57211543 -322.46321147 41.28589401 -320 38 C-315.18244605 39.59758226 -310.37246629 41.2125021 -305.57421875 42.8671875 C-222.10637449 71.48493634 -126.23057057 66.29390976 -46.40844727 28.21557617 C-43.59226387 26.83498759 -40.79169803 25.42935797 -38 24 C-36.95610107 23.46777832 -36.95610107 23.46777832 -35.89111328 22.92480469 C-25.0916036 17.31621955 -15.10430149 10.20083554 -5.04614258 3.38525391 C-3.36888062 2.24973495 -1.68530981 1.12353987 0 0 Z M-7.625 36.4375 C-62.74020523 73.76997751 -130.99135802 89.19964043 -196.875 89.25 C-197.79363831 89.25100708 -198.71227661 89.25201416 -199.65875244 89.25305176 C-223.41963569 89.23555593 -246.8196472 87.50436471 -270 82 C-270.825 81.81179687 -271.65 81.62359375 -272.5 81.4296875 C-282.47700699 79.14835968 -292.1592684 76.49875016 -301.7097168 72.79150391 C-305.77779033 71.16948578 -305.77779033 71.16948578 -310 72 C-311.90154677 74.3389918 -313.68080548 76.68101395 -315.4375 79.125 C-316.51094763 80.58876223 -317.5865253 82.05096441 -318.6640625 83.51171875 C-319.49019043 84.63199463 -319.49019043 84.63199463 -320.33300781 85.77490234 C-322.91695207 89.22394569 -325.60774621 92.58289998 -328.3125 95.9375 C-328.80951416 96.55947266 -329.30652832 97.18144531 -329.81860352 97.82226562 C-331.96737653 100.50652366 -334.13442428 103.15605577 -336.37890625 105.76171875 C-337.03761719 106.54160156 -337.69632813 107.32148438 -338.375 108.125 C-338.93960938 108.76695312 -339.50421875 109.40890625 -340.0859375 110.0703125 C-341.25460211 112.0153811 -341.25460211 112.0153811 -340.4375 114.33203125 C-338.69954526 117.55763746 -336.7103531 120.55668438 -334.625 123.5625 C-328.34917297 132.80384042 -322.63324709 142.35690347 -317 152 C-316.56155762 152.74620605 -316.12311523 153.49241211 -315.67138672 154.26123047 C-273.69227501 226.12158753 -259.42375412 312.3123906 -274 394 C-274.22461914 395.27552734 -274.44923828 396.55105469 -274.68066406 397.86523438 C-289.11840136 477.09415668 -330.42348313 548.67851682 -382.10058594 609.34643555 C-385.57681712 613.44856204 -388.84332583 617.64890857 -392 622 C-391.14277344 622.845625 -390.28554688 623.69125 -389.40234375 624.5625 C-383.99956228 629.91469215 -378.66142185 635.24025961 -373.73828125 641.04296875 C-370.78274937 644.37043273 -367.56718276 647.43964049 -364.40234375 650.56640625 C-361.77696458 653.2259367 -359.35685538 656.00598973 -356.93359375 658.84765625 C-353.97419671 662.14185376 -350.81282079 665.22943728 -347.64282227 668.32006836 C-343.04625611 672.83236818 -343.04625611 672.83236818 -342.89993286 676.52597046 C-342.9168367 678.13225815 -342.9168367 678.13225815 -342.93408203 679.77099609 C-342.94369965 680.99179871 -342.95331726 682.21260132 -342.96322632 683.47039795 C-342.97057171 684.12869347 -342.9779171 684.78698898 -342.98548508 685.46523285 C-343.02402457 689.01791196 -343.04289436 692.57072503 -343.06542969 696.12353516 C-343.07064573 696.873125 -343.07586178 697.62271484 -343.08123589 698.39501953 C-343.34227129 736.476398 -343.02606129 774.43649956 -336 812 C-335.6599029 813.90394756 -335.31983621 815.80790068 -334.98062134 817.71200562 C-332.30917294 832.62300065 -329.21763264 847.3140711 -324.68945312 861.78613281 C-324.04700499 863.84906472 -323.43265444 865.91788287 -322.828125 867.9921875 C-317.08609266 887.22406293 -309.62036251 905.88779773 -301 924 C-300.61231445 924.81919922 -300.22462891 925.63839844 -299.82519531 926.48242188 C-290.62745661 945.78185395 -279.71520462 963.81883851 -267 981 C-266.56445801 981.58861816 -266.12891602 982.17723633 -265.68017578 982.78369141 C-253.85484743 998.65536433 -240.69635099 1013.34980304 -226.75 1027.375 C-226.19594482 1027.93372803 -225.64188965 1028.49245605 -225.07104492 1029.06811523 C-200.939769 1053.10650985 -172.24548624 1072.67217727 -142.33203125 1088.74365234 C-139.94306351 1090.0306737 -137.56562898 1091.33761005 -135.1875 1092.64453125 C-105.69842925 1108.66424632 -73.39189728 1121.19601958 -41 1130 C-39.89172852 1130.30502441 -38.78345703 1130.61004883 -37.64160156 1130.92431641 C0.16584593 1141.2551284 38.9269159 1148.0339502 77.9375 1151.8125 C79.2059375 1151.93729736 80.474375 1152.06209473 81.78125 1152.19067383 C86.927465 1152.66504752 91.99059827 1153.07480753 97.16015625 1152.94140625 C106.82536048 1152.7328198 111.74854922 1155.12139248 118.61230469 1161.64501953 C119.8265336 1162.84268192 121.03395905 1164.04728231 122.234375 1165.25878906 C124.9355325 1167.92259649 127.83117377 1170.33037813 130.75 1172.75 C131.81797715 1173.65072303 132.88569107 1174.55175827 133.953125 1175.453125 C137.67287167 1178.5624517 141.42752248 1181.62705318 145.1875 1184.6875 C148.88014364 1187.72367366 152.52121788 1190.8184997 156.1640625 1193.9140625 C160.45237631 1197.55201592 164.79776049 1201.11521191 169.16015625 1204.6640625 C173.00563202 1207.82719112 176.80007455 1211.04907139 180.5859375 1214.28320312 C182.05035261 1215.5303297 183.52482056 1216.76562488 185 1218 C185.70253906 1218.62132812 186.40507813 1219.24265625 187.12890625 1219.8828125 C188.91766428 1221.21666484 188.91766428 1221.21666484 190.91821289 1220.72729492 C193.1703788 1219.94047632 194.40838933 1219.0626339 196.1796875 1217.48046875 C196.77168945 1216.9587207 197.36369141 1216.43697266 197.97363281 1215.89941406 C198.91480957 1215.0520166 198.91480957 1215.0520166 199.875 1214.1875 C201.22100288 1212.99830019 202.56736538 1211.80950731 203.9140625 1210.62109375 C204.59500977 1210.0163623 205.27595703 1209.41163086 205.97753906 1208.78857422 C209.04214853 1206.07837034 212.14264443 1203.41097839 215.25 1200.75 C216.12192993 1200.00194092 216.12192993 1200.00194092 217.01147461 1199.23876953 C220.44899607 1196.29843235 223.92380376 1193.41186372 227.4375 1190.5625 C233.77951533 1185.41077494 239.91925674 1180.03218833 246.08154297 1174.66845703 C249.17298257 1171.97987237 252.27015199 1169.29809001 255.375 1166.625 C256.23919556 1165.88020386 256.23919556 1165.88020386 257.12084961 1165.12036133 C261.13557296 1161.68272911 265.25483969 1158.42464445 269.5234375 1155.3046875 C270.01070312 1154.87414063 270.49796875 1154.44359375 271 1154 C271 1153.34 271 1152.68 271 1152 C271.65967773 1152.02094727 272.31935547 1152.04189453 272.99902344 1152.06347656 C323.08600916 1153.41440585 375.38019701 1144.04401554 423 1129 C423.61615173 1128.80557312 424.23230347 1128.61114624 424.86712646 1128.41082764 C476.47889534 1112.08361981 527.26210516 1089.84817636 570.21240234 1056.38623047 C571.96958919 1055.02358271 573.7413064 1053.68269428 575.51953125 1052.34765625 C581.4112096 1047.90859302 587.06989398 1043.31060072 592.48828125 1038.30078125 C594.48927826 1036.46783065 596.51832804 1034.69853171 598.578125 1032.93359375 C603.56596902 1028.57934859 608.25645124 1023.92961497 612.93579102 1019.24951172 C614.42641615 1017.76106763 615.92487017 1016.28082723 617.42382812 1014.80078125 C623.7340505 1008.52685068 629.45090197 1001.96733609 635 995 C636.58037469 993.16411563 638.16305074 991.33020425 639.75 989.5 C646.46643638 981.44861975 652.23957142 972.74962394 658 964 C658.44875488 963.31921387 658.89750977 962.63842773 659.35986328 961.93701172 C677.32395205 934.46211643 690.52466783 905.04069694 701 874 C701.30276855 873.12005371 701.60553711 872.24010742 701.91748047 871.33349609 C706.6714243 857.47506349 709.92068 843.3120454 713 829 C713.19335938 828.12714355 713.38671875 827.25428711 713.5859375 826.35498047 C716.21985409 814.37113713 717.79226394 802.30377442 719.1875 790.125 C719.31478485 789.01767014 719.31478485 789.01767014 719.44464111 787.88796997 C720.00826563 782.92944081 720.52305491 777.96758905 721 773 C721.16338867 771.33287964 721.16338867 771.33287964 721.33007812 769.63208008 C722.34575503 757.25937053 722.15024195 744.83469726 722.13037109 732.42993164 C722.12500805 728.44348353 722.13034318 724.45714783 722.13671875 720.47070312 C722.13605793 717.89583309 722.13477668 715.32096312 722.1328125 712.74609375 C722.13483673 711.57485458 722.13686096 710.40361542 722.13894653 709.19688416 C722.11343291 700.03647602 721.86001481 690.84354744 720.52445984 681.7688446 C719.96105158 677.87959062 719.86013973 674.76354999 722.06182861 671.35717773 C725.63803605 666.90163814 729.85699187 663.09721538 734.0625 659.25 C735.30683471 658.07456982 736.54840016 656.89620078 737.78710938 655.71484375 C739.58646645 653.99972881 741.38740982 652.28696744 743.20021057 650.58605957 C746.83738699 647.16570137 750.21700678 643.64472313 753.43188477 639.81933594 C756.40978537 636.36435924 759.69342295 633.2026904 762.9375 630 C763.62134766 629.32066406 764.30519531 628.64132812 765.00976562 627.94140625 C766.67087159 626.29191641 768.33428513 624.6448332 770 623 C768.56626069 618.52057719 766.31075837 615.92260658 763.0625 612.5625 C757.44830886 606.61975003 752.40345698 600.35645127 747.43896484 593.8671875 C745.99321402 591.99119458 744.52472556 590.13514655 743.05078125 588.28125 C729.38440103 570.94748558 716.82779945 552.23834017 706 533 C705.55527344 532.21447754 705.11054687 531.42895508 704.65234375 530.61962891 C684.3607879 494.60211726 668.31193917 456.3677363 659 416 C658.50102381 414.14555755 658.00104955 412.29138332 657.5 410.4375 C648.0102607 371.85964677 646.71904937 331.37417551 651 292 C651.15275391 290.55173828 651.15275391 290.55173828 651.30859375 289.07421875 C658.20298529 225.49260792 684.59096941 165.4289916 722 114 C719.06563552 108.5636291 715.684712 103.79137607 711.875 98.9375 C706.76573904 92.34870935 701.82842382 85.66855529 697.0234375 78.85546875 C696.35570312 77.91316406 695.68796875 76.97085938 695 76 C694.40058594 74.78763672 694.40058594 74.78763672 693.7890625 73.55078125 C691.91248689 71.5804865 691.91248689 71.5804865 688.171875 72.015625 C681.7385692 73.04723487 675.50706233 74.97084438 669.25 76.75 C658.92967941 79.60592367 648.62254631 82.04382779 638.0625 83.875 C636.98967773 84.06545898 635.91685547 84.25591797 634.81152344 84.45214844 C614.54001418 87.79347321 594.1319252 88.4094947 573.625 88.375 C571.78714935 88.37418427 571.78714935 88.37418427 569.91217041 88.37335205 C550.28938355 88.33344563 531.34823855 87.42261259 512 84 C510.72141113 83.78037598 509.44282227 83.56075195 508.12548828 83.33447266 C464.52366376 75.68778306 419.04886372 61.20672693 383.375 34.1328125 C381.078376 32.74651367 381.078376 32.74651367 378.70703125 33.45703125 C374.89298334 35.63098352 371.29984033 38.07099149 367.6875 40.5625 C360.01427142 45.75881381 352.22229053 50.49928828 344.06152344 54.88476562 C341.93824811 56.03340628 339.83262997 57.21077123 337.7265625 58.390625 C303.57627412 77.25068596 265.47984086 88.47159237 227 94 C226.18692383 94.12004395 225.37384766 94.24008789 224.53613281 94.36376953 C194.66196212 98.60173328 163.5350186 96.55654408 134 91 C132.90800293 90.80349854 132.90800293 90.80349854 131.79394531 90.60302734 C85.79244646 82.2492198 41.68751401 61.73427247 4.1171875 34.15234375 C-1.10404344 30.5472081 -2.96098972 33.20181339 -7.625 36.4375 Z " fill="#000000" transform="translate(450,25)"/>
<path d="M0 0 C1.00812744 0.25740967 1.00812744 0.25740967 2.03662109 0.52001953 C22.87249237 5.86144908 40.61375851 15.00511713 57 29 C57.80824219 29.67417969 58.61648438 30.34835937 59.44921875 31.04296875 C79.54812971 48.36526407 93.71267989 72.30134209 100 98 C100.28617188 99.08539062 100.57234375 100.17078125 100.8671875 101.2890625 C106.23803513 121.90288721 106.04072561 144.55115283 100 165 C99.75862305 165.8446582 99.51724609 166.68931641 99.26855469 167.55957031 C94.30480355 184.61114812 87.20627294 200.11612202 76 214 C75.57380371 214.53689453 75.14760742 215.07378906 74.70849609 215.62695312 C54.80648112 240.53430731 29.44329449 254.7512321 -1 263 C-1.66789551 263.18997559 -2.33579102 263.37995117 -3.02392578 263.57568359 C-22.96718471 268.99749165 -46.26505399 267.40933092 -66 262 C-66.67417969 261.81808105 -67.34835937 261.63616211 -68.04296875 261.44873047 C-101.58709549 252.08349149 -130.81507449 228.00577799 -148.10644531 198.08544922 C-165.13393001 167.46584954 -170.75752458 130.55459249 -161.31591797 96.53515625 C-150.8344628 60.15078833 -127.34040812 30.76208193 -94.22900391 12.27416992 C-66.2445235 -2.91097965 -30.98226922 -8.43124048 0 0 Z " fill="#070501" transform="translate(672,780)"/>
<path d="M0 0 C46.86 0 93.72 0 142 0 C142.39702921 41.9463053 142.72929576 83.89083479 142.91917593 125.83848218 C142.94168791 130.79377333 142.96498578 135.7490605 142.98876953 140.7043457 C142.99349112 141.69082916 142.99821271 142.67731261 143.00307737 143.6936895 C143.0813439 159.65461551 143.22323123 175.61437129 143.38875033 191.5746037 C143.55724396 207.95864321 143.65709187 224.34207108 143.69359291 240.72694141 C143.71825969 250.83329528 143.79606905 260.93634166 143.9424964 271.04167686 C144.03785436 277.97704387 144.06635811 284.91070845 144.04302479 291.84668299 C144.03152165 295.8464101 144.04877336 299.84037386 144.14569855 303.83906746 C144.68290737 327.13573512 144.68290737 327.13573512 140.2410388 333.53347993 C136.10742405 337.68768478 131.46347676 340.47954306 126.18428016 342.95501959 C123.07587581 344.44210981 120.31125426 346.2961541 117.44140625 348.19921875 C115.48789204 349.37223408 113.52826495 350.53513247 111.5625 351.6875 C110.5003125 352.3155957 109.438125 352.94369141 108.34375 353.59082031 C77.98610574 371.40904051 45.77817698 384.4430052 12.3125 395.1875 C11.40411377 395.47915039 10.49572754 395.77080078 9.55981445 396.07128906 C3.38878011 398 3.38878011 398 0 398 C0 266.66 0 135.32 0 0 Z " fill="#A40044" transform="translate(850,707)"/>
<path d="M0 0 C46.86 0 93.72 0 142 0 C142 131.01 142 262.02 142 397 C97.73347238 390.67621034 32.35323725 363.35323725 0 331 C-0.09740479 329.23808113 -0.12371447 327.47221162 -0.12304783 325.7076025 C-0.12503888 324.55260752 -0.12702993 323.39761253 -0.12908131 322.2076177 C-0.12616847 320.92262666 -0.12325563 319.63763561 -0.12025452 318.31370544 C-0.1206901 316.94753327 -0.12156476 315.58136117 -0.12284368 314.21518952 C-0.12509121 310.44351737 -0.12106387 306.67187334 -0.11606562 302.90020478 C-0.11176497 298.83951638 -0.11320727 294.77882968 -0.1139679 290.71813965 C-0.11449338 283.67689574 -0.11134406 276.63566107 -0.10573006 269.59441948 C-0.09761831 259.4138462 -0.09500017 249.2332774 -0.09374207 239.05270124 C-0.09155103 222.53716613 -0.08488956 206.02163595 -0.07543945 189.50610352 C-0.06626666 173.45857773 -0.05918518 157.41105327 -0.05493164 141.36352539 C-0.05466892 140.37509258 -0.05440619 139.38665977 -0.05413551 138.36827444 C-0.05283051 133.4098175 -0.0515668 128.45136055 -0.05032361 123.49290359 C-0.03994939 82.32859802 -0.02151023 41.16430155 0 0 Z " fill="#A40044" transform="translate(287,707)"/>
<path d="M0 0 C0 127.38 0 254.76 0 386 C-45.87 386 -91.74 386 -139 386 C-139 268.85 -139 151.7 -139 31 C-127.12 30.01 -115.24 29.02 -103 28 C-94.87533886 26.64007818 -86.89536023 25.29716423 -78.85986328 23.59667969 C-76.2438556 23.05087785 -73.6247863 22.5505697 -70.99609375 22.0703125 C-57.63447309 19.56518279 -44.85747466 15.3605936 -32 11 C-31.04222656 10.67531738 -30.08445312 10.35063477 -29.09765625 10.01611328 C-20.54285536 7.09902216 -12.00151811 4.16790539 -3.6796875 0.62890625 C-2 0 -2 0 0 0 Z " fill="#DB022F" transform="translate(782,143)"/>
<path d="M0 0 C8.58 1.32 17.16 2.64 26 4 C46.10655393 6.38765328 65.95563841 7.1764663 86.1875 7.125 C87.23338287 7.12378143 88.27926575 7.12256287 89.35684204 7.12130737 C110.30701907 7.09276299 131.2495546 6.89583632 152.14135742 5.20727539 C155.37177086 4.97304352 158.57409681 4.89848309 161.8125 4.9375 C163.30716797 4.95103516 163.30716797 4.95103516 164.83203125 4.96484375 C165.90517578 4.98224609 165.90517578 4.98224609 167 5 C165.57192745 9.69532945 163.61683779 13.96400518 161.375 18.3125 C160.64977894 19.7480607 159.925859 21.18427933 159.203125 22.62109375 C158.83509766 23.35183105 158.46707031 24.08256836 158.08789062 24.83544922 C135.80725535 69.1667132 123.79150026 116.76360983 119 166 C118.90283691 166.98911377 118.80567383 167.97822754 118.70556641 168.99731445 C117.85768052 178.63840109 117.75778758 188.26589329 117.75 197.9375 C117.74899292 198.81272308 117.74798584 199.68794617 117.74694824 200.58969116 C117.75954039 216.90263461 118.85310598 232.81659488 121 249 C121.14985352 250.16837402 121.29970703 251.33674805 121.45410156 252.54052734 C123.45474029 267.91061486 126.22629099 282.96839441 130 298 C130.2077002 298.83499023 130.41540039 299.66998047 130.62939453 300.53027344 C136.20024564 322.77012159 143.23900228 344.76406614 152.28100586 365.84814453 C153 368 153 368 153 372 C102.51 372 52.02 372 0 372 C0 249.24 0 126.48 0 0 Z " fill="#DB012F" transform="translate(929,157)"/>
<path d="M0 0 C46.2 0 92.4 0 140 0 C140.4021875 22.213125 140.4021875 22.213125 140.8125 44.875 C140.93085205 49.5347998 141.0492041 54.19459961 141.17114258 58.99560547 C141.2298584 64.72680664 141.2298584 64.72680664 141.24076843 67.41775513 C141.26061333 69.28022748 141.30609879 71.14254204 141.3724823 73.00393677 C141.89045899 88.30529355 141.89045899 88.30529355 138.74557114 92.78809357 C135.28622697 96.30746935 131.25717684 98.57027512 127 101 C101.50059966 121.72356794 82.76167216 153.691245 79.16333008 186.67944336 C76.36262301 226.47125304 85.45307515 262.51775411 111.65380859 293.20678711 C115.70889599 297.82126861 120.05611901 302.03209689 124.58984375 306.171875 C125.32596138 306.84649529 125.32596138 306.84649529 126.07695007 307.53474426 C128.06963488 309.15035185 128.06963488 309.15035185 130.91682434 310.43730164 C135.34309135 312.91429034 139.13177028 315.15058891 140.67518425 320.21586227 C141.73210744 327.08970196 141.37425076 334.04554155 141.171875 340.97265625 C141.14947259 343.22419195 141.13240091 345.47578645 141.12042236 347.72740173 C141.07476507 353.63251376 140.95704169 359.53404135 140.82397461 365.43774414 C140.70085974 371.47037262 140.6463362 377.50358473 140.5859375 383.53710938 C140.45752728 395.35964149 140.25292828 407.17952186 140 419 C137.44872408 419.00805614 134.89747397 419.01392514 132.34619141 419.01855469 C131.62947769 419.02104218 130.91276398 419.02352966 130.17433167 419.02609253 C124.54362079 419.03374432 118.9821648 418.78076755 113.375 418.25 C112.42028809 418.16202148 111.46557617 418.07404297 110.48193359 417.98339844 C73.26554779 414.38468617 36.07716903 407.83922792 0 398 C0 266.66 0 135.32 0 0 Z " fill="#004C97" transform="translate(429,707)"/>
<path d="M0 0 C45.87 0 91.74 0 139 0 C139 131.34 139 262.68 139 398 C130.76586698 400.74471101 122.93363736 403.11088719 114.5 404.875 C112.71613892 405.25072144 112.71613892 405.25072144 110.89624023 405.6340332 C85.45593449 410.87351892 59.89157445 414.84957619 34 417 C32.40430176 417.14574463 32.40430176 417.14574463 30.77636719 417.29443359 C23.67673669 417.8879685 16.65723018 418.05510539 9.53564453 418.02661133 C8.61525894 418.02469032 7.69487335 418.02276932 6.74659729 418.0207901 C4.49771887 418.01581773 2.24886596 418.00884447 0 418 C-0.27833366 405.23073338 -0.4914032 392.46219076 -0.62174606 379.69050598 C-0.68431415 373.7595387 -0.76913308 367.83064982 -0.90527344 361.90087891 C-1.03589738 356.17539147 -1.10745618 350.4518993 -1.13852692 344.72503662 C-1.16065985 342.54311707 -1.20388592 340.361304 -1.26876068 338.18023682 C-1.74551708 321.48410838 -1.74551708 321.48410838 1.18379402 317.31529999 C4.34600565 314.30187038 8.02347875 312.67045461 12 311 C13.99406023 309.53913713 15.63910199 307.95801059 17.4375 306.25 C19.7469972 304.07727505 22.00796616 301.99382746 24.515625 300.05078125 C29.03153378 296.32302636 32.40714555 291.59523065 36 287 C37.01126953 285.72962891 37.01126953 285.72962891 38.04296875 284.43359375 C49.4366146 269.53770946 55.83814301 252.8957264 61 235 C61.20915039 234.28553711 61.41830078 233.57107422 61.63378906 232.83496094 C66.6250669 214.90129046 65.96890019 192.84092182 61 175 C60.7215625 173.79214844 60.443125 172.58429688 60.15625 171.33984375 C52.53883276 139.58966068 32.98697842 113.18841339 7 94 C6.4400597 93.69328778 5.8801194 93.38657557 5.30321121 93.07056904 C0.39105705 90.15079818 0.39105705 90.15079818 -0.63794994 87.12264824 C-0.86222533 84.80904819 -0.86641533 82.58601664 -0.79467773 80.26245117 C-0.79552148 79.37966397 -0.79636522 78.49687677 -0.79723454 77.58733845 C-0.79202141 74.73794588 -0.73878977 71.89178524 -0.68359375 69.04296875 C-0.67329767 67.2808181 -0.66615893 65.51864608 -0.66223145 63.75646973 C-0.62557803 57.23315267 -0.52784847 50.71029435 -0.4375 44.1875 C-0.293125 29.605625 -0.14875 15.02375 0 0 Z " fill="#004C97" transform="translate(711,707)"/>
<path d="M0 0 C41.58 0 83.16 0 126 0 C126 109.23 126 218.46 126 331 C116.25915466 323.694366 106.97874473 316.21601976 98 308 C97.06285156 307.16726563 96.12570312 306.33453125 95.16015625 305.4765625 C82.80208656 294.40139361 71.96161161 282.25710534 62 269 C61.50032715 268.34612305 61.0006543 267.69224609 60.48583984 267.01855469 C31.27834667 228.68769943 11.86598705 182.62792571 3.40869141 135.24951172 C3.0312264 133.1718758 2.62194786 131.10397481 2.19921875 129.03515625 C1.35498382 124.70141695 0.64127903 120.3677666 0 116 C-0.13825195 115.07348633 -0.27650391 114.14697266 -0.41894531 113.19238281 C-5.08068916 80.22343595 -10.67155068 32.01465204 0 0 Z " fill="#004C97" transform="translate(161,707)"/>
<path d="M0 0 C42.24 0 84.48 0 128 0 C129.23592371 16.68497002 130.34395028 32.96052292 130.25 49.625 C130.24756287 50.58804047 130.24512573 51.55108093 130.24261475 52.54330444 C130.1986279 67.44792325 129.70104731 82.18085852 128 97 C127.84207628 98.5064715 127.68450557 100.01298007 127.52734375 101.51953125 C126.54556348 110.45840689 124.8518545 119.20601757 123 128 C122.54077901 130.37482853 122.08245902 132.74983144 121.625 135.125 C121.091429 137.7520205 120.55100334 140.37666581 120 143 C119.84337891 143.75458496 119.68675781 144.50916992 119.52539062 145.28662109 C113.49214044 173.84053792 102.64861309 201.24766475 89 227 C88.61730957 227.7228418 88.23461914 228.44568359 87.84033203 229.19042969 C73.00988562 256.9863087 54.04070243 281.0780387 31.875 303.375 C31.36988892 303.88546875 30.86477783 304.3959375 30.34436035 304.921875 C21.27419684 314.0649415 11.66595227 322.72775982 1 330 C0.67 330 0.34 330 0 330 C0 221.1 0 112.2 0 0 Z " fill="#004C97" transform="translate(992,707)"/>
<path d="M0 0 C4.29787981 2.29147164 8.50288514 4.70359787 12.6875 7.1953125 C33.57261198 19.34201348 56.53730299 28.95287387 80.0625 34.6328125 C80.97547852 34.85678711 81.88845703 35.08076172 82.82910156 35.31152344 C97.02969733 38.73372906 111.19179061 41.25578292 125.6875 42.9453125 C126.37549683 43.02644287 127.06349365 43.10757324 127.77233887 43.19116211 C146.64370515 45.38048913 165.41015047 45.79563446 184.40014648 45.76318359 C188.09428071 45.7578568 191.78829148 45.76314215 195.48242188 45.76953125 C215.31809386 45.77589795 235.18274711 45.51128167 254.9375 43.5703125 C262.34226442 42.85421388 269.6209735 42.51110108 277.0625 42.6328125 C273.96938487 48.90684013 270.81098285 55.132623 267.52099609 61.30541992 C254.33982763 86.09037154 243.90557639 111.64690833 236.0625 138.6328125 C235.74055664 139.72722656 235.74055664 139.72722656 235.41210938 140.84375 C225.66447088 174.41567714 221.83091339 209.22124579 221.875 244.0703125 C221.87626892 245.0996994 221.87753784 246.1290863 221.87884521 247.18966675 C221.9131408 261.76288265 221.99367897 276.18251313 224.0625 290.6328125 C224.15251282 291.27293274 224.24252563 291.91305298 224.33526611 292.5725708 C230.39348178 335.49371985 241.07911803 377.04693817 258.97216797 416.64599609 C260.24823705 419.50430145 261.0625 421.46130771 261.0625 424.6328125 C-38.9075 424.6328125 -338.8775 424.6328125 -647.9375 424.6328125 C-645.99921153 418.17185095 -644.03392499 412.21622987 -641.4375 406.0703125 C-633.05402 385.62694935 -625.82626164 364.18493174 -620.9375 342.6328125 C-620.64117676 341.34842285 -620.64117676 341.34842285 -620.33886719 340.03808594 C-612.7905804 306.89840693 -608.81217383 273.86319373 -608.6875 239.8828125 C-608.67932755 238.53671402 -608.67932755 238.53671402 -608.67098999 237.16342163 C-608.42547427 182.85223614 -621.65669709 128.58171847 -644.9375 79.6328125 C-645.28876953 78.88870117 -645.64003906 78.14458984 -646.00195312 77.37792969 C-650.63018732 67.64759637 -655.8321294 58.22429874 -661.07788086 48.81567383 C-661.57811768 47.91228271 -662.07835449 47.0088916 -662.59375 46.078125 C-663.04556641 45.26875488 -663.49738281 44.45938477 -663.96289062 43.62548828 C-664.9375 41.6328125 -664.9375 41.6328125 -664.9375 39.6328125 C-658.32715983 40.00439967 -651.77268308 40.39530434 -645.25 41.5703125 C-640.15970648 42.47375532 -635.07483814 43.13650317 -629.9375 43.6953125 C-629.24567627 43.77450928 -628.55385254 43.85370605 -627.84106445 43.93530273 C-609.38930638 45.87256454 -590.78049452 45.87380154 -572.25 45.8828125 C-570.99459412 45.88348724 -569.73918823 45.88416199 -568.44573975 45.88485718 C-539.40192043 45.86013923 -511.39323195 43.85046914 -482.9375 37.6328125 C-481.99167053 37.42907516 -481.99167053 37.42907516 -481.0267334 37.22122192 C-469.84129112 34.79087272 -459.02562578 31.61375503 -448.1875 27.9453125 C-447.40380035 27.68203156 -446.62010071 27.41875061 -445.81265259 27.14749146 C-427.70865473 21.05044734 -410.54915151 13.57414012 -393.39526367 5.17358398 C-392.4797876 4.72700439 -391.56431152 4.2804248 -390.62109375 3.8203125 C-389.40764282 3.22283203 -389.40764282 3.22283203 -388.16967773 2.61328125 C-386.02309783 1.67041076 -384.26670661 0.91083143 -381.9375 0.6328125 C-379.98413086 1.41455078 -379.98413086 1.41455078 -377.90234375 2.703125 C-377.10739502 3.18088379 -376.31244629 3.65864258 -375.4934082 4.15087891 C-374.6293335 4.68116699 -373.76525879 5.21145508 -372.875 5.7578125 C-341.45099601 24.31588176 -306.82428716 38.38986856 -271.11547852 46.13134766 C-268.48530345 46.7369277 -265.88100311 47.42771113 -263.26953125 48.109375 C-246.9893842 52.20237749 -229.71843473 54.37164232 -212.9375 54.6328125 C-211.74801758 54.65327637 -210.55853516 54.67374023 -209.33300781 54.69482422 C-168.21353977 55.32815262 -128.21799695 51.17695346 -89.125 37.8828125 C-88.33802734 37.61725555 -87.55105469 37.35169861 -86.74023438 37.07809448 C-60.00756917 28.04939385 -33.23895778 17.57402576 -9.15234375 2.70776367 C-3.76674618 -0.47084327 -3.76674618 -0.47084327 0 0 Z M-9.45703125 10.796875 C-10.7865291 11.50805533 -12.11620858 12.21889618 -13.44604492 12.92944336 C-14.49651505 13.49887161 -14.49651505 13.49887161 -15.56820679 14.07980347 C-51.43590679 33.44574262 -90.38312886 48.41516328 -130.55322266 55.8359375 C-132.75441796 56.24696684 -134.9489348 56.68518887 -137.14453125 57.125 C-154.43621043 60.35708957 -171.130242 61.14887433 -188.9375 62.6328125 C-188.9375 179.7828125 -188.9375 296.9328125 -188.9375 417.6328125 C-44.0675 417.6328125 100.8025 417.6328125 250.0625 417.6328125 C249.2744606 412.90457612 248.34450853 409.29047954 246.69921875 404.87109375 C246.34933647 403.92413887 246.34933647 403.92413887 245.99238586 402.95805359 C245.24991923 400.9519107 244.50016925 398.94858613 243.75 396.9453125 C243.25796498 395.62062778 242.7664245 394.29575927 242.27539062 392.97070312 C239.62635012 385.8148476 239.62635012 385.8148476 236.93579102 378.67456055 C234.36331378 371.82928102 232.41638797 364.90724066 230.625 357.8203125 C230.32352051 356.63381104 230.02204102 355.44730957 229.71142578 354.22485352 C228.82076113 350.69605057 227.94134106 347.16457495 227.0625 343.6328125 C226.82354004 342.69501953 226.58458008 341.75722656 226.33837891 340.79101562 C221.89988617 323.29870968 219.37890765 305.50768353 217.0625 287.6328125 C216.85898926 286.0852124 216.85898926 286.0852124 216.65136719 284.50634766 C212.92623104 254.84691858 214.21992496 224.19212649 218.0625 194.6328125 C218.17996582 193.66939941 218.29743164 192.70598633 218.41845703 191.71337891 C223.18378426 152.66821589 234.510697 115.01257248 250.75 79.2578125 C251.06792511 78.55725739 251.38585022 77.85670227 251.71340942 77.13491821 C255.19893777 69.48863677 258.8254973 61.98309754 263.00708008 54.68505859 C264.21494695 52.72100394 264.21494695 52.72100394 264.0625 50.6328125 C262.33343516 50.60477361 260.60422126 50.58597168 258.875 50.5703125 C257.91207031 50.55871094 256.94914062 50.54710937 255.95703125 50.53515625 C252.60340534 50.61924918 249.3108814 50.83143777 245.96875 51.1015625 C209.20890394 54.0449619 170.72348534 54.77443009 134.0625 50.6328125 C133.08667969 50.53097656 132.11085938 50.42914063 131.10546875 50.32421875 C87.52728472 45.74596595 45.67011056 33.95668235 7.50805664 12.17480469 C6.72164795 11.72782227 5.93523926 11.28083984 5.125 10.8203125 C4.43535156 10.42199219 3.74570312 10.02367188 3.03515625 9.61328125 C-2.11798219 7.05201838 -4.54219424 8.0590052 -9.45703125 10.796875 Z M-390.73046875 11.37890625 C-391.90641602 11.96478516 -393.08236328 12.55066406 -394.29394531 13.15429688 C-395.23059021 13.62355591 -395.23059021 13.62355591 -396.18615723 14.10229492 C-408.97295177 20.48643398 -421.86729609 25.99196421 -435.3671875 30.72167969 C-437.6656593 31.53644952 -439.94348213 32.38860873 -442.21875 33.265625 C-482.30691577 48.51235194 -526.68824477 53.27315593 -569.27152634 53.07843018 C-571.34884985 53.07016792 -573.42610963 53.06804141 -575.50344849 53.06713867 C-597.04138691 53.04468228 -618.20891879 51.82403075 -639.56982422 49.0078125 C-643.73917388 48.5435439 -647.74893611 48.48305379 -651.9375 48.6328125 C-650.36698638 54.12078704 -647.78292634 58.78295218 -645.0625 63.7578125 C-622.65435184 105.83977011 -609.84958629 151.53846099 -603.9375 198.6328125 C-603.80617676 199.63441406 -603.67485352 200.63601563 -603.53955078 201.66796875 C-599.6939513 232.00128075 -601.15546963 263.37201835 -604.9375 293.6328125 C-605.04433105 294.50953613 -605.15116211 295.38625977 -605.26123047 296.28955078 C-605.95657369 301.77808097 -606.9018977 307.19918956 -607.9375 312.6328125 C-608.15889648 313.8197168 -608.38029297 315.00662109 -608.60839844 316.22949219 C-614.3520393 346.81085099 -622.99131184 376.06616975 -633.72998047 405.25732422 C-635.19756176 409.35978659 -636.55967591 413.49934022 -637.9375 417.6328125 C-492.0775 417.6328125 -346.2175 417.6328125 -195.9375 417.6328125 C-195.9375 300.4828125 -195.9375 183.3328125 -195.9375 62.6328125 C-205.8375 61.9728125 -215.7375 61.3128125 -225.9375 60.6328125 C-279.04529484 55.53660996 -330.44698571 38.4985859 -376.54711914 11.57788086 C-382.53397258 8.1145245 -384.6651261 8.31144641 -390.73046875 11.37890625 Z " fill="#090602" transform="translate(831.9375,111.3671875)"/>
<path d="M0 0 C0 135.3 0 270.6 0 410 C-16.5 410 -33 410 -50 410 C-50 282.29 -50 154.58 -50 23 C-38.12 17.555 -38.12 17.555 -26 12 C-21.69334507 9.80848887 -17.42692821 7.61956649 -13.1875 5.3125 C-11.28818011 4.2821666 -9.38597301 3.25713181 -7.48046875 2.23828125 C-6.68535889 1.80555908 -5.89024902 1.37283691 -5.07104492 0.92700195 C-3 0 -3 0 0 0 Z " fill="#DA002F" transform="translate(832,119)"/>
<path d="M0 0 C7.43500577 3.71750289 14.8029381 7.42598742 22.04882812 11.47851562 C29.8304643 15.69325099 37.65951521 18.56568273 46 22 C46 149.71 46 277.42 46 409 C30.82 409 15.64 409 0 409 C0 274.03 0 139.06 0 0 Z " fill="#FEEB02" transform="translate(832,120)"/>
<path d="M0 0 C1.46979891 0.00138269 1.46979891 0.00138269 2.96929073 0.00279331 C4.64997646 0.00073132 4.64997646 0.00073132 6.36461544 -0.00137234 C8.22469486 0.00402058 8.22469486 0.00402058 10.12235165 0.00952244 C12.06840801 0.0093034 12.06840801 0.0093034 14.05377865 0.00907993 C17.62180117 0.00879197 21.18979036 0.01468851 24.75780511 0.02165389 C28.48274808 0.02788762 32.20769174 0.02849124 35.93263912 0.0296793 C42.99101551 0.03279256 50.04937648 0.04100587 57.10774606 0.05102879 C66.64243135 0.06427538 76.17712082 0.06968988 85.71181297 0.07553101 C100.7411675 0.08494577 115.77048949 0.10486472 130.79984188 0.12304783 C130.79984188 39.72304783 130.79984188 79.32304783 130.79984188 120.12304783 C76.01984188 120.12304783 21.23984188 120.12304783 -35.20015812 120.12304783 C-33.45676546 114.89286986 -31.71771054 109.71853827 -29.81734562 104.55273533 C-20.75051589 79.64961834 -12.85040053 54.58488603 -7.68355656 28.54736423 C-7.22954891 26.27044708 -6.75448422 23.99921693 -6.27047062 21.72851658 C-4.94938824 15.46172696 -3.85444333 9.2777345 -3.41109562 2.88086033 C-3.09221311 0.22350612 -2.68019002 0.14989448 0 0 Z " fill="#FEFDFD" transform="translate(229.20015811920166,408.8769521713257)"/>
<path d="M0 0 C0 127.38 0 254.76 0 386 C-15.18 386 -30.36 386 -46 386 C-46 263.9 -46 141.8 -46 16 C-34.78 12.04 -23.56 8.08 -12 4 C-2 0 -2 0 0 0 Z " fill="#FEEA02" transform="translate(782,143)"/>
<path d="M0 0 C0 39.27 0 78.54 0 119 C-45.54 119 -91.08 119 -138 119 C-139.65 112.07 -141.3 105.14 -143 98 C-151.37999017 67.43248311 -163.11914906 37.17250375 -179.12158203 9.73120117 C-180 8 -180 8 -180 6 C-174.49981743 5.80334543 -169.29853875 6.15532655 -163.83984375 6.875 C-143.05373948 9.58223926 -122.39982829 10.42614161 -101.45918655 10.4352417 C-99.41227636 10.43745961 -97.36546172 10.44547393 -95.318573 10.45483398 C-71.22262366 10.52713714 -47.32009998 9.0008941 -23.625 4.4375 C-22.47902344 4.22931641 -21.33304688 4.02113281 -20.15234375 3.80664062 C-15.70013913 2.98187101 -11.29928081 2.15467701 -6.9609375 0.84765625 C-4 0 -4 0 0 0 Z " fill="#FEFCFD" transform="translate(360,154)"/>
<path d="M0 0 C8.58 1.32 17.16 2.64 26 4 C32.27 4.66 38.54 5.32 45 6 C45 126.78 45 247.56 45 372 C30.15 372 15.3 372 0 372 C0 249.24 0 126.48 0 0 Z " fill="#FEEC02" transform="translate(929,157)"/>
<path d="M0 0 C45.54 0 91.08 0 138 0 C138 39.27 138 78.54 138 119 C92.46 119 46.92 119 0 119 C0 79.73 0 40.46 0 0 Z " fill="#FFFFFF" transform="translate(497,410)"/>
<path d="M0 0 C0 118.14 0 236.28 0 358 C-13.86 358 -27.72 358 -42 358 C-42 240.85 -42 123.7 -42 3 C-6 0 -6 0 0 0 Z " fill="#FEEC01" transform="translate(685,171)"/>
<path d="M0 0 C3.64500019 0.72900004 6.41609406 1.44465203 9.7890625 2.78515625 C39.68829258 14.45333858 70.15294352 22.66367258 102.0625 26.3125 C102.77132324 26.39399292 103.48014648 26.47548584 104.21044922 26.55944824 C115.47521577 27.82893002 126.65684478 28.40299183 138 29 C138 61.34 138 93.68 138 127 C92.46 127 46.92 127 0 127 C0 85.09 0 43.18 0 0 Z " fill="#FEFEFE" transform="translate(497,145)"/>
<path d="M0 0 C1.49466797 0.01353516 1.49466797 0.01353516 3.01953125 0.02734375 C4.09267578 0.04474609 4.09267578 0.04474609 5.1875 0.0625 C3.75942745 4.75782945 1.80433779 9.02650518 -0.4375 13.375 C-1.16272106 14.8105607 -1.886641 16.24677933 -2.609375 17.68359375 C-2.97740234 18.41433105 -3.34542969 19.14506836 -3.72460938 19.89794922 C-26.00524465 64.2292132 -38.02099974 111.82610983 -42.8125 161.0625 C-42.90966309 162.05161377 -43.00682617 163.04072754 -43.10693359 164.05981445 C-43.95481948 173.70090109 -44.05471242 183.32839329 -44.0625 193 C-44.06350708 193.87522308 -44.06451416 194.75044617 -44.06555176 195.65219116 C-44.05295961 211.96513461 -42.95939402 227.87909488 -40.8125 244.0625 C-40.66264648 245.23087402 -40.51279297 246.39924805 -40.35839844 247.60302734 C-38.35775971 262.97311486 -35.58620901 278.03089441 -31.8125 293.0625 C-31.6047998 293.89749023 -31.39709961 294.73248047 -31.18310547 295.59277344 C-25.61225436 317.83262159 -18.57349772 339.82656614 -9.53149414 360.91064453 C-8.8125 363.0625 -8.8125 363.0625 -8.8125 367.0625 C-27.6225 367.0625 -46.4325 367.0625 -65.8125 367.0625 C-65.8125 246.9425 -65.8125 126.8225 -65.8125 3.0625 C-48.96890481 1.93959365 -48.96890481 1.93959365 -43.0234375 1.78125 C-41.73179688 1.74386719 -40.44015625 1.70648438 -39.109375 1.66796875 C-36.4869848 1.5974463 -33.86458892 1.52713505 -31.2421875 1.45703125 C-24.00346257 1.24710823 -16.81555065 0.86950241 -9.59863281 0.27197266 C-6.39249062 0.03092201 -3.21458712 -0.03872997 0 0 Z " fill="#FDEB01" transform="translate(1090.8125,161.9375)"/>
<path d="M0 0 C7.92 3.96 7.92 3.96 16 8 C33.65036909 16.12229374 51.00292111 20.38318958 70.4375 20.25 C72.12456055 20.26160156 72.12456055 20.26160156 73.84570312 20.2734375 C84.96322144 20.24789467 95.64980132 18.63251413 106.375 15.75 C107.17808594 15.53601562 107.98117187 15.32203125 108.80859375 15.1015625 C120.40559949 11.903656 131.04541572 6.97935649 142 2 C142 34.67 142 67.34 142 101 C95.14 101 48.28 101 0 101 C0 67.67 0 34.34 0 0 Z " fill="#A30043" transform="translate(569,1025)"/>
<path d="M0 0 C11.34375 -0.0825 22.6875 -0.165 34.375 -0.25 C37.93845215 -0.28641602 41.5019043 -0.32283203 45.17333984 -0.36035156 C49.5715332 -0.37841797 49.5715332 -0.37841797 51.63955688 -0.3817749 C53.06416848 -0.38786164 54.48876127 -0.40181299 55.91323853 -0.42230225 C69.3289942 -0.60539089 79.05102093 1.64186068 89 11 C95.89704036 18.514461 98.6258413 25.7718425 98.35546875 35.96875 C97.49635722 43.29479995 94.10966948 49.04806489 90 55 C89.0949104 56.92733371 89.0949104 56.92733371 89 59 C90.25001594 60.70680687 90.25001594 60.70680687 92.125 62.1875 C98.555972 68.16830396 101.63703619 74.73999991 102.23828125 83.453125 C102.38910995 91.16920354 102.13106968 97.27738972 98 104 C97.34644531 105.13695312 97.34644531 105.13695312 96.6796875 106.296875 C90.81688972 115.8439446 82.58046909 122.26210388 72 126 C66.33692895 126.76975612 60.78158669 126.70629599 55.078125 126.5859375 C53.660659 126.57708978 52.24317323 126.57098478 50.82568359 126.56762695 C45.63348552 126.5364704 40.4417101 126.45270374 35.25 126.375 C17.80125 126.189375 17.80125 126.189375 0 126 C0 84.42 0 42.84 0 0 Z " fill="#000000" transform="translate(741,555)"/>
<path d="M0 0 C46.86 0 93.72 0 142 0 C142 29.37 142 58.74 142 89 C136.39 86.36 130.78 83.72 125 81 C121.91319477 79.79787004 118.95275009 78.67160324 115.8125 77.6875 C115.07547852 77.44878174 114.33845703 77.21006348 113.57910156 76.96411133 C106.8143182 74.82913168 99.98308335 73.25731682 93 72 C92.0829126 71.82799072 91.1658252 71.65598145 90.22094727 71.47875977 C74.34832111 69.11946166 55.48212474 69.68684022 40 74 C39.18805176 74.22574707 38.37610352 74.45149414 37.53955078 74.68408203 C24.83563507 78.34309285 13.4492647 83.43744483 2 90 C1.01 90.495 1.01 90.495 0 91 C0 60.97 0 30.94 0 0 Z " fill="#A40044" transform="translate(569,707)"/>
<path d="M0 0 C9.95237434 6.28869195 15.46456075 17.67381643 19.50390625 28.3671875 C20.71135315 34.77521278 18.49974882 39.76858387 15.1875 45.125 C14.79079102 45.77170654 14.39408203 46.41841309 13.98535156 47.0847168 C-3.16152146 74.04062921 -32.24548038 87.54763058 -62 96 C-63.66542847 96.48460693 -63.66542847 96.48460693 -65.36450195 96.97900391 C-74.14263611 99.4422884 -82.88052646 101.13833251 -91.90112305 102.43798828 C-94.09390698 102.75453384 -96.28421609 103.0853184 -98.47460938 103.41796875 C-114.83394155 105.84957882 -114.83394155 105.84957882 -118.96484375 102.83984375 C-119.97079677 101.88807282 -120.96120826 100.91967301 -121.9375 99.9375 C-122.72616455 99.17433472 -122.72616455 99.17433472 -123.53076172 98.39575195 C-124.57029981 97.38652437 -125.60404793 96.37129183 -126.63134766 95.34960938 C-127.72203639 94.27409612 -128.84603609 93.23239329 -129.98046875 92.203125 C-138.71055037 84.15734906 -146.09909732 72.75807904 -151 62 C-151 61.34 -151 60.68 -151 60 C-150.0867395 59.86537354 -150.0867395 59.86537354 -149.1550293 59.72802734 C-130.2537868 56.8564546 -116.37281654 52.31283102 -104.375 36.4375 C-103.57201573 35.29956925 -102.7754496 34.15686994 -102 33 C-98.64236474 34.19141896 -95.64389914 35.73548259 -92.5625 37.5 C-84.96368807 41.74381754 -78.63616987 43.25498716 -70.0703125 41.34765625 C-54.45854986 36.71974188 -45.3498479 25.12131091 -37.859375 11.33203125 C-33.53208391 3.57745289 -30.79456009 0.83088773 -22.3828125 -2.0859375 C-14.59786796 -4.18949064 -7.24650008 -3.64297735 0 0 Z " fill="#EBB900" transform="translate(678,907)"/>
<path d="M0 0 C-0.40992188 0.65226563 -0.81984375 1.30453125 -1.2421875 1.9765625 C-1.78101563 2.85054687 -2.31984375 3.72453125 -2.875 4.625 C-3.40867187 5.48351562 -3.94234375 6.34203125 -4.4921875 7.2265625 C-8.89958936 15.33344157 -9.3340638 23.71527515 -7.08984375 32.60546875 C-4.59299846 39.96754956 -1.32604454 46.54809852 3 53 C2.41992188 53.78761719 1.83984375 54.57523438 1.2421875 55.38671875 C-8.67262943 69.11525385 -14.43149721 81.78101632 -13 99 C-10.82345456 109.61932361 -2.94789416 118.07334635 5.62890625 124.234375 C7 126 7 126 6.90625 128.87109375 C3.51405222 140.58294902 -6.20904611 150.91336864 -16.60546875 156.80859375 C-23.07637967 160.02821501 -28.30532556 161.19831755 -35.41796875 159.3828125 C-48.63181639 154.63507074 -59.80088231 144.54329456 -66.3125 132.1875 C-81.15952672 100.14266733 -73.89254992 60.58761185 -64 28 C-59.52161121 17.14111104 -46.1986031 12.5829989 -36 8 C-29.073989 5.15901205 -21.90369222 3.42032703 -14.625 1.75 C-13.48248779 1.48654785 -13.48248779 1.48654785 -12.31689453 1.21777344 C-8.13336268 0.30490226 -4.31087943 -0.19159464 0 0 Z " fill="#EBB900" transform="translate(630,784)"/>
<path d="M0 0 C30.58249191 -1.18815427 55.27327341 11.43275577 77.7980957 31.1159668 C78.6655542 31.87176025 78.6655542 31.87176025 79.55053711 32.64282227 C85.7535261 38.08921674 91.5850638 43.70738419 96.7980957 50.1159668 C97.22026367 50.62047363 97.64243164 51.12498047 98.07739258 51.64477539 C101.7640015 56.05075347 105.32529871 60.53959446 108.7980957 65.1159668 C109.33708496 65.8255957 109.87607422 66.53522461 110.43139648 67.26635742 C120.64919424 80.99681177 120.64919424 80.99681177 120.1730957 88.3034668 C119.77295602 90.25381649 119.31220953 92.19251608 118.7980957 94.1159668 C118.61118164 95.1884668 118.42426758 96.2609668 118.23168945 97.3659668 C116.49389009 106.98397587 113.21079456 115.99334784 109.7980957 125.1159668 C106.09428606 123.88136358 105.66826641 122.72654401 103.6105957 119.4909668 C96.43299677 108.99372836 86.43674831 102.39580441 73.96606445 99.47558594 C70.080577 98.83106758 66.2251888 98.90781987 62.2980957 98.9909668 C61.47567383 98.99999023 60.65325195 99.00901367 59.8059082 99.01831055 C57.80317488 99.04159814 55.80059417 99.07745721 53.7980957 99.1159668 C53.05366211 97.32352539 53.05366211 97.32352539 52.29418945 95.49487305 C46.56619919 81.97948614 40.14486995 69.04180833 25.7980957 63.1159668 C12.92265331 60.09396214 2.51884201 64.02822991 -9.2019043 69.1159668 C-27.20888001 52.05811426 -27.20888001 52.05811426 -27.67895508 41.24511719 C-27.81293412 28.81499797 -23.83006868 20.47676206 -17.2019043 10.1159668 C-16.63084961 9.21491211 -16.05979492 8.31385742 -15.47143555 7.38549805 C-14.90811523 6.57467773 -14.34479492 5.76385742 -13.7644043 4.9284668 C-13.27069336 4.21303711 -12.77698242 3.49760742 -12.26831055 2.76049805 C-8.68299342 -0.09284508 -4.39547092 0.23149448 0 0 Z " fill="#EBBA00" transform="translate(649.201904296875,836.884033203125)"/>
<path d="M0 0 C3.19451817 1.77362828 6.09142312 3.79492038 9 6 C9.86625 6.5775 10.7325 7.155 11.625 7.75 C16.58626804 12.45014866 22.21720988 19.41176481 23.39453125 26.3125 C22.82970406 30.16003574 20.86577423 32.87756464 18.6875 36 C18.01243408 36.98468262 18.01243408 36.98468262 17.32373047 37.98925781 C-2.57536878 66.51473687 -31.4249757 87.09643205 -65.93408203 93.54858398 C-73.91432197 94.87270799 -81.66618848 95.35180176 -89.75 95.3125 C-90.9757373 95.30686035 -92.20147461 95.3012207 -93.46435547 95.29541016 C-102.93325624 95.16919147 -111.85086194 94.46271047 -121 92 C-121.70705078 91.81195801 -122.41410156 91.62391602 -123.14257812 91.43017578 C-132.4317707 88.85825616 -141.01054187 85.24825334 -149.5625 80.8125 C-150.39056152 80.38445068 -151.21862305 79.95640137 -152.07177734 79.51538086 C-152.83312988 79.10425049 -153.59448242 78.69312012 -154.37890625 78.26953125 C-155.0551001 77.90448486 -155.73129395 77.53943848 -156.42797852 77.16333008 C-158 76 -158 76 -159 73 C-158.38294189 72.90501221 -157.76588379 72.81002441 -157.13012695 72.7121582 C-116.68079664 66.41356089 -75.8073246 56.8073246 -46 27 C-45.33484375 26.33484375 -44.6696875 25.6696875 -43.984375 24.984375 C-38.03022957 18.60110197 -33.88102398 10.91337422 -29.48828125 3.421875 C-23.40032862 -6.74299485 -9.88712366 -3.98746067 0 0 Z " fill="#EBB900" transform="translate(731,944)"/>
<path d="M0 0 C1.05469482 0.01208496 2.10938965 0.02416992 3.19604492 0.03662109 C10.75079493 0.22950833 17.23119736 1.09492345 24.0625 4.5 C24.99835938 4.93570313 25.93421875 5.37140625 26.8984375 5.8203125 C35.75327864 10.25986299 45.34675512 16.86896011 49.0625 26.5 C47.81534002 30.24147995 46.86272731 30.43210658 43.44140625 32.19921875 C42.50619141 32.68583984 41.57097656 33.17246094 40.60742188 33.67382812 C39.62322266 34.17333984 38.63902344 34.67285156 37.625 35.1875 C36.64466797 35.69861328 35.66433594 36.20972656 34.65429688 36.73632812 C27.35307493 40.5 27.35307493 40.5 25.0625 40.5 C23.97530319 39.28939166 22.94195376 38.03009456 21.9375 36.75 C17.55231724 31.57749842 12.67540037 28.88741243 6.0625 27.5 C-2.90309652 26.89216295 -9.27562739 28.78254101 -16.3125 34.5 C-21.35913155 39.3119045 -22.94299203 43.71096088 -23.9375 50.5 C-24.164375 51.77875 -24.39125 53.0575 -24.625 54.375 C-24.75362462 55.74792804 -24.85466938 57.12354993 -24.9375 58.5 C-25.00195312 59.46550781 -25.06640625 60.43101562 -25.1328125 61.42578125 C-25.50001596 71.64627764 -23.77663323 82.48844393 -16.9375 90.5 C-11.13295777 96.36258766 -5.5266886 99.5917338 2.875 100 C9.14526112 99.8038091 14.07410137 98.37396915 19.0625 94.5 C21.42665205 91.67247415 23.32327153 88.74514581 25.0625 85.5 C29.95778263 87.24272062 34.33118015 89.7829381 38.8125 92.375 C39.59238281 92.80941406 40.37226562 93.24382812 41.17578125 93.69140625 C41.91699219 94.12066406 42.65820312 94.54992187 43.421875 94.9921875 C44.09702148 95.37745605 44.77216797 95.76272461 45.46777344 96.15966797 C47.46108212 97.83499936 47.7640378 98.94501146 48.0625 101.5 C44.34282576 112.48800321 34.80059263 120.63137326 25.0546875 126.125 C13.4088541 131.47661012 -3.50927796 131.70014939 -15.75 127.9375 C-18.4140625 126.81640625 -18.4140625 126.81640625 -20.9375 125.5 C-21.87335937 125.01402344 -22.80921875 124.52804687 -23.7734375 124.02734375 C-39.50195003 114.91342484 -47.1024917 100.35510861 -51.9375 83.5 C-55.41680385 68.45410963 -53.9521317 51.00784827 -48.9375 36.5 C-48.62554688 35.55253906 -48.31359375 34.60507812 -47.9921875 33.62890625 C-45.82691619 27.65166569 -42.68574787 22.60945367 -38.9375 17.5 C-38.215625 16.46875 -37.49375 15.4375 -36.75 14.375 C-27.59034322 3.8399315 -13.43171964 -0.24763892 0 0 Z " fill="#030200" transform="translate(626.9375,553.5)"/>
<path d="M0 0 C1.09828125 0.10731445 1.09828125 0.10731445 2.21875 0.21679688 C31.21495353 3.34942243 56.03873132 17.28905261 77 37 C77.59039063 37.5259375 78.18078125 38.051875 78.7890625 38.59375 C99.16396847 57.52020294 112.51507025 88.28902493 114.2421875 115.8671875 C114.24860296 118.59375979 114.19535953 121.2812466 114 124 C111.09690275 120.40411818 108.28836788 116.74779288 105.5 113.0625 C88.58247421 90.97449587 69.86688048 72.0332281 45 59 C44.28972656 58.60554687 43.57945312 58.21109375 42.84765625 57.8046875 C29.44153923 50.605631 15.8565986 47.6505522 0.8125 47.8125 C-0.33669922 47.81314453 -1.48589844 47.81378906 -2.66992188 47.81445312 C-7.91350847 47.84177929 -12.83262032 48.03738769 -18 49 C-19.30143546 46.81782566 -20.59107427 44.62994758 -21.875 42.4375 C-22.23980469 41.82841797 -22.60460937 41.21933594 -22.98046875 40.59179688 C-27.5685544 32.70863153 -28.95611684 25.06495584 -28 16 C-27.12036081 12.93969838 -25.78574096 10.61908674 -24 8 C-23.59523438 7.25234375 -23.19046875 6.5046875 -22.7734375 5.734375 C-17.38404632 -2.50822327 -8.67901694 -0.89858509 0 0 Z " fill="#EAB900" transform="translate(655,784)"/>
<path d="M0 0 C29.37 0 58.74 0 89 0 C89 8.91 89 17.82 89 27 C68.21 27 47.42 27 26 27 C26 33.6 26 40.2 26 47 C37.88 47 49.76 47 62 47 C62 55.58 62 64.16 62 73 C50.12 73 38.24 73 26 73 C26 89.83 26 106.66 26 124 C17.42 124 8.84 124 0 124 C0 83.08 0 42.16 0 0 Z " fill="#020100" transform="translate(434,555)"/>
<path d="M0 0 C1.26191044 3.78573131 0.57200852 5.64583677 -0.36328125 9.51171875 C-0.67588696 10.83166143 -0.98829823 12.15165018 -1.30053711 13.47167969 C-1.5492305 14.50440002 -1.5492305 14.50440002 -1.802948 15.5579834 C-9.28730359 46.83655637 -14.2228627 82.04935703 3.4375 110.9375 C6.24668304 115.15127455 9.24528185 118.61159582 13 122 C9.51845254 132.13797759 0.35097526 139.3760329 -9 144 C-16.34830701 146.68381563 -23.89031944 148.05514426 -31.7109375 148.01953125 C-32.9182251 148.01530151 -32.9182251 148.01530151 -34.14990234 148.01098633 C-34.76043457 148.00736084 -35.3709668 148.00373535 -36 148 C-37.14482505 144.63141406 -38.26185989 141.25417534 -39.375 137.875 C-39.69210937 136.94300781 -40.00921875 136.01101563 -40.3359375 135.05078125 C-44.4088832 122.57738503 -45.37056949 110.1872691 -45.3125 97.125 C-45.30758545 95.80943115 -45.3026709 94.4938623 -45.29760742 93.13842773 C-45.18399524 83.7191039 -44.55644756 75.0815738 -42 66 C-41.6596875 64.77152344 -41.319375 63.54304687 -40.96875 62.27734375 C-33.34124545 37.35911098 -18.43084275 17.96489447 0 0 Z " fill="#EAB900" transform="translate(559,813)"/>
<path d="M0 0 C4.98259043 -0.13840529 9.95841866 -0.25760909 14.94140625 -0.32958984 C16.63304332 -0.35961317 18.32452667 -0.40044638 20.015625 -0.45263672 C36.98572242 -0.96294036 36.98572242 -0.96294036 42.70507812 4.40771484 C45.92637032 8.36873817 46.43705807 10.70975615 46.31640625 15.6484375 C45.68726862 20.32425053 43.62114065 23.71040937 39.8918457 26.67700195 C36.05221925 28.43360269 32.55332127 28.37469088 28.41796875 28.29296875 C27.60378983 28.28872391 26.7896109 28.28447906 25.95075989 28.28010559 C23.36266332 28.26337753 20.77535929 28.22573712 18.1875 28.1875 C16.42774566 28.17244553 14.66797905 28.15875846 12.90820312 28.14648438 C8.60492136 28.11605098 4.3033427 28.05732129 0 28 C0 18.76 0 9.52 0 0 Z " fill="#E2B300" transform="translate(768,626)"/>
<path d="M0 0 C4.8756298 -0.09208955 9.74821519 -0.17164167 14.62402344 -0.21972656 C16.28070325 -0.23978009 17.93731282 -0.26703029 19.59375 -0.30175781 C21.98194758 -0.35055512 24.36920547 -0.37303064 26.7578125 -0.390625 C27.85973434 -0.42159271 27.85973434 -0.42159271 28.98391724 -0.45318604 C34.13929606 -0.45541026 37.04075748 0.73516172 41 4 C42.41000664 6.82001327 42.24548451 8.87007255 42 12 C40.78224479 14.67906146 39.81328703 16.42872148 37.39355469 18.12841797 C33.94100303 19.38562007 30.57708892 19.24552966 26.953125 19.1953125 C25.79632233 19.19106766 25.79632233 19.19106766 24.6161499 19.18673706 C22.16060668 19.17557013 19.7054324 19.15047229 17.25 19.125 C15.58203653 19.11496568 13.91406732 19.10584061 12.24609375 19.09765625 C8.16380709 19.07734637 4.082315 19.03819214 0 19 C0 12.73 0 6.46 0 0 Z " fill="#EAB800" transform="translate(768,581)"/>
<path d="M0 0 C0.66 0 1.32 0 2 0 C1.24374431 7.09315686 -0.13422246 14.01464264 -1.5625 21 C-1.79646484 22.15628906 -2.03042969 23.31257812 -2.27148438 24.50390625 C-2.84502267 27.33648314 -3.42126068 30.16848202 -4 33 C-4.33 33 -4.66 33 -5 33 C-5.28125848 26.57641928 -4.20902391 20.5578651 -3.0625 14.25 C-2.78889648 12.68958984 -2.78889648 12.68958984 -2.50976562 11.09765625 C-1.1487409 3.44622269 -1.1487409 3.44622269 0 0 Z " fill="#C19C03" transform="translate(1164,835)"/>
<path d="M0 0 C0.66 0.33 1.32 0.66 2 1 C1.28714844 1.70125 0.57429688 2.4025 -0.16015625 3.125 C-5.16481275 8.07453529 -10.05670963 13.02319332 -14.5625 18.44140625 C-16 20 -16 20 -19 22 C-19 21.01 -19 20.02 -19 19 C-18.34 19 -17.68 19 -17 19 C-16.7417041 18.41573242 -16.4834082 17.83146484 -16.21728516 17.22949219 C-14.90326864 14.82283378 -13.47519985 13.24680663 -11.5234375 11.328125 C-10.51796875 10.33232422 -10.51796875 10.33232422 -9.4921875 9.31640625 C-8.79351563 8.63449219 -8.09484375 7.95257812 -7.375 7.25 C-6.66859375 6.55261719 -5.9621875 5.85523438 -5.234375 5.13671875 C-3.49401297 3.41987512 -1.74915019 1.70788168 0 0 Z " fill="#D5AC04" transform="translate(1208,657)"/>
<path d="M0 0 C4.55700425 0.52484692 7.192874 2.31507303 10.8125 5.0625 C11.78832031 5.79597656 12.76414062 6.52945312 13.76953125 7.28515625 C14.87361328 8.13400391 14.87361328 8.13400391 16 9 C15.67 9.66 15.34 10.32 15 11 C13.0596566 9.73351229 11.12282353 8.46164538 9.1875 7.1875 C8.10855469 6.47980469 7.02960938 5.77210937 5.91796875 5.04296875 C3.66272397 3.4639955 1.82659673 2.0316883 0 0 Z " fill="#C8A204" transform="translate(266,1087)"/>
<path d="M0 0 C0.99 0.33 1.98 0.66 3 1 C-0.96 4.3 -4.92 7.6 -9 11 C-9 8 -9 8 -7.03125 5.95703125 C-6.1959375 5.24933594 -5.360625 4.54164062 -4.5 3.8125 C-3.6646875 3.09707031 -2.829375 2.38164063 -1.96875 1.64453125 C-1.3190625 1.10183594 -0.669375 0.55914063 0 0 Z " fill="#CAA304" transform="translate(653,1233)"/>
<path d="M0 0 C0.99 0.33 1.98 0.66 3 1 C-0.96 4.3 -4.92 7.6 -9 11 C-9 8 -9 8 -7.03125 5.95703125 C-6.1959375 5.24933594 -5.360625 4.54164062 -4.5 3.8125 C-3.6646875 3.09707031 -2.829375 2.38164063 -1.96875 1.64453125 C-1.3190625 1.10183594 -0.669375 0.55914063 0 0 Z " fill="#CDA604" transform="translate(673,1216)"/>
<path d="M0 0 C0.99 0.33 1.98 0.66 3 1 C-0.96 4.3 -4.92 7.6 -9 11 C-9 8 -9 8 -7.03125 5.95703125 C-6.1959375 5.24933594 -5.360625 4.54164062 -4.5 3.8125 C-3.6646875 3.09707031 -2.829375 2.38164063 -1.96875 1.64453125 C-1.3190625 1.10183594 -0.669375 0.55914063 0 0 Z " fill="#CDA604" transform="translate(693,1199)"/>
<path d="M0 0 C0.99 0.33 1.98 0.66 3 1 C-0.96 4.3 -4.92 7.6 -9 11 C-9 8 -9 8 -7.03125 5.95703125 C-6.1959375 5.24933594 -5.360625 4.54164062 -4.5 3.8125 C-3.6646875 3.09707031 -2.829375 2.38164063 -1.96875 1.64453125 C-1.3190625 1.10183594 -0.669375 0.55914063 0 0 Z " fill="#CDA604" transform="translate(713,1182)"/>
<path d="M0 0 C3.21524305 1.40844718 5.32183868 3.10344786 7.75 5.625 C8.67039062 6.57246094 8.67039062 6.57246094 9.609375 7.5390625 C10.29773438 8.26222656 10.29773438 8.26222656 11 9 C10.67 9.99 10.34 10.98 10 12 C8.33032474 10.19019128 6.66417692 8.3773524 5 6.5625 C4.28457031 5.7880957 4.28457031 5.7880957 3.5546875 4.99804688 C0 1.11328125 0 1.11328125 0 0 Z " fill="#CEA704" transform="translate(81,670)"/>
<path d="M0 0 C3.21524305 1.40844718 5.32183868 3.10344786 7.75 5.625 C8.67039062 6.57246094 8.67039062 6.57246094 9.609375 7.5390625 C10.29773438 8.26222656 10.29773438 8.26222656 11 9 C10.67 9.99 10.34 10.98 10 12 C8.33032474 10.19019128 6.66417692 8.3773524 5 6.5625 C4.28457031 5.7880957 4.28457031 5.7880957 3.5546875 4.99804688 C0 1.11328125 0 1.11328125 0 0 Z " fill="#CEA704" transform="translate(64,652)"/>
<path d="M0 0 C0.66 0.33 1.32 0.66 2 1 C-0.31 3.97 -2.62 6.94 -5 10 C-5.33 9.01 -5.66 8.02 -6 7 C-4.78515625 5.17578125 -4.78515625 5.17578125 -3.0625 3.3125 C-2.49660156 2.68988281 -1.93070313 2.06726563 -1.34765625 1.42578125 C-0.90292969 0.95527344 -0.45820312 0.48476563 0 0 Z " fill="#CCA504" transform="translate(1091,1009)"/>
<path d="M0 0 C0.66 0 1.32 0 2 0 C0.50902342 3.7952131 -1.75700849 5.61042731 -5 8 C-5 7.01 -5 6.02 -5 5 C-4.34 5 -3.68 5 -3 5 C-2.5359375 4.0409375 -2.5359375 4.0409375 -2.0625 3.0625 C-1 1 -1 1 0 0 Z " fill="#C59F03" transform="translate(1194,671)"/>
<path d="M0 0 C1.65 1.65 3.3 3.3 5 5 C4.34 6.32 3.68 7.64 3 9 C2.814375 8.071875 2.814375 8.071875 2.625 7.125 C2.12802644 4.80879168 2.12802644 4.80879168 0 3 C0 2.01 0 1.02 0 0 Z " fill="#C59F04" transform="translate(1215,641)"/>
<path d="M0 0 C4.24822374 0.47202486 6.19989709 2.96655518 9 6 C8.67 6.66 8.34 7.32 8 8 C6.66372225 6.85760183 5.33104612 5.71098945 4 4.5625 C3.2575 3.92441406 2.515 3.28632812 1.75 2.62890625 C1.1725 2.09136719 0.595 1.55382813 0 1 C0 0.67 0 0.34 0 0 Z " fill="#CEA604" transform="translate(228,1056)"/>
<path d="M0 0 C0 0.99 0 1.98 0 3 C-0.99 3.495 -0.99 3.495 -2 4 C-1.34 2.68 -0.68 1.36 0 0 Z M-3 4 C-2.34 4.99 -1.68 5.98 -1 7 C-1.33 7.99 -1.66 8.98 -2 10 C-2.99 8.68 -3.98 7.36 -5 6 C-4.34 5.34 -3.68 4.68 -3 4 Z " fill="#BF9B04" transform="translate(63,640)"/>
</svg>
