<svg version="1.1" id="Layer_1" xmlns="http://www.w3.org/2000/svg" xmlns:xlink="http://www.w3.org/1999/xlink" x="0px" y="0px"
	 width="100%" viewBox="0 0 960 1200" enable-background="new 0 0 960 1200" xml:space="preserve">
<path fill="#085EFF" opacity="1.000000" stroke="none" 
	d="
M596.000000,1201.000000 
	C397.333344,1201.000000 199.166672,1201.000000 1.000000,1201.000000 
	C1.000000,801.000000 1.000000,401.000000 1.000000,1.000000 
	C321.000000,1.000000 641.000000,1.000000 961.000000,1.000000 
	C961.000000,401.000000 961.000000,801.000000 961.000000,1201.000000 
	C839.500000,1201.000000 718.000000,1201.000000 596.000000,1201.000000 
M357.196808,960.435120 
	C357.492889,960.614868 357.788971,960.794678 358.017609,960.975952 
	C358.017609,960.975952 358.039429,960.912109 358.152924,961.596191 
	C359.123718,962.059570 360.094543,962.522888 361.004211,963.004639 
	C361.004211,963.004639 360.998413,962.941101 361.102783,963.668457 
	C362.762787,964.433960 364.422760,965.199463 366.007141,965.989502 
	C366.007141,965.989502 365.983307,965.913696 366.342377,966.431580 
	C366.931702,966.602905 367.520996,966.774231 368.024567,966.970703 
	C368.024567,966.970703 368.001923,966.884216 368.314667,967.528809 
	C370.522461,968.591675 372.688843,970.466125 374.945068,970.581299 
	C386.682465,971.180603 398.444885,971.566345 410.193359,971.457458 
	C412.802032,971.433228 415.389435,969.114990 417.980042,967.938354 
	C417.980042,967.938354 417.895111,967.927917 418.690704,968.016602 
	C421.041687,966.986633 423.392670,965.956665 426.051788,964.297119 
	C434.208435,958.368835 441.129089,951.533447 443.798035,940.841187 
	C444.469635,939.768738 445.609070,938.750732 445.741180,937.615479 
	C447.200989,925.068970 448.504395,912.504272 449.922882,899.022339 
	C449.952881,886.662781 450.061951,874.302246 449.917725,861.944702 
	C449.898621,860.310547 448.588898,858.691467 447.930756,857.114014 
	C447.930756,857.114014 447.858429,857.119324 447.685089,856.721436 
	C447.526276,856.469971 447.316406,856.272766 446.114075,856.051514 
	C430.667389,856.025208 415.220612,855.966553 399.774231,856.022339 
	C398.217834,856.027954 396.663971,856.726318 395.047577,857.863770 
	C392.421265,865.972412 389.794952,874.080994 386.741791,882.545654 
	C388.123291,883.428711 389.481659,885.027344 390.890289,885.072937 
	C397.526245,885.287903 404.181793,885.223694 410.818542,884.961060 
	C414.582336,884.812134 416.366669,885.898376 416.091797,889.979919 
	C415.256714,902.380798 414.872986,914.817139 413.802704,927.195435 
	C413.091248,935.423401 409.176086,939.492798 400.882080,940.434448 
	C394.535339,941.154907 388.045715,940.616882 381.562866,940.665222 
	C381.562866,940.665222 381.506287,940.638062 381.346527,939.990540 
	C380.760925,939.831360 380.175354,939.672180 379.528259,939.364929 
	C379.528259,939.364929 379.540833,939.524719 379.573700,938.945862 
	C379.388275,938.617615 379.202850,938.289307 378.613647,937.535522 
	C378.068512,937.348572 377.523376,937.161682 377.028534,936.974426 
	C377.028534,936.974426 377.023560,937.024414 377.048767,936.214600 
	C372.380646,921.712646 372.905487,906.730408 372.880951,891.790833 
	C372.878296,890.180725 372.341766,888.571594 372.040985,886.031616 
	C372.054169,871.019165 372.067352,856.006714 372.479950,840.279297 
	C373.611176,828.459656 374.742401,816.640076 375.939728,804.167053 
	C375.990387,803.732178 376.041077,803.297302 376.740265,802.719849 
	C381.125580,799.044373 386.011719,797.321960 391.880798,797.805420 
	C396.317139,798.170898 400.827240,797.640381 405.352295,797.455872 
	C405.352295,797.455872 405.419281,797.479736 405.430756,798.203430 
	C409.321533,802.965942 411.650177,808.401489 411.881378,814.550232 
	C412.149597,821.685059 412.126251,828.830933 412.553619,836.590149 
	C414.228149,836.937500 416.508209,838.146423 417.465668,837.473511 
	C420.554688,835.302490 423.156799,832.438721 425.942505,829.928772 
	C425.942505,829.928772 425.856201,829.918945 426.649048,829.984253 
	C431.759247,826.960022 436.869446,823.935791 441.976532,820.979614 
	C441.976532,820.979614 441.911865,820.958435 442.546783,820.923523 
	C443.021912,820.541016 443.497040,820.158508 443.945709,819.928284 
	C443.945709,819.928284 443.794525,819.896240 444.512146,819.845032 
	C445.161011,819.185730 446.380157,818.516907 446.369263,817.868774 
	C446.274597,812.241211 446.621429,806.481567 445.504181,801.034607 
	C444.576019,796.509766 445.202026,790.823303 439.894104,788.081177 
	C439.894104,788.081177 439.885559,788.158325 439.973083,787.396057 
	C438.491089,781.904663 435.669006,777.628540 429.873596,776.138062 
	C429.873596,776.138062 429.867981,776.243042 429.820282,775.501282 
	C427.783234,774.440063 425.746155,773.378845 423.155487,771.878540 
	C422.090729,771.553162 421.025940,771.227722 419.768219,770.224915 
	C418.860718,769.564087 418.036987,768.518188 417.033234,768.299866 
	C400.216675,764.642395 383.469086,764.126099 367.099670,770.369812 
	C364.799744,771.247009 363.041016,773.543213 361.056244,775.069580 
	C361.056244,775.069580 361.167969,775.099426 360.418915,775.046387 
	C353.998962,777.731995 348.467957,781.193176 348.097565,789.068970 
	C348.097565,789.068970 348.190582,789.070862 347.448120,789.183289 
	C347.152954,790.252625 346.857788,791.322021 346.291412,792.357483 
	C346.291412,792.357483 346.552094,792.439758 345.820374,792.502930 
	C344.654694,794.622253 342.796814,796.631042 342.438019,798.879150 
	C340.429718,811.462769 337.734436,824.063843 337.247009,836.734802 
	C336.410889,858.471680 336.476410,880.284546 337.259460,902.026062 
	C337.691711,914.028320 339.874573,926.046570 342.249390,937.860413 
	C343.179504,942.487488 346.794067,946.574829 349.101532,950.911499 
	C349.101532,950.911499 349.106476,950.827148 349.140900,951.475220 
	C349.601257,951.855408 350.061646,952.235596 350.093323,952.871216 
	C350.093323,952.871216 350.505615,952.589966 350.330994,953.300049 
	C351.075348,954.002808 351.819672,954.705505 352.550079,955.468933 
	C352.550079,955.468933 352.611786,955.476929 352.530212,956.157532 
	C353.201752,956.597778 353.873291,957.037964 354.472534,957.554443 
	C354.472534,957.554443 354.457672,957.450439 354.549927,958.022339 
	C354.871277,958.201843 355.192657,958.381287 355.408173,958.568054 
	C355.408173,958.568054 355.437775,958.466187 355.523071,959.095825 
	C356.035980,959.386658 356.548889,959.677490 357.006927,959.995789 
	C357.006927,959.995789 357.014984,959.934937 357.196808,960.435120 
M477.166260,960.842041 
	C477.166260,960.842041 477.167877,960.894897 477.140411,961.631592 
	C478.435852,962.672485 479.731262,963.713318 481.210632,964.752075 
	C481.210632,964.752075 481.246277,964.932556 481.501312,965.529541 
	C482.277710,966.128906 482.997467,966.826294 483.839050,967.312927 
	C495.691986,974.166504 508.495270,972.602478 521.105652,970.974670 
	C528.056641,970.077515 531.433289,965.169678 531.942444,957.954895 
	C531.942444,957.954895 531.833557,958.005432 532.374084,957.559814 
	C532.536194,957.126038 532.698364,956.692261 532.783875,956.284119 
	C532.783875,956.284119 532.763367,956.205933 533.482849,956.007263 
	C535.337952,953.590576 537.193054,951.173828 539.048157,948.757141 
	C540.035706,954.547546 540.094971,959.855225 540.014038,965.160828 
	C539.963440,968.477783 541.329102,970.053711 544.762268,970.015503 
	C553.420532,969.919250 562.080261,969.947998 570.739441,969.959412 
	C574.470825,969.964294 575.983154,968.324036 575.979187,964.443542 
	C575.913513,900.998169 575.939392,837.552795 575.996277,774.107361 
	C576.000000,769.928345 574.285706,767.975281 570.033264,768.034973 
	C562.707703,768.137939 555.379639,768.065674 548.052612,768.063538 
	C540.040710,768.061157 540.026550,768.059448 540.027161,776.099365 
	C540.030823,826.722534 540.040649,877.345703 540.050171,927.968872 
	C540.051392,934.748840 538.464233,936.522339 531.715149,938.088440 
	C529.439148,938.616516 527.332153,939.873596 524.226624,941.033447 
	C517.568420,941.256409 510.807587,942.050415 504.749908,936.967957 
	C504.467285,936.646240 504.184662,936.324463 503.970428,936.129150 
	C503.970428,936.129150 503.844269,936.197937 503.937408,935.375549 
	C503.300964,929.131348 502.133667,922.888855 502.112732,916.642578 
	C501.956909,870.158020 502.041748,823.672607 501.984772,777.187561 
	C501.982208,775.111389 501.339172,773.035950 500.414612,770.335022 
	C491.012573,770.210144 481.610718,770.042908 472.208344,770.006592 
	C470.822662,770.001221 469.434631,770.616333 467.424469,771.528687 
	C467.271454,774.497131 466.986664,777.465515 466.985077,780.434021 
	C466.958771,829.663330 466.954010,878.892578 467.026337,928.121826 
	C467.028931,929.891479 467.870453,931.659973 468.702637,934.196350 
	C469.072235,943.416382 471.993256,951.887817 476.460419,960.329651 
	C476.629669,960.559998 476.848633,960.724121 477.166260,960.842041 
M529.446777,578.485657 
	C529.371704,579.738831 529.296631,580.992065 529.144958,582.093872 
	C529.144958,582.093872 529.300903,582.026855 528.703857,582.457397 
	C525.215149,593.570984 521.704041,604.677734 518.303101,615.818115 
	C518.130615,616.383057 518.908264,617.238037 519.839294,618.468628 
	C520.310791,618.616272 520.782043,618.891968 521.253845,618.893005 
	C540.635010,618.934509 560.016357,618.985901 579.396973,618.885864 
	C580.568848,618.879822 581.734436,617.643188 583.182007,616.239197 
	C584.501160,611.457764 585.820374,606.676392 587.714478,601.519653 
	C590.790222,590.618591 593.865967,579.717590 596.847717,568.003784 
	C597.603271,564.604248 598.358826,561.204712 599.772766,557.639709 
	C601.123718,553.971558 602.742126,550.377625 603.784363,546.623779 
	C614.878845,506.666077 625.894348,466.686401 636.859619,426.693054 
	C637.254028,425.254669 636.905273,423.612610 636.911438,421.264496 
	C637.978394,417.458496 639.045349,413.652496 640.760681,409.668976 
	C641.738770,407.791534 643.079590,406.014923 643.634399,404.019775 
	C646.565552,393.479004 649.209717,382.858673 652.117249,372.311096 
	C660.507324,341.874878 669.040527,311.477936 677.373596,281.026184 
	C679.819824,272.086731 681.785339,263.015747 684.484924,253.486984 
	C686.046265,248.494659 687.759705,243.542191 689.084839,238.487930 
	C689.535828,236.767776 689.009399,234.791367 688.929565,232.932053 
	C687.006653,233.246628 685.083740,233.561218 682.377380,234.070938 
	C678.296082,235.145859 674.214844,236.220795 669.698608,237.491562 
	C669.425781,237.668121 669.189880,237.884888 669.025269,238.041306 
	C669.025269,238.041306 669.124817,238.078522 668.274841,238.021881 
	C662.045532,239.482162 655.795044,240.860687 649.604614,242.470459 
	C648.339966,242.799316 647.301147,243.996368 645.242981,245.089645 
	C643.647034,245.135178 642.051086,245.180710 640.328674,245.441010 
	C640.227966,245.579880 640.158264,245.732986 640.157593,246.042892 
	C640.157593,246.042892 640.017944,246.090469 639.167297,246.011597 
	C634.165771,247.014465 629.097412,247.764755 624.175659,249.068741 
	C610.757996,252.623657 597.374146,256.314575 584.034668,260.152435 
	C577.954407,261.901794 572.010254,264.124237 566.023132,266.038513 
	C566.023132,266.038513 566.116028,266.060150 565.269592,266.005341 
	C560.515076,267.387177 555.760620,268.769012 551.024719,270.046997 
	C551.024719,270.046997 551.127991,270.068848 550.273315,270.049591 
	C543.140259,272.013367 536.007202,273.977173 528.039856,275.961731 
	C521.660889,277.904846 515.281921,279.847931 508.239624,282.024597 
	C507.537323,282.043671 506.834991,282.062714 505.302979,282.054901 
	C496.199249,284.395111 487.095520,286.735291 477.235046,289.189789 
	C471.028870,290.813385 464.801697,292.361847 458.623718,294.086548 
	C454.381805,295.270813 450.208252,296.699860 445.214539,298.019470 
	C440.003967,298.108765 437.006836,300.648682 435.889954,305.821747 
	C435.266479,308.709320 433.862793,311.419861 432.953156,314.255859 
	C430.539490,321.781067 428.203247,329.331085 425.278625,337.292358 
	C422.341675,344.939026 419.351715,352.566040 416.499573,360.244202 
	C415.627960,362.590607 416.122131,364.515930 420.016144,364.932495 
	C438.003601,364.951508 455.991028,364.970520 474.080078,365.719910 
	C474.137115,366.208130 474.194153,366.696350 474.075470,367.924988 
	C473.425507,370.985474 472.775513,374.045990 472.047058,377.931152 
	C470.674469,382.951355 469.301880,387.971558 467.398041,393.473236 
	C464.288971,403.757446 461.097626,414.017914 458.116913,424.339142 
	C457.116364,427.803741 456.651855,431.423126 455.442596,435.485779 
	C455.079041,436.227051 454.593231,436.933380 454.369904,437.714722 
	C448.862366,456.980743 443.321533,476.237701 437.954590,495.542969 
	C436.996918,498.987732 436.780060,502.638397 435.856293,506.873779 
	C434.864258,510.654083 433.872223,514.434387 432.228760,518.383240 
	C431.510254,519.813660 430.552155,521.174377 430.111816,522.685852 
	C427.062439,533.152283 424.021698,543.623352 421.179413,554.147278 
	C419.292908,561.132385 417.739929,568.207581 416.048828,575.585999 
	C416.048828,575.585999 415.940002,575.912109 415.363556,576.345886 
	C414.927124,577.214233 414.341431,578.039612 414.077301,578.957581 
	C411.301239,588.604675 408.489441,598.243042 405.872192,607.933716 
	C404.420258,613.309509 403.316986,618.779358 402.079132,624.801270 
	C402.032043,625.189941 401.984955,625.578613 401.275146,626.215820 
	C399.485138,632.783691 397.695129,639.351624 395.328705,646.349060 
	C394.868958,647.395325 394.282898,648.405151 393.969086,649.493530 
	C390.886169,660.184021 387.838562,670.884766 384.800507,681.588135 
	C380.810760,695.644226 376.897705,709.722412 372.813965,723.750977 
	C371.889282,726.927551 372.792938,728.159912 376.919525,727.993408 
	C443.648865,727.986633 510.378204,727.979919 577.779236,727.765991 
	C578.591187,726.210327 579.691101,724.738220 580.170593,723.085999 
	C584.892334,706.813782 589.368225,690.468872 594.218689,674.235718 
	C596.691345,665.960632 596.971741,666.041626 588.349304,666.042725 
	C546.728333,666.047974 505.107361,666.054871 463.486389,666.061096 
	C461.248871,666.061401 459.011383,666.061096 456.100220,666.061096 
	C459.251129,654.838745 462.234283,644.672058 464.939819,634.432068 
	C467.092712,626.283875 468.906525,618.046021 470.923615,609.942261 
	C470.923615,609.942261 470.830017,609.888306 471.104340,609.793335 
	C471.333557,609.540894 471.314758,609.303284 470.879700,608.290894 
	C472.285553,603.532654 473.691437,598.774414 475.683533,593.626160 
	C476.216766,592.615417 476.932007,591.659363 477.254730,590.585388 
	C480.115753,581.064758 483.029449,571.557129 485.682190,561.977661 
	C487.972931,553.705322 489.943512,545.344299 492.501312,536.451233 
	C494.534302,529.275940 496.540192,522.092896 498.605865,514.927002 
	C503.022644,499.605103 507.470367,484.292114 511.997101,468.195190 
	C512.483765,466.447327 513.025574,464.712646 513.447571,462.949341 
	C515.250977,455.414581 517.018921,447.871399 518.798157,440.447235 
	C518.798157,440.447235 518.682922,440.434540 519.259705,439.990265 
	C519.810364,438.982758 520.361023,437.975250 521.247192,436.275299 
	C521.867310,433.703278 522.393066,431.104156 523.122864,428.563660 
	C527.788269,412.322815 532.590271,396.120636 537.150452,379.850525 
	C539.065491,373.017914 540.499878,366.050568 542.708069,358.684265 
	C544.495972,352.997070 546.101318,347.242676 548.158691,341.654694 
	C549.021484,339.311310 550.365967,336.307434 552.328613,335.385071 
	C556.153931,333.587280 560.616272,333.198975 564.728394,331.944031 
	C570.137939,330.293121 575.464111,328.369415 580.876282,326.674194 
	C580.876282,326.674194 580.770203,326.614075 581.478943,326.902008 
	C581.984680,326.942505 582.490479,326.983002 583.538513,327.288116 
	C588.263977,326.163208 592.989380,325.038300 598.647461,323.691345 
	C597.142273,329.649963 595.757080,334.685547 594.645264,339.780792 
	C594.262207,341.536194 594.560852,343.440338 594.336548,346.036957 
	C593.160217,350.052979 591.983826,354.069000 590.235840,358.452148 
	C589.444763,360.239868 588.414978,361.961548 587.899597,363.825500 
	C582.909912,381.872009 578.006531,399.942444 572.757935,418.687073 
	C568.533997,434.031769 564.316956,449.378357 560.084473,464.720673 
	C554.791626,483.906952 549.418091,503.071350 544.233948,522.286865 
	C542.936951,527.094116 542.231689,532.060913 541.098938,537.772034 
	C538.998474,545.867371 536.898071,553.962708 534.236938,562.451294 
	C532.791199,567.590149 531.345398,572.728943 529.446777,578.485657 
M769.777771,969.985352 
	C771.166870,968.986267 772.555969,967.987183 774.012146,966.054260 
	C774.019165,931.468140 774.011414,896.882019 774.037598,862.295898 
	C774.061218,831.202576 774.122009,800.109253 774.449524,768.577881 
	C773.941345,768.070190 773.433105,767.562500 772.417175,766.964478 
	C772.251404,766.918884 772.085632,766.873352 771.507874,766.408752 
	C770.728516,766.219727 769.817627,765.667236 769.189026,765.894775 
	C752.693481,771.865356 736.196289,777.835449 719.803833,784.079895 
	C718.165955,784.703735 716.671753,786.889587 716.023682,788.680725 
	C714.680115,792.393921 714.015930,796.347473 712.954895,800.169556 
	C710.550537,808.830261 711.118591,810.902893 720.911743,810.009155 
	C726.281616,810.002441 731.651428,809.995789 737.594604,810.029297 
	C737.977356,810.045654 738.360107,810.062012 738.892395,810.994690 
	C738.922729,813.320007 738.978333,815.645325 738.979736,817.970642 
	C739.008545,867.652039 739.031311,917.333374 739.266968,967.677002 
	C741.166809,968.427368 743.066650,969.177795 745.910217,969.967163 
	C753.617798,969.956726 761.325317,969.946289 769.777771,969.985352 
M596.852173,772.005615 
	C596.852173,772.005615 596.929749,772.023193 596.917969,772.956604 
	C596.913086,774.789612 596.904541,776.622559 596.903687,778.455566 
	C596.875183,840.619873 596.847473,902.784180 596.455688,965.569763 
	C595.428955,969.212402 597.636658,969.987976 600.498230,969.990662 
	C624.910461,970.013855 649.322937,970.049255 673.734131,969.891052 
	C675.133606,969.882019 677.373108,968.488586 677.763184,967.271912 
	C679.169861,962.884583 679.951782,958.296936 680.973572,952.978210 
	C681.976074,948.915161 682.978577,944.852051 684.341797,940.332092 
	C682.632507,939.575073 680.931641,938.183716 679.212646,938.160950 
	C665.080811,937.973694 650.945190,937.983337 636.811646,938.074402 
	C633.595032,938.095154 631.887695,937.335938 631.916382,933.660522 
	C632.044861,917.199158 632.034485,900.736084 631.951233,884.274170 
	C631.934753,881.008423 633.235535,879.890869 636.411255,879.954163 
	C643.558716,880.096558 650.710938,880.009521 657.861267,879.992554 
	C663.902893,879.978271 664.990540,879.042725 665.868896,873.024292 
	C666.060059,871.714478 666.020508,870.370911 666.554016,868.499268 
	C667.824280,864.541077 668.986938,860.544312 670.388550,856.633240 
	C672.821045,849.845215 671.681152,848.135803 664.258972,848.092957 
	C655.426941,848.041931 646.589600,847.918030 637.763977,848.163025 
	C633.580872,848.279053 631.793823,847.210266 631.896179,842.613037 
	C632.174316,830.120605 632.104858,817.616272 631.924255,805.120239 
	C631.868225,801.246033 633.093628,799.843750 637.070435,799.901855 
	C650.232788,800.094055 663.399780,799.984192 676.564880,799.951416 
	C678.485840,799.946594 680.406311,799.730408 683.053833,799.567261 
	C680.514709,790.250366 678.098755,781.651123 675.849609,773.008423 
	C674.885071,769.302063 672.650696,768.013428 668.943848,768.027527 
	C646.613342,768.112488 624.281738,768.005615 601.952454,768.193848 
	C600.266846,768.208069 598.596375,770.016235 596.712891,771.188354 
	C596.550171,771.462097 596.586853,771.709839 596.852173,772.005615 
M187.948257,772.903442 
	C187.970276,837.632812 187.992294,902.362122 188.204849,967.830017 
	C189.561676,968.548157 190.915222,969.885071 192.275833,969.892273 
	C215.261169,970.014099 238.248260,970.049194 261.231537,969.792542 
	C262.829590,969.774719 265.269775,967.610474 265.832611,965.942871 
	C268.202606,958.920898 270.086823,951.729370 271.996826,944.559448 
	C273.649841,938.354187 273.314819,937.996826 266.937622,937.992004 
	C254.112015,937.982300 241.286392,938.008606 228.460846,937.981689 
	C225.978333,937.976440 223.164886,938.304016 223.126328,934.485413 
	C223.079514,929.848633 222.984634,925.211853 222.983948,920.575073 
	C222.976974,873.270142 223.005096,825.965271 222.940109,778.660400 
	C222.936096,775.729248 222.232910,772.799072 221.587799,769.182922 
	C221.042099,768.847534 220.498993,768.224487 219.950287,768.219482 
	C210.484802,768.133423 201.014435,767.984253 191.557724,768.268311 
	C190.341125,768.304871 189.194611,770.674500 187.948257,772.903442 
M284.714966,961.953735 
	C285.326080,964.125732 285.937195,966.297791 286.295563,968.872925 
	C286.258759,969.175110 286.192444,969.478699 286.207031,969.778320 
	C286.210449,969.848206 286.488770,969.959229 286.640717,969.959412 
	C296.166901,969.970703 305.693146,969.985474 315.218811,969.916992 
	C315.527161,969.914795 315.829346,969.053589 316.540833,968.138184 
	C316.744781,967.787598 316.948700,967.437073 317.612244,966.377747 
	C317.756744,964.897827 318.027008,963.417908 318.027618,961.937927 
	C318.052368,900.036743 318.060455,838.135559 318.018860,776.234375 
	C318.017670,774.471680 317.456360,772.709412 316.615509,770.254089 
	C306.848663,770.157837 297.081543,770.006348 287.315338,770.052124 
	C286.356903,770.056580 285.404114,771.272583 284.186279,771.493774 
	C283.910736,771.126099 283.635193,770.758362 283.359650,770.390686 
	C283.266418,770.526306 283.097931,770.658508 283.091675,770.798035 
	C283.031860,772.127930 282.964386,773.459167 282.964294,774.789978 
	C282.960266,836.912720 282.962799,899.035522 282.964539,961.158264 
	C282.964600,963.225159 282.964539,965.291992 282.964539,967.358887 
	C283.192810,967.366577 283.421082,967.374207 283.649353,967.381897 
	C283.920105,965.306824 284.190857,963.231750 284.714966,961.953735 
z"/>
<path fill="#FDFEFE" opacity="1.000000" stroke="none" 
	d="
M599.114380,557.805176 
	C598.358826,561.204712 597.603271,564.604248 596.554382,568.556641 
	C593.220520,580.037964 590.180054,590.966492 587.139526,601.894958 
	C585.820374,606.676392 584.501160,611.457764 582.704651,616.683838 
	C581.794861,617.290039 581.362488,617.451599 580.486633,617.461853 
	C575.246643,617.274170 570.450073,617.236877 565.653564,617.201477 
	C550.444702,617.089111 535.235901,616.977417 520.108032,616.510864 
	C523.226379,604.779846 526.263672,593.403381 529.300903,582.026855 
	C529.300903,582.026855 529.144958,582.093872 529.423035,581.956299 
	C529.794861,581.194641 529.888550,580.570496 530.155762,579.625854 
	C531.818726,573.556152 533.308167,567.807129 534.797607,562.058044 
	C536.898071,553.962708 538.998474,545.867371 541.485962,537.215454 
	C542.131592,536.045471 542.464478,535.452271 542.638245,534.815613 
	C553.092712,496.511475 563.534119,458.203735 574.129517,419.570770 
	C576.126465,412.727753 578.045288,406.230286 579.799194,399.688599 
	C583.514160,385.832947 587.143188,371.954254 590.807434,358.084991 
	C591.983826,354.069000 593.160217,350.052979 594.641174,345.354553 
	C597.025024,336.935822 599.104248,329.199463 601.340027,320.880554 
	C594.661926,322.733856 588.812439,324.357178 582.658447,325.952393 
	C581.825989,326.154236 581.298096,326.384155 580.770203,326.614075 
	C580.770203,326.614075 580.876282,326.674194 580.426392,326.622223 
	C570.330322,328.995911 560.664429,331.348297 551.061707,333.935272 
	C549.789734,334.277924 548.215149,335.622681 547.843201,336.830536 
	C545.700134,343.789581 543.876831,350.847076 541.764465,358.194153 
	C534.174438,384.680511 526.765137,410.843903 519.185425,437.409546 
	C518.904297,438.686035 518.793640,439.560272 518.682983,440.434540 
	C518.682922,440.434540 518.798157,440.447235 518.488037,440.627808 
	C515.785767,449.541901 513.393555,458.275421 510.818695,467.327148 
	C504.119720,490.764893 497.603455,513.884338 490.893738,537.327515 
	C487.770386,547.991943 484.797028,558.320740 481.924225,568.677307 
	C479.586090,577.106262 477.368378,585.568604 475.097290,594.016174 
	C473.691437,598.774414 472.285553,603.532654 470.898132,608.884155 
	C470.916534,609.477356 470.830017,609.888306 470.830017,609.888306 
	C470.830017,609.888306 470.923615,609.942261 470.573364,610.065918 
	C464.758270,629.203003 459.293396,648.216553 453.627838,667.928223 
	C500.844269,667.928223 547.167175,667.928223 594.136353,667.928223 
	C590.477539,681.165161 587.074280,693.792236 583.477844,706.363953 
	C581.488586,713.317566 579.175903,720.178589 576.543213,727.022949 
	C512.876160,726.957642 449.674835,726.948120 386.473511,726.951660 
	C382.984070,726.951843 379.494629,727.060974 375.643341,727.018799 
	C375.662384,723.635315 375.620880,720.235718 376.491638,717.088501 
	C382.881226,693.993835 389.453430,670.949646 396.131348,647.568848 
	C398.175690,640.154541 400.056793,633.060913 401.937866,625.967285 
	C401.984955,625.578613 402.032043,625.189941 402.395691,624.327515 
	C405.857697,613.114929 409.081543,602.398193 412.114685,591.627625 
	C413.575256,586.441345 414.676208,581.153809 415.940002,575.912109 
	C415.940002,575.912109 416.048828,575.585999 416.367065,575.232178 
	C422.083588,555.990479 427.481873,537.102539 432.880188,518.214661 
	C433.872223,514.434387 434.864258,510.654083 436.282288,506.273590 
	C443.385712,482.112366 450.063110,458.551331 456.881531,434.631439 
	C459.711090,424.846283 462.480438,415.442017 465.051697,405.983856 
	C466.213989,401.708374 466.982239,397.325775 467.929291,392.991760 
	C469.301880,387.971558 470.674469,382.951355 472.425110,377.417419 
	C473.542633,374.620331 474.282074,372.336975 475.214111,369.747833 
	C475.943268,367.649780 476.479858,365.857483 477.210480,363.416992 
	C456.861298,363.416992 437.390076,363.416992 417.372070,363.416992 
	C420.393402,354.564789 423.211670,346.307465 426.210388,337.743774 
	C429.950745,327.623199 433.697479,317.871094 436.988983,307.967712 
	C438.554199,303.258301 440.558716,299.555542 446.390869,298.995758 
	C457.544220,296.003326 468.298737,293.006958 479.450867,290.025787 
	C482.722839,289.297058 485.631744,288.664368 488.464478,287.786041 
	C494.375214,285.953339 500.245667,283.990875 506.132690,282.081757 
	C506.834991,282.062714 507.537323,282.043671 508.975159,281.926147 
	C516.756653,279.888214 523.802612,277.948700 531.259521,276.009460 
	C538.156372,274.029449 544.642151,272.049164 551.127991,270.068848 
	C551.127991,270.068848 551.024719,270.046997 551.340088,270.076416 
	C556.475647,268.757263 561.295837,267.408691 566.116028,266.060150 
	C566.116028,266.060150 566.023132,266.038513 566.337891,266.078735 
	C580.225159,262.576202 593.826233,259.137939 607.361389,255.457703 
	C618.288086,252.486755 629.135437,249.223862 640.017944,246.090485 
	C640.017944,246.090469 640.157593,246.042892 640.255127,245.902130 
	C640.437622,245.592728 640.471802,245.414352 640.455139,245.226227 
	C642.051086,245.180710 643.647034,245.135178 646.070129,244.936264 
	C654.306458,242.548096 661.715637,240.313309 669.124817,238.078522 
	C669.124817,238.078522 669.025269,238.041306 669.257324,238.021393 
	C669.704102,237.766205 669.918823,237.530960 670.133545,237.295715 
	C674.214844,236.220795 678.296082,235.145859 683.073975,234.091812 
	C685.194153,234.112686 686.617676,234.112686 688.433472,234.112686 
	C686.622314,240.990250 684.908020,247.499741 683.057861,254.366028 
	C676.690918,277.115234 670.418274,299.496185 664.239197,321.902954 
	C656.158142,351.206787 648.151123,380.531006 640.112305,409.846497 
	C639.045349,413.652496 637.978394,417.458496 636.663452,421.926025 
	C632.367188,437.123016 628.284363,451.648926 624.277771,466.195831 
	C615.868774,496.726440 607.499817,527.268066 599.114380,557.805176 
z"/>
<path fill="#FAFDFE" opacity="1.000000" stroke="none" 
	d="
M376.091736,802.862427 
	C376.041077,803.297302 375.990387,803.732178 375.552551,804.600220 
	C374.489777,806.677002 373.350189,808.283142 373.214386,809.970154 
	C372.382538,820.301819 371.778046,830.651855 371.016357,841.459473 
	C370.983551,860.275818 371.032227,878.628540 371.008484,897.445923 
	C371.297974,905.527710 371.135162,913.218811 372.195526,920.737366 
	C372.977631,926.283081 375.356262,931.603577 377.023560,937.024414 
	C377.023560,937.024414 377.028534,936.974426 377.104309,937.256653 
	C377.786133,938.035339 378.392212,938.531799 379.086853,939.203735 
	C379.175446,939.379333 379.540833,939.524719 379.540833,939.524719 
	C379.540833,939.524719 379.528259,939.364929 379.744263,939.654419 
	C380.475616,940.175354 380.990936,940.406738 381.506287,940.638062 
	C381.506287,940.638062 381.562866,940.665222 381.890381,940.870850 
	C388.161682,941.482666 394.106262,942.226379 400.049103,942.213135 
	C408.223938,942.194885 413.754120,938.223389 414.780365,930.110413 
	C416.711182,914.846436 417.576813,899.447754 418.923004,883.662781 
	C409.093323,883.662781 400.614838,883.740601 392.140106,883.596130 
	C390.475433,883.567749 388.825409,882.680725 387.168640,882.189636 
	C389.794952,874.080994 392.421265,865.972412 395.536377,857.475098 
	C413.031525,857.046692 430.037903,857.007080 447.238464,857.055420 
	C447.432709,857.143311 447.858429,857.119324 447.858429,857.119324 
	C447.858429,857.119324 447.930756,857.114014 448.094421,857.520630 
	C448.307465,869.301758 448.356812,880.676270 448.273010,892.498901 
	C447.875366,909.134888 447.710541,925.333191 443.100281,941.065918 
	C441.129089,951.533447 434.208435,958.368835 425.542206,964.612061 
	C422.653442,965.927246 420.274261,966.927551 417.895111,967.927917 
	C417.895111,967.927917 417.980042,967.938354 417.580872,967.913330 
	C400.682831,972.728088 384.289917,972.375916 368.001923,966.884216 
	C368.001923,966.884216 368.024567,966.970703 367.895325,966.693604 
	C367.171844,966.248840 366.577576,966.081238 365.983307,965.913696 
	C365.983307,965.913696 366.007141,965.989502 365.849518,965.708557 
	C364.127411,964.598755 362.562927,963.769897 360.998413,962.941101 
	C360.998413,962.941101 361.004211,963.004639 360.863464,962.731262 
	C359.828308,961.942627 358.933868,961.427368 358.039429,960.912109 
	C358.039429,960.912109 358.017609,960.975952 357.989929,960.704834 
	C357.646454,960.267456 357.330719,960.101196 357.014984,959.934937 
	C357.014984,959.934937 357.006927,959.995789 356.949249,959.703613 
	C356.406982,959.096313 355.922394,958.781250 355.437775,958.466187 
	C355.437775,958.466187 355.408173,958.568054 355.371521,958.306030 
	C355.042450,957.846191 354.750061,957.648315 354.457672,957.450439 
	C354.457672,957.450439 354.472534,957.554443 354.375610,957.263489 
	C353.723083,956.473999 353.167450,955.975464 352.611786,955.476929 
	C352.611786,955.476929 352.550079,955.468933 352.432129,955.167358 
	C351.711304,954.107178 351.108459,953.348572 350.505615,952.589966 
	C350.505615,952.589966 350.093323,952.871216 350.199280,952.466614 
	C349.905670,951.650391 349.506073,951.238770 349.106476,950.827148 
	C349.106476,950.827148 349.101532,950.911499 349.078735,950.549438 
	C343.364746,940.312317 340.699280,929.431458 340.177307,918.278564 
	C339.134979,896.007690 338.395569,873.699829 338.422913,851.408386 
	C338.447357,831.462097 338.945374,811.415710 346.552094,792.439758 
	C346.552094,792.439758 346.291412,792.357483 346.634491,792.140625 
	C347.381897,790.972839 347.786255,790.021851 348.190582,789.070862 
	C348.190582,789.070862 348.097565,789.068970 348.381165,788.924072 
	C352.832489,784.219299 357.000214,779.659363 361.167969,775.099426 
	C361.167969,775.099426 361.056244,775.069580 361.403442,775.052063 
	C380.501007,764.456360 400.059814,765.266479 419.961182,770.902344 
	C421.025940,771.227722 422.090729,771.553162 423.625061,772.357788 
	C426.019104,773.972412 427.943542,775.107727 429.867981,776.243042 
	C429.867981,776.243042 429.873596,776.138062 429.971313,776.447144 
	C433.341217,780.556885 436.613373,784.357605 439.885559,788.158325 
	C439.885559,788.158325 439.894104,788.081177 439.901672,788.459900 
	C444.494446,798.779602 445.795410,809.131409 443.794525,819.896240 
	C443.794525,819.896240 443.945709,819.928284 443.649414,819.906128 
	C442.872681,820.242126 442.392273,820.600281 441.911865,820.958435 
	C441.911865,820.958435 441.976532,820.979614 441.616577,820.997192 
	C436.123138,823.982849 430.989655,826.950867 425.856201,829.918945 
	C425.856201,829.918945 425.942505,829.928772 425.584839,829.937622 
	C421.306671,831.976746 417.386200,834.007019 413.454346,835.565613 
	C413.303375,826.954102 413.530060,818.785461 412.893677,810.684631 
	C412.479248,805.409119 411.022034,800.109802 405.419281,797.479736 
	C405.419281,797.479736 405.352295,797.455872 405.046448,797.210632 
	C397.735962,796.853333 390.665985,796.153015 383.759064,796.920410 
	C381.017090,797.225037 378.636719,800.784668 376.091736,802.862427 
z"/>
<path fill="#FCFEFE" opacity="1.000000" stroke="none" 
	d="
M683.981079,940.788940 
	C682.978577,944.852051 681.976074,948.915161 680.628174,953.532349 
	C679.197571,957.385681 677.820374,960.623718 677.112000,964.001953 
	C676.448425,967.166504 675.098206,968.268921 671.785889,968.249451 
	C648.637451,968.114014 625.487732,968.207458 602.338684,968.140137 
	C600.840393,968.135803 599.344238,967.404175 597.913086,966.545654 
	C597.984741,914.191711 598.000183,862.302979 597.988953,810.414307 
	C597.986145,797.611267 597.896729,784.808228 597.959961,771.584717 
	C599.519714,770.774536 600.965637,770.049988 602.413757,770.045410 
	C624.720703,769.974854 647.028015,769.993286 669.335205,770.011353 
	C670.616028,770.012390 671.896729,770.187500 673.320129,770.292053 
	C675.944092,779.602722 678.496277,788.658875 681.235352,798.377991 
	C663.947144,798.377991 647.220886,798.377991 630.353516,798.377991 
	C630.353516,815.823914 630.353516,832.713074 630.353516,849.995667 
	C643.701294,849.995667 656.792419,849.995667 670.374146,849.995667 
	C668.797485,856.231812 667.343323,861.983459 665.663635,868.042236 
	C665.116394,869.465637 664.604919,870.565308 664.505249,871.701050 
	C664.020874,877.217834 661.248596,878.967590 655.676697,878.605469 
	C647.265442,878.058899 638.792480,878.462891 630.468140,878.462891 
	C630.468140,899.274414 630.468140,919.471802 630.468140,939.967896 
	C646.835510,939.967896 662.797913,939.942749 678.759949,940.003906 
	C680.501343,940.010559 682.240784,940.515259 683.981079,940.788940 
z"/>
<path fill="#F9FDFD" opacity="1.000000" stroke="none" 
	d="
M468.047699,770.944397 
	C469.434631,770.616333 470.822662,770.001221 472.208344,770.006592 
	C481.610718,770.042908 491.012573,770.210144 500.623169,771.114502 
	C500.821838,822.784119 500.745697,873.674500 500.933441,924.563965 
	C500.947754,928.445435 502.830170,932.320129 503.844269,936.197937 
	C503.844269,936.197937 503.970428,936.129150 503.937500,936.420288 
	C504.267487,937.000000 504.630402,937.288574 504.993286,937.577087 
	C510.807587,942.050415 517.568420,941.256409 525.071777,940.976379 
	C528.975403,940.194275 532.067810,939.586670 535.084900,938.717773 
	C540.061401,937.284607 542.218628,934.536926 542.184692,928.693604 
	C541.889099,877.740662 542.017334,826.785217 542.019714,775.830566 
	C542.019775,773.921753 542.019714,772.013000 542.019714,770.265137 
	C553.091187,770.265137 563.359497,770.265137 573.696655,770.265137 
	C573.696655,836.369385 573.696655,902.194946 573.696655,967.966797 
	C563.062073,967.966797 552.792664,967.966797 541.863586,967.966797 
	C541.863586,958.451660 541.863586,949.167542 541.863586,939.883423 
	C541.543884,939.842712 541.224182,939.802002 540.904480,939.761292 
	C538.190796,945.242798 535.477051,950.724365 532.763367,956.205933 
	C532.763367,956.205933 532.783875,956.284119 532.517273,956.467651 
	C532.111633,957.102600 531.972595,957.554016 531.833557,958.005432 
	C531.833557,958.005432 531.942444,957.954895 531.633789,958.101440 
	C530.328918,960.149353 529.469543,962.140625 528.297058,963.926208 
	C527.171509,965.640442 525.854675,968.376587 524.392151,968.534302 
	C515.422485,969.501465 506.346375,970.627808 497.389801,970.144104 
	C491.930725,969.849243 486.622345,966.764282 481.246277,964.932556 
	C481.246277,964.932556 481.210632,964.752075 481.000336,964.480591 
	C479.582642,963.104370 478.375244,961.999634 477.167847,960.894897 
	C477.167877,960.894897 477.166260,960.842041 477.081085,960.620605 
	C476.836639,960.110779 476.592194,959.965637 476.262543,959.963745 
	C471.993256,951.887817 469.072235,943.416382 468.556519,933.391724 
	C468.355835,890.510620 468.312256,848.434265 468.239746,806.357849 
	C468.219421,794.553284 468.114075,782.748901 468.047699,770.944397 
M494.001221,865.500000 
	C494.001190,840.020874 494.006256,814.541809 493.989502,789.062683 
	C493.988434,787.405273 493.774597,785.748840 493.740326,784.090332 
	C493.694977,781.895813 493.729156,779.699585 493.729156,776.785339 
	C486.121246,771.385986 478.639343,778.410461 470.284271,778.786926 
	C470.192535,780.500366 470.015015,782.275330 470.014465,784.050354 
	C469.999084,832.677124 469.927551,881.304138 470.129700,929.930054 
	C470.147614,934.243103 471.894775,938.567322 472.978607,942.850952 
	C473.677643,945.613770 474.632080,948.312012 475.537170,951.250549 
	C478.942352,950.878174 481.178345,953.004272 480.681305,956.725525 
	C480.172424,960.535645 481.926025,961.155029 484.821472,960.972473 
	C489.656586,960.667542 493.934662,961.899231 497.805603,964.874268 
	C498.762085,965.609436 500.329987,966.087646 501.503235,965.914490 
	C508.877716,964.825745 516.259338,963.712341 523.560791,962.224976 
	C529.491272,961.016846 528.777039,955.791321 529.384949,951.448608 
	C530.279175,945.059509 526.973755,941.992432 521.024231,943.645874 
	C519.769714,943.994568 518.382141,944.040222 517.068970,943.972229 
	C510.967834,943.656311 504.867676,943.297241 498.777496,942.821350 
	C498.005981,942.760986 497.295258,941.922302 496.114777,941.158508 
	C498.012085,940.201172 499.360229,939.520874 501.228699,938.578125 
	C499.578094,937.448242 498.427979,936.661011 497.037964,935.709534 
	C499.367188,932.191345 498.927490,929.704834 495.086456,927.619507 
	C493.917755,926.985046 493.573425,924.213013 493.471008,922.385254 
	C493.333282,919.927856 493.965546,917.437378 493.973724,914.960144 
	C494.027191,898.806885 494.001221,882.653381 494.001221,865.500000 
z"/>
<path fill="#FCFEFE" opacity="1.000000" stroke="none" 
	d="
M771.919922,766.827881 
	C772.085632,766.873352 772.251404,766.918884 772.688232,767.335327 
	C773.017090,768.135132 773.074890,768.564087 773.056763,769.456726 
	C772.973572,834.448242 772.965393,898.976013 772.966858,963.503845 
	C772.966858,964.663330 773.082947,965.822876 772.952515,967.330872 
	C771.490295,967.961365 770.220337,968.243286 768.495483,968.422974 
	C760.364502,968.410095 752.688416,968.499512 744.574402,968.460022 
	C739.967773,968.723938 740.814148,965.700500 740.813110,963.358765 
	C740.791443,914.281738 740.789001,865.204773 740.782776,816.127747 
	C740.782471,813.715881 740.782715,811.304016 740.782715,808.529175 
	C731.133179,808.529175 722.225220,808.529175 712.672546,808.529175 
	C714.334961,801.950317 715.941406,795.914124 717.360718,789.834167 
	C718.022217,787.000488 719.443481,785.496399 722.332947,784.496155 
	C738.913696,778.756226 755.400940,772.746216 771.919922,766.827881 
z"/>
<path fill="#FCFEFE" opacity="1.000000" stroke="none" 
	d="
M284.448700,771.926208 
	C285.404114,771.272583 286.356903,770.056580 287.315338,770.052124 
	C297.081543,770.006348 306.848663,770.157837 316.805939,771.070190 
	C316.983673,836.125732 316.970215,900.365234 316.966339,964.604736 
	C316.966278,965.432007 317.087860,966.259277 317.152649,967.086548 
	C316.948700,967.437073 316.744781,967.787598 315.873169,968.239563 
	C305.653107,968.383850 296.100708,968.426819 286.548309,968.469788 
	C285.937195,966.297791 285.326080,964.125732 284.689087,961.083130 
	C284.679810,903.093994 284.697662,845.975464 284.702637,788.856873 
	C284.702728,787.865295 284.547241,786.873718 284.557861,785.694214 
	C284.651367,785.506226 284.462250,785.131409 284.563660,784.691162 
	C284.597687,782.451965 284.530273,780.653015 284.578583,778.582458 
	C284.616516,777.933350 284.538788,777.555908 284.558960,776.746155 
	C284.587433,774.851318 284.518066,773.388733 284.448700,771.926208 
z"/>
<path fill="#2157C9" opacity="1.000000" stroke="none" 
	d="
M533.123108,956.106567 
	C535.477051,950.724365 538.190796,945.242798 540.904480,939.761292 
	C541.224182,939.802002 541.543884,939.842712 541.863586,939.883423 
	C541.863586,949.167542 541.863586,958.451660 541.863586,967.966797 
	C552.792664,967.966797 563.062073,967.966797 573.696655,967.966797 
	C573.696655,902.194946 573.696655,836.369385 573.696655,770.265137 
	C563.359497,770.265137 553.091187,770.265137 542.019714,770.265137 
	C542.019714,772.013000 542.019775,773.921753 542.019714,775.830566 
	C542.017334,826.785217 541.889099,877.740662 542.184692,928.693604 
	C542.218628,934.536926 540.061401,937.284607 535.084900,938.717773 
	C532.067810,939.586670 528.975403,940.194275 525.532349,940.858398 
	C527.332153,939.873596 529.439148,938.616516 531.715149,938.088440 
	C538.464233,936.522339 540.051392,934.748840 540.050171,927.968872 
	C540.040649,877.345703 540.030823,826.722534 540.027161,776.099365 
	C540.026550,768.059448 540.040710,768.061157 548.052612,768.063538 
	C555.379639,768.065674 562.707703,768.137939 570.033264,768.034973 
	C574.285706,767.975281 576.000000,769.928345 575.996277,774.107361 
	C575.939392,837.552795 575.913513,900.998169 575.979187,964.443542 
	C575.983154,968.324036 574.470825,969.964294 570.739441,969.959412 
	C562.080261,969.947998 553.420532,969.919250 544.762268,970.015503 
	C541.329102,970.053711 539.963440,968.477783 540.014038,965.160828 
	C540.094971,959.855225 540.035706,954.547546 539.048157,948.757141 
	C537.193054,951.173828 535.337952,953.590576 533.123108,956.106567 
z"/>
<path fill="#2D5FD8" opacity="1.000000" stroke="none" 
	d="
M221.855011,769.868408 
	C222.232910,772.799072 222.936096,775.729248 222.940109,778.660400 
	C223.005096,825.965271 222.976974,873.270142 222.983948,920.575073 
	C222.984634,925.211853 223.079514,929.848633 223.126328,934.485413 
	C223.164886,938.304016 225.978333,937.976440 228.460846,937.981689 
	C241.286392,938.008606 254.112015,937.982300 266.937622,937.992004 
	C273.314819,937.996826 273.649841,938.354187 271.996826,944.559448 
	C270.086823,951.729370 268.202606,958.920898 265.832611,965.942871 
	C265.269775,967.610474 262.829590,969.774719 261.231537,969.792542 
	C238.248260,970.049194 215.261169,970.014099 192.275833,969.892273 
	C190.915222,969.885071 189.561676,968.548157 188.327789,967.427673 
	C188.450745,967.025330 188.889328,966.974731 189.132721,967.344727 
	C213.499084,967.854492 237.622025,968.018616 261.745026,968.035400 
	C262.614075,968.036011 263.994202,966.735107 264.274170,965.786377 
	C266.836884,957.102783 269.208527,948.362793 271.776245,939.135010 
	C254.641418,939.135010 238.069962,939.135010 221.183121,939.135010 
	C221.183121,928.787720 221.191864,918.827942 221.181625,908.868164 
	C221.134018,862.577576 221.081146,816.286987 221.235046,769.955811 
	C221.439941,769.915222 221.855026,769.868408 221.855011,769.868408 
z"/>
<path fill="#1C52C7" opacity="1.000000" stroke="none" 
	d="
M665.889160,867.735046 
	C667.343323,861.983459 668.797485,856.231812 670.374146,849.995667 
	C656.792419,849.995667 643.701294,849.995667 630.353516,849.995667 
	C630.353516,832.713074 630.353516,815.823914 630.353516,798.377991 
	C647.220886,798.377991 663.947144,798.377991 681.235352,798.377991 
	C678.496277,788.658875 675.944092,779.602722 673.320129,770.292053 
	C671.896729,770.187500 670.616028,770.012390 669.335205,770.011353 
	C647.028015,769.993286 624.720703,769.974854 602.413757,770.045410 
	C600.965637,770.049988 599.519714,770.774536 597.730591,771.589478 
	C597.388428,772.014771 596.929749,772.023193 596.929749,772.023193 
	C596.929749,772.023193 596.852173,772.005615 596.872375,771.735168 
	C596.892578,771.464722 596.918823,770.990540 596.918823,770.990540 
	C598.596375,770.016235 600.266846,768.208069 601.952454,768.193848 
	C624.281738,768.005615 646.613342,768.112488 668.943848,768.027527 
	C672.650696,768.013428 674.885071,769.302063 675.849609,773.008423 
	C678.098755,781.651123 680.514709,790.250366 683.053833,799.567261 
	C680.406311,799.730408 678.485840,799.946594 676.564880,799.951416 
	C663.399780,799.984192 650.232788,800.094055 637.070435,799.901855 
	C633.093628,799.843750 631.868225,801.246033 631.924255,805.120239 
	C632.104858,817.616272 632.174316,830.120605 631.896179,842.613037 
	C631.793823,847.210266 633.580872,848.279053 637.763977,848.163025 
	C646.589600,847.918030 655.426941,848.041931 664.258972,848.092957 
	C671.681152,848.135803 672.821045,849.845215 670.388550,856.633240 
	C668.986938,860.544312 667.824280,864.541077 666.272339,868.443604 
	C665.956848,868.170349 665.923035,867.952698 665.889160,867.735046 
z"/>
<path fill="#2D5FD8" opacity="1.000000" stroke="none" 
	d="
M577.008911,727.081360 
	C579.175903,720.178589 581.488586,713.317566 583.477844,706.363953 
	C587.074280,693.792236 590.477539,681.165161 594.136353,667.928223 
	C547.167175,667.928223 500.844269,667.928223 453.627838,667.928223 
	C459.293396,648.216553 464.758270,629.203003 470.546997,610.018738 
	C468.906525,618.046021 467.092712,626.283875 464.939819,634.432068 
	C462.234283,644.672058 459.251129,654.838745 456.100220,666.061096 
	C459.011383,666.061096 461.248871,666.061401 463.486389,666.061096 
	C505.107361,666.054871 546.728333,666.047974 588.349304,666.042725 
	C596.971741,666.041626 596.691345,665.960632 594.218689,674.235718 
	C589.368225,690.468872 584.892334,706.813782 580.170593,723.085999 
	C579.691101,724.738220 578.591187,726.210327 577.416138,727.646973 
	C577.053101,727.527893 577.008911,727.081360 577.008911,727.081360 
z"/>
<path fill="#0644CF" opacity="1.000000" stroke="none" 
	d="
M284.464355,785.882141 
	C284.547241,786.873718 284.702728,787.865295 284.702637,788.856873 
	C284.697662,845.975464 284.679810,903.093994 284.562408,960.684631 
	C284.190857,963.231750 283.920105,965.306824 283.649353,967.381897 
	C283.421082,967.374207 283.192810,967.366577 282.964539,967.358887 
	C282.964539,965.291992 282.964600,963.225159 282.964539,961.158264 
	C282.962799,899.035522 282.960266,836.912720 282.964294,774.789978 
	C282.964386,773.459167 283.031860,772.127930 283.091675,770.798035 
	C283.097931,770.658508 283.266418,770.526306 283.359650,770.390686 
	C283.635193,770.758362 283.910736,771.126099 284.317505,771.709961 
	C284.518066,773.388733 284.587433,774.851318 284.451599,776.894897 
	C284.210907,777.634949 284.119232,777.806580 284.151703,777.950134 
	C284.221588,778.259155 284.355316,778.553650 284.462891,778.854126 
	C284.530273,780.653015 284.597687,782.451965 284.486267,784.770264 
	C284.221680,785.524048 284.273987,785.721558 284.464355,785.882141 
z"/>
<path fill="#1C52C7" opacity="1.000000" stroke="none" 
	d="
M771.713867,766.618286 
	C755.400940,772.746216 738.913696,778.756226 722.332947,784.496155 
	C719.443481,785.496399 718.022217,787.000488 717.360718,789.834167 
	C715.941406,795.914124 714.334961,801.950317 712.672546,808.529175 
	C722.225220,808.529175 731.133179,808.529175 740.782715,808.529175 
	C740.782715,811.304016 740.782471,813.715881 740.782776,816.127747 
	C740.789001,865.204773 740.791443,914.281738 740.813110,963.358765 
	C740.814148,965.700500 739.967773,968.723938 744.585938,968.683777 
	C745.003601,969.333008 744.980652,969.630249 744.966553,969.928223 
	C743.066650,969.177795 741.166809,968.427368 739.381470,966.998169 
	C739.641602,965.174133 739.913879,964.028870 739.914429,962.883545 
	C739.936768,913.493652 739.945801,864.103760 739.885925,814.713928 
	C739.884033,813.168274 739.140564,811.623535 738.742798,810.078369 
	C738.360107,810.062012 737.977356,810.045654 736.958435,809.792358 
	C730.871887,809.696167 725.421448,809.836975 719.971069,809.977783 
	C711.118591,810.902893 710.550537,808.830261 712.954895,800.169556 
	C714.015930,796.347473 714.680115,792.393921 716.023682,788.680725 
	C716.671753,786.889587 718.165955,784.703735 719.803833,784.079895 
	C736.196289,777.835449 752.693481,771.865356 769.189026,765.894775 
	C769.817627,765.667236 770.728516,766.219727 771.713867,766.618286 
z"/>
<path fill="#2157C9" opacity="1.000000" stroke="none" 
	d="
M665.663696,868.042236 
	C665.923035,867.952698 665.956848,868.170349 666.038940,868.715454 
	C666.020508,870.370911 666.060059,871.714478 665.868896,873.024292 
	C664.990540,879.042725 663.902893,879.978271 657.861267,879.992554 
	C650.710938,880.009521 643.558716,880.096558 636.411255,879.954163 
	C633.235535,879.890869 631.934753,881.008423 631.951233,884.274170 
	C632.034485,900.736084 632.044861,917.199158 631.916382,933.660522 
	C631.887695,937.335938 633.595032,938.095154 636.811646,938.074402 
	C650.945190,937.983337 665.080811,937.973694 679.212646,938.160950 
	C680.931641,938.183716 682.632507,939.575073 684.161499,940.560547 
	C682.240784,940.515259 680.501343,940.010559 678.759949,940.003906 
	C662.797913,939.942749 646.835510,939.967896 630.468140,939.967896 
	C630.468140,919.471802 630.468140,899.274414 630.468140,878.462891 
	C638.792480,878.462891 647.265442,878.058899 655.676697,878.605469 
	C661.248596,878.967590 664.020874,877.217834 664.505249,871.701050 
	C664.604919,870.565308 665.116394,869.465637 665.663696,868.042236 
z"/>
<path fill="#1C52C7" opacity="1.000000" stroke="none" 
	d="
M640.436462,409.757751 
	C648.151123,380.531006 656.158142,351.206787 664.239197,321.902954 
	C670.418274,299.496185 676.690918,277.115234 683.252197,254.366333 
	C683.582520,254.009842 683.971191,254.005020 683.971191,254.005035 
	C681.785339,263.015747 679.819824,272.086731 677.373596,281.026184 
	C669.040527,311.477936 660.507324,341.874878 652.117249,372.311096 
	C649.209717,382.858673 646.565552,393.479004 643.634399,404.019775 
	C643.079590,406.014923 641.738770,407.791534 640.436462,409.757751 
z"/>
<path fill="#1C52C7" opacity="1.000000" stroke="none" 
	d="
M346.186218,792.471313 
	C338.945374,811.415710 338.447357,831.462097 338.422913,851.408386 
	C338.395569,873.699829 339.134979,896.007690 340.177307,918.278564 
	C340.699280,929.431458 343.364746,940.312317 349.120972,950.547729 
	C346.794067,946.574829 343.179504,942.487488 342.249390,937.860413 
	C339.874573,926.046570 337.691711,914.028320 337.259460,902.026062 
	C336.476410,880.284546 336.410889,858.471680 337.247009,836.734802 
	C337.734436,824.063843 340.429718,811.462769 342.438019,798.879150 
	C342.796814,796.631042 344.654694,794.622253 346.186218,792.471313 
z"/>
<path fill="#1C52C7" opacity="1.000000" stroke="none" 
	d="
M599.443604,557.722412 
	C607.499817,527.268066 615.868774,496.726440 624.277771,466.195831 
	C628.284363,451.648926 632.367188,437.123016 636.659180,422.326538 
	C636.905273,423.612610 637.254028,425.254669 636.859619,426.693054 
	C625.894348,466.686401 614.878845,506.666077 603.784363,546.623779 
	C602.742126,550.377625 601.123718,553.971558 599.443604,557.722412 
z"/>
<path fill="#1C52C7" opacity="1.000000" stroke="none" 
	d="
M573.976807,419.896332 
	C563.534119,458.203735 553.092712,496.511475 542.638245,534.815613 
	C542.464478,535.452271 542.131592,536.045471 541.563721,536.806641 
	C542.231689,532.060913 542.936951,527.094116 544.233948,522.286865 
	C549.418091,503.071350 554.791626,483.906952 560.084473,464.720673 
	C564.316956,449.378357 568.533997,434.031769 573.100098,418.541656 
	C573.620483,418.896271 573.798645,419.396301 573.976807,419.896332 
z"/>
<path fill="#1C52C7" opacity="1.000000" stroke="none" 
	d="
M386.955200,882.367676 
	C388.825409,882.680725 390.475433,883.567749 392.140106,883.596130 
	C400.614838,883.740601 409.093323,883.662781 418.923004,883.662781 
	C417.576813,899.447754 416.711182,914.846436 414.780365,930.110413 
	C413.754120,938.223389 408.223938,942.194885 400.049103,942.213135 
	C394.106262,942.226379 388.161682,941.482666 381.918762,940.857544 
	C388.045715,940.616882 394.535339,941.154907 400.882080,940.434448 
	C409.176086,939.492798 413.091248,935.423401 413.802704,927.195435 
	C414.872986,914.817139 415.256714,902.380798 416.091797,889.979919 
	C416.366669,885.898376 414.582336,884.812134 410.818542,884.961060 
	C404.181793,885.223694 397.526245,885.287903 390.890289,885.072937 
	C389.481659,885.027344 388.123291,883.428711 386.955200,882.367676 
z"/>
<path fill="#0644CF" opacity="1.000000" stroke="none" 
	d="
M576.543213,727.022949 
	C577.008911,727.081360 577.053101,727.527893 577.080322,727.750549 
	C510.378204,727.979919 443.648865,727.986633 376.457092,727.768311 
	C375.994659,727.543152 376.005188,727.119446 376.005188,727.119446 
	C379.494629,727.060974 382.984070,726.951843 386.473511,726.951660 
	C449.674835,726.948120 512.876160,726.957642 576.543213,727.022949 
z"/>
<path fill="#124BBE" opacity="1.000000" stroke="none" 
	d="
M773.144836,966.982361 
	C773.082947,965.822876 772.966858,964.663330 772.966858,963.503845 
	C772.965393,898.976013 772.973572,834.448242 773.315186,769.462646 
	C773.821777,769.008545 773.994019,769.012207 774.166382,769.015930 
	C774.122009,800.109253 774.061218,831.202576 774.037598,862.295898 
	C774.011414,896.882019 774.019165,931.468140 773.778809,966.519592 
	C773.545471,966.984924 773.144836,966.982361 773.144836,966.982361 
z"/>
<path fill="#124BBE" opacity="1.000000" stroke="none" 
	d="
M317.382446,966.732178 
	C317.087860,966.259277 316.966278,965.432007 316.966339,964.604736 
	C316.970215,900.365234 316.983673,836.125732 317.076294,771.416565 
	C317.456360,772.709412 318.017670,774.471680 318.018860,776.234375 
	C318.060455,838.135559 318.052368,900.036743 318.027618,961.937927 
	C318.027008,963.417908 317.756744,964.897827 317.382446,966.732178 
z"/>
<path fill="#124BBE" opacity="1.000000" stroke="none" 
	d="
M188.889343,966.974731 
	C188.889328,966.974731 188.450745,967.025330 188.232529,967.058411 
	C187.992294,902.362122 187.970276,837.632812 188.199875,772.445801 
	C188.451492,771.988159 188.887909,772.008484 188.959686,772.471680 
	C189.035904,821.156189 189.053665,869.377502 189.037491,917.598877 
	C189.031967,934.057495 188.941162,950.516113 188.889343,966.974731 
z"/>
<path fill="#0038AC" opacity="1.000000" stroke="none" 
	d="
M596.923828,772.489868 
	C596.929749,772.023193 597.388428,772.014771 597.617798,772.010010 
	C597.896729,784.808228 597.986145,797.611267 597.988953,810.414307 
	C598.000183,862.302979 597.984741,914.191711 597.712280,966.332214 
	C597.236816,966.038879 597.028198,965.493652 596.819580,964.948486 
	C596.847473,902.784180 596.875183,840.619873 596.903687,778.455566 
	C596.904541,776.622559 596.913086,774.789612 596.923828,772.489868 
z"/>
<path fill="#1C5EDB" opacity="1.000000" stroke="none" 
	d="
M596.637634,965.259155 
	C597.028198,965.493652 597.236816,966.038879 597.646240,966.797485 
	C599.344238,967.404175 600.840393,968.135803 602.338684,968.140137 
	C625.487732,968.207458 648.637451,968.114014 671.785889,968.249451 
	C675.098206,968.268921 676.448425,967.166504 677.112000,964.001953 
	C677.820374,960.623718 679.197571,957.385681 680.626221,953.935669 
	C679.951782,958.296936 679.169861,962.884583 677.763184,967.271912 
	C677.373108,968.488586 675.133606,969.882019 673.734131,969.891052 
	C649.322937,970.049255 624.910461,970.013855 600.498230,969.990662 
	C597.636658,969.987976 595.428955,969.212402 596.637634,965.259155 
z"/>
<path fill="#0644CF" opacity="1.000000" stroke="none" 
	d="
M503.890839,935.786743 
	C502.830170,932.320129 500.947754,928.445435 500.933441,924.563965 
	C500.745697,873.674500 500.821838,822.784119 500.913086,771.427063 
	C501.339172,773.035950 501.982208,775.111389 501.984772,777.187561 
	C502.041748,823.672607 501.956909,870.158020 502.112732,916.642578 
	C502.133667,922.888855 503.300964,929.131348 503.890839,935.786743 
z"/>
<path fill="#0038AC" opacity="1.000000" stroke="none" 
	d="
M467.736084,771.236572 
	C468.114075,782.748901 468.219421,794.553284 468.239746,806.357849 
	C468.312256,848.434265 468.355835,890.510620 468.365662,933.008057 
	C467.870453,931.659973 467.028931,929.891479 467.026337,928.121826 
	C466.954010,878.892578 466.958771,829.663330 466.985077,780.434021 
	C466.986664,777.465515 467.271454,774.497131 467.736084,771.236572 
z"/>
<path fill="#1C52C7" opacity="1.000000" stroke="none" 
	d="
M375.643341,727.018799 
	C376.005188,727.119446 375.994659,727.543152 375.987335,727.754639 
	C372.792938,728.159912 371.889282,726.927551 372.813965,723.750977 
	C376.897705,709.722412 380.810760,695.644226 384.800507,681.588135 
	C387.838562,670.884766 390.886169,660.184021 393.969086,649.493530 
	C394.282898,648.405151 394.868958,647.395325 395.632812,646.463562 
	C395.947296,647.015259 395.957703,647.452393 395.968079,647.889587 
	C389.453430,670.949646 382.881226,693.993835 376.491638,717.088501 
	C375.620880,720.235718 375.662384,723.635315 375.643341,727.018799 
z"/>
<path fill="#0644CF" opacity="1.000000" stroke="none" 
	d="
M738.817627,810.536499 
	C739.140564,811.623535 739.884033,813.168274 739.885925,814.713928 
	C739.945801,864.103760 739.936768,913.493652 739.914429,962.883545 
	C739.913879,964.028870 739.641602,965.174133 739.275635,966.667114 
	C739.031311,917.333374 739.008545,867.652039 738.979736,817.970642 
	C738.978333,815.645325 738.922729,813.320007 738.817627,810.536499 
z"/>
<path fill="#2157C9" opacity="1.000000" stroke="none" 
	d="
M519.355835,437.007294 
	C526.765137,410.843903 534.174438,384.680511 541.816040,358.512573 
	C542.083069,358.720154 542.117920,358.932312 542.152832,359.144501 
	C540.499878,366.050568 539.065491,373.017914 537.150452,379.850525 
	C532.590271,396.120636 527.788269,412.322815 523.122864,428.563660 
	C522.393066,431.104156 521.867310,433.703278 520.821106,436.631531 
	C520.048645,436.994293 519.702209,437.000793 519.355835,437.007294 
z"/>
<path fill="#2157C9" opacity="1.000000" stroke="none" 
	d="
M639.592651,246.051041 
	C629.135437,249.223862 618.288086,252.486755 607.361389,255.457703 
	C593.826233,259.137939 580.225159,262.576202 566.328491,266.125549 
	C572.010254,264.124237 577.954407,261.901794 584.034668,260.152435 
	C597.374146,256.314575 610.757996,252.623657 624.175659,249.068741 
	C629.097412,247.764755 634.165771,247.014465 639.592651,246.051041 
z"/>
<path fill="#2157C9" opacity="1.000000" stroke="none" 
	d="
M491.087158,537.003845 
	C497.603455,513.884338 504.119720,490.764893 510.870544,467.600433 
	C511.371918,468.028809 511.638672,468.502136 511.905457,468.975464 
	C507.470367,484.292114 503.022644,499.605103 498.605865,514.927002 
	C496.540192,522.092896 494.534302,529.275940 492.036194,536.729492 
	C491.571075,537.007690 491.087158,537.003845 491.087158,537.003845 
z"/>
<path fill="#2157C9" opacity="1.000000" stroke="none" 
	d="
M456.740540,434.990326 
	C450.063110,458.551331 443.385712,482.112366 436.464722,505.933716 
	C436.780060,502.638397 436.996918,498.987732 437.954590,495.542969 
	C443.321533,476.237701 448.862366,456.980743 454.369904,437.714722 
	C454.593231,436.933380 455.079041,436.227051 455.892334,435.232239 
	C456.342102,434.978699 456.740540,434.990326 456.740540,434.990326 
z"/>
<path fill="#1C52C7" opacity="1.000000" stroke="none" 
	d="
M426.029938,338.050171 
	C423.211670,346.307465 420.393402,354.564789 417.372070,363.416992 
	C437.390076,363.416992 456.861298,363.416992 477.210480,363.416992 
	C476.479858,365.857483 475.943268,367.649780 475.182251,369.440735 
	C474.722229,368.687805 474.486694,367.936188 474.251160,367.184570 
	C474.194153,366.696350 474.137115,366.208130 473.686829,365.131897 
	C455.685028,364.452881 438.076508,364.357330 420.467834,364.295868 
	C420.013489,364.294250 419.557861,364.665802 419.102814,364.863342 
	C416.122131,364.515930 415.627960,362.590607 416.499573,360.244202 
	C419.351715,352.566040 422.341675,344.939026 425.607361,337.377075 
	C425.967407,337.657928 425.998657,337.854034 426.029938,338.050171 
z"/>
<path fill="#2157C9" opacity="1.000000" stroke="none" 
	d="
M574.129517,419.570770 
	C573.798645,419.396301 573.620483,418.896271 573.260376,418.201141 
	C578.006531,399.942444 582.909912,381.872009 587.899597,363.825500 
	C588.414978,361.961548 589.444763,360.239868 590.521606,358.268555 
	C587.143188,371.954254 583.514160,385.832947 579.799194,399.688599 
	C578.045288,406.230286 576.126465,412.727753 574.129517,419.570770 
z"/>
<path fill="#1C52C7" opacity="1.000000" stroke="none" 
	d="
M490.893738,537.327515 
	C491.087158,537.003845 491.571075,537.007690 491.813354,537.015137 
	C489.943512,545.344299 487.972931,553.705322 485.682190,561.977661 
	C483.029449,571.557129 480.115753,581.064758 477.254730,590.585388 
	C476.932007,591.659363 476.216766,592.615417 475.390411,593.821167 
	C477.368378,585.568604 479.586090,577.106262 481.924225,568.677307 
	C484.797028,558.320740 487.770386,547.991943 490.893738,537.327515 
z"/>
<path fill="#1C52C7" opacity="1.000000" stroke="none" 
	d="
M432.554474,518.298950 
	C427.481873,537.102539 422.083588,555.990479 416.361450,575.060425 
	C417.739929,568.207581 419.292908,561.132385 421.179413,554.147278 
	C424.021698,543.623352 427.062439,533.152283 430.111816,522.685852 
	C430.552155,521.174377 431.510254,519.813660 432.554474,518.298950 
z"/>
<path fill="#1C52C7" opacity="1.000000" stroke="none" 
	d="
M542.430420,358.914368 
	C542.117920,358.932312 542.083069,358.720154 541.996704,358.189606 
	C543.876831,350.847076 545.700134,343.789581 547.843201,336.830536 
	C548.215149,335.622681 549.789734,334.277924 551.061707,333.935272 
	C560.664429,331.348297 570.330322,328.995911 580.401367,326.566650 
	C575.464111,328.369415 570.137939,330.293121 564.728394,331.944031 
	C560.616272,333.198975 556.153931,333.587280 552.328613,335.385071 
	C550.365967,336.307434 549.021484,339.311310 548.158691,341.654694 
	C546.101318,347.242676 544.495972,352.997070 542.430420,358.914368 
z"/>
<path fill="#1C52C7" opacity="1.000000" stroke="none" 
	d="
M415.651794,576.129028 
	C414.676208,581.153809 413.575256,586.441345 412.114685,591.627625 
	C409.081543,602.398193 405.857697,613.114929 402.384430,624.030334 
	C403.316986,618.779358 404.420258,613.309509 405.872192,607.933716 
	C408.489441,598.243042 411.301239,588.604675 414.077301,578.957581 
	C414.341431,578.039612 414.927124,577.214233 415.651794,576.129028 
z"/>
<path fill="#2157C9" opacity="1.000000" stroke="none" 
	d="
M481.373779,965.231079 
	C486.622345,966.764282 491.930725,969.849243 497.389801,970.144104 
	C506.346375,970.627808 515.422485,969.501465 524.392151,968.534302 
	C525.854675,968.376587 527.171509,965.640442 528.297058,963.926208 
	C529.469543,962.140625 530.328918,960.149353 531.606628,958.047974 
	C531.433289,965.169678 528.056641,970.077515 521.105652,970.974670 
	C508.495270,972.602478 495.691986,974.166504 483.839050,967.312927 
	C482.997467,966.826294 482.277710,966.128906 481.373779,965.231079 
z"/>
<path fill="#1C52C7" opacity="1.000000" stroke="none" 
	d="
M419.864685,770.563599 
	C400.059814,765.266479 380.501007,764.456360 361.391205,775.108521 
	C363.041016,773.543213 364.799744,771.247009 367.099670,770.369812 
	C383.469086,764.126099 400.216675,764.642395 417.033234,768.299866 
	C418.036987,768.518188 418.860718,769.564087 419.864685,770.563599 
z"/>
<path fill="#2157C9" opacity="1.000000" stroke="none" 
	d="
M426.210388,337.743774 
	C425.998657,337.854034 425.967407,337.657928 425.886169,337.166504 
	C428.203247,329.331085 430.539490,321.781067 432.953156,314.255859 
	C433.862793,311.419861 435.266479,308.709320 435.889954,305.821747 
	C437.006836,300.648682 440.003967,298.108765 445.609924,298.262451 
	C446.005341,298.505463 445.992096,298.991821 445.992096,298.991821 
	C440.558716,299.555542 438.554199,303.258301 436.988983,307.967712 
	C433.697479,317.871094 429.950745,327.623199 426.210388,337.743774 
z"/>
<path fill="#2157C9" opacity="1.000000" stroke="none" 
	d="
M377.036163,936.619507 
	C375.356262,931.603577 372.977631,926.283081 372.195526,920.737366 
	C371.135162,913.218811 371.297974,905.527710 371.245758,897.120728 
	C371.721252,893.207886 371.887085,890.084900 372.052917,886.961975 
	C372.341766,888.571594 372.878296,890.180725 372.880951,891.790833 
	C372.905487,906.730408 372.380646,921.712646 377.036163,936.619507 
z"/>
<path fill="#1C52C7" opacity="1.000000" stroke="none" 
	d="
M456.881531,434.631439 
	C456.740540,434.990326 456.342102,434.978699 456.142212,434.975220 
	C456.651855,431.423126 457.116364,427.803741 458.116913,424.339142 
	C461.097626,414.017914 464.288971,403.757446 467.663666,393.232483 
	C466.982239,397.325775 466.213989,401.708374 465.051697,405.983856 
	C462.480438,415.442017 459.711090,424.846283 456.881531,434.631439 
z"/>
<path fill="#1C52C7" opacity="1.000000" stroke="none" 
	d="
M443.449158,940.953552 
	C447.710541,925.333191 447.875366,909.134888 448.444214,892.831482 
	C449.115845,895.125427 449.483002,897.534973 449.850159,899.944458 
	C448.504395,912.504272 447.200989,925.068970 445.741180,937.615479 
	C445.609070,938.750732 444.469635,939.768738 443.449158,940.953552 
z"/>
<path fill="#2157C9" opacity="1.000000" stroke="none" 
	d="
M582.962952,325.980499 
	C588.812439,324.357178 594.661926,322.733856 601.340027,320.880554 
	C599.104248,329.199463 597.025024,336.935822 594.746948,344.974365 
	C594.560852,343.440338 594.262207,341.536194 594.645264,339.780792 
	C595.757080,334.685547 597.142273,329.649963 598.647461,323.691345 
	C592.989380,325.038300 588.263977,326.163208 583.376648,327.040100 
	C583.346924,326.471191 583.262939,326.200653 582.962952,325.980499 
z"/>
<path fill="#2157C9" opacity="1.000000" stroke="none" 
	d="
M405.425018,797.841553 
	C411.022034,800.109802 412.479248,805.409119 412.893677,810.684631 
	C413.530060,818.785461 413.303375,826.954102 413.247772,835.564270 
	C412.778198,836.013672 412.503845,835.992798 412.229431,835.971985 
	C412.126251,828.830933 412.149597,821.685059 411.881378,814.550232 
	C411.650177,808.401489 409.321533,802.965942 405.425018,797.841553 
z"/>
<path fill="#0644CF" opacity="1.000000" stroke="none" 
	d="
M449.886536,899.483398 
	C449.483002,897.534973 449.115845,895.125427 448.577423,892.383423 
	C448.356812,880.676270 448.307465,869.301758 448.067505,857.496277 
	C448.588898,858.691467 449.898621,860.310547 449.917725,861.944702 
	C450.061951,874.302246 449.952881,886.662781 449.886536,899.483398 
z"/>
<path fill="#1C52C7" opacity="1.000000" stroke="none" 
	d="
M368.158295,967.206543 
	C384.289917,972.375916 400.682831,972.728088 417.584198,967.870605 
	C415.389435,969.114990 412.802032,971.433228 410.193359,971.457458 
	C398.444885,971.566345 386.682465,971.180603 374.945068,970.581299 
	C372.688843,970.466125 370.522461,968.591675 368.158295,967.206543 
z"/>
<path fill="#1C52C7" opacity="1.000000" stroke="none" 
	d="
M529.002380,582.242126 
	C526.263672,593.403381 523.226379,604.779846 520.032471,616.805115 
	C519.810974,617.645569 519.746155,617.837219 519.571960,618.010437 
	C519.462646,617.992004 519.243530,617.958008 519.243530,617.958008 
	C518.908264,617.238037 518.130615,616.383057 518.303101,615.818115 
	C521.704041,604.677734 525.215149,593.570984 529.002380,582.242126 
z"/>
<path fill="#2157C9" opacity="1.000000" stroke="none" 
	d="
M371.097839,840.995728 
	C371.778046,830.651855 372.382538,820.301819 373.214386,809.970154 
	C373.350189,808.283142 374.489777,806.677002 375.519501,804.926941 
	C374.742401,816.640076 373.611176,828.459656 372.034363,840.627930 
	C371.588776,840.976501 371.097809,840.995728 371.097839,840.995728 
z"/>
<path fill="#1C52C7" opacity="1.000000" stroke="none" 
	d="
M188.887909,772.008484 
	C188.887909,772.008484 188.451492,771.988159 188.233566,771.975769 
	C189.194611,770.674500 190.341125,768.304871 191.557724,768.268311 
	C201.014435,767.984253 210.484802,768.133423 219.950287,768.219482 
	C220.498993,768.224487 221.042099,768.847534 221.721405,769.525635 
	C221.855026,769.868408 221.439941,769.915222 220.764114,769.946106 
	C211.055786,769.982971 202.021591,769.904358 192.992569,770.084839 
	C191.612076,770.112366 190.255524,771.337280 188.887909,772.008484 
z"/>
<path fill="#2157C9" opacity="1.000000" stroke="none" 
	d="
M444.153320,819.870605 
	C445.795410,809.131409 444.494446,798.779602 439.862885,788.459778 
	C445.202026,790.823303 444.576019,796.509766 445.504181,801.034607 
	C446.621429,806.481567 446.274597,812.241211 446.369263,817.868774 
	C446.380157,818.516907 445.161011,819.185730 444.153320,819.870605 
z"/>
<path fill="#0644CF" opacity="1.000000" stroke="none" 
	d="
M519.541382,618.213318 
	C519.243530,617.958008 519.462646,617.992004 520.076721,618.030151 
	C533.148499,618.070740 545.606567,618.127991 558.063843,618.055481 
	C565.686584,618.011108 573.308044,617.767395 580.930115,617.613159 
	C581.362488,617.451599 581.794861,617.290039 582.565125,617.053772 
	C581.734436,617.643188 580.568848,618.879822 579.396973,618.885864 
	C560.016357,618.985901 540.635010,618.934509 521.253845,618.893005 
	C520.782043,618.891968 520.310791,618.616272 519.541382,618.213318 
z"/>
<path fill="#1C52C7" opacity="1.000000" stroke="none" 
	d="
M587.427002,601.707275 
	C590.180054,590.966492 593.220520,580.037964 596.601379,568.963013 
	C593.865967,579.717590 590.790222,590.618591 587.427002,601.707275 
z"/>
<path fill="#0644CF" opacity="1.000000" stroke="none" 
	d="
M286.421936,968.671387 
	C296.100708,968.426819 305.653107,968.383850 315.669983,968.466858 
	C315.829346,969.053589 315.527161,969.914795 315.218811,969.916992 
	C305.693146,969.985474 296.166901,969.970703 286.640717,969.959412 
	C286.488770,969.959229 286.210449,969.848206 286.207031,969.778320 
	C286.192444,969.478699 286.258759,969.175110 286.421936,968.671387 
z"/>
<path fill="#2157C9" opacity="1.000000" stroke="none" 
	d="
M376.416016,802.791138 
	C378.636719,800.784668 381.017090,797.225037 383.759064,796.920410 
	C390.665985,796.153015 397.735962,796.853333 405.022583,797.237000 
	C400.827240,797.640381 396.317139,798.170898 391.880798,797.805420 
	C386.011719,797.321960 381.125580,799.044373 376.416016,802.791138 
z"/>
<path fill="#1C5EDB" opacity="1.000000" stroke="none" 
	d="
M446.390869,298.995758 
	C445.992096,298.991821 446.005341,298.505463 446.004730,298.262451 
	C450.208252,296.699860 454.381805,295.270813 458.623718,294.086548 
	C464.801697,292.361847 471.028870,290.813385 477.762817,289.316589 
	C478.522583,289.662384 478.776794,289.851410 479.053253,290.010559 
	C468.298737,293.006958 457.544220,296.003326 446.390869,298.995758 
z"/>
<path fill="#0038AC" opacity="1.000000" stroke="none" 
	d="
M371.016357,841.459473 
	C371.097809,840.995728 371.588776,840.976501 371.834656,840.985352 
	C372.067352,856.006714 372.054169,871.019165 372.046936,886.496826 
	C371.887085,890.084900 371.721252,893.207886 371.318146,896.656006 
	C371.032227,878.628540 370.983551,860.275818 371.016357,841.459473 
z"/>
<path fill="#124BBE" opacity="1.000000" stroke="none" 
	d="
M419.559479,364.897919 
	C419.557861,364.665802 420.013489,364.294250 420.467834,364.295868 
	C438.076508,364.357330 455.685028,364.452881 473.636047,364.766724 
	C455.991028,364.970520 438.003601,364.951508 419.559479,364.897919 
z"/>
<path fill="#0644CF" opacity="1.000000" stroke="none" 
	d="
M447.044250,856.967468 
	C430.037903,857.007080 413.031525,857.046692 395.567078,857.094849 
	C396.663971,856.726318 398.217834,856.027954 399.774231,856.022339 
	C415.220612,855.966553 430.667389,856.025208 446.576447,856.299377 
	C447.038818,856.547241 447.044250,856.967468 447.044250,856.967468 
z"/>
<path fill="#2157C9" opacity="1.000000" stroke="none" 
	d="
M684.228027,253.746002 
	C683.971191,254.005020 683.582520,254.009842 683.388184,254.009552 
	C684.908020,247.499741 686.622314,240.990250 688.433472,234.112686 
	C686.617676,234.112686 685.194153,234.112686 683.465698,233.994232 
	C685.083740,233.561218 687.006653,233.246628 688.929565,232.932037 
	C689.009399,234.791367 689.535828,236.767776 689.084839,238.487930 
	C687.759705,243.542191 686.046265,248.494659 684.228027,253.746002 
z"/>
<path fill="#1C52C7" opacity="1.000000" stroke="none" 
	d="
M511.951294,468.585327 
	C511.638672,468.502136 511.371918,468.028809 511.053284,467.282227 
	C513.393555,458.275421 515.785767,449.541901 518.488892,440.569824 
	C517.018921,447.871399 515.250977,455.414581 513.447571,462.949341 
	C513.025574,464.712646 512.483765,466.447327 511.951294,468.585327 
z"/>
<path fill="#1C52C7" opacity="1.000000" stroke="none" 
	d="
M479.450867,290.025757 
	C478.776794,289.851410 478.522583,289.662384 478.141205,289.259460 
	C487.095520,286.735291 496.199249,284.395111 505.717834,282.068329 
	C500.245667,283.990875 494.375214,285.953339 488.464478,287.786041 
	C485.631744,288.664368 482.722839,289.297058 479.450867,290.025757 
z"/>
<path fill="#0644CF" opacity="1.000000" stroke="none" 
	d="
M745.438354,969.947632 
	C744.980652,969.630249 745.003601,969.333008 745.023926,968.812683 
	C752.688416,968.499512 760.364502,968.410095 768.491577,968.659058 
	C768.981079,969.309448 769.011169,969.622253 769.032898,969.935913 
	C761.325317,969.946289 753.617798,969.956726 745.438354,969.947632 
z"/>
<path fill="#1C52C7" opacity="1.000000" stroke="none" 
	d="
M668.699829,238.050201 
	C661.715637,240.313309 654.306458,242.548096 646.527771,244.788040 
	C647.301147,243.996368 648.339966,242.799316 649.604614,242.470459 
	C655.795044,240.860687 662.045532,239.482162 668.699829,238.050201 
z"/>
<path fill="#2157C9" opacity="1.000000" stroke="none" 
	d="
M396.131348,647.568848 
	C395.957703,647.452393 395.947296,647.015259 395.920990,646.248779 
	C397.695129,639.351624 399.485138,632.783691 401.606506,626.091553 
	C400.056793,633.060913 398.175690,640.154541 396.131348,647.568848 
z"/>
<path fill="#1C52C7" opacity="1.000000" stroke="none" 
	d="
M360.793457,775.072876 
	C357.000214,779.659363 352.832489,784.219299 348.383942,788.970581 
	C348.467957,781.193176 353.998962,777.731995 360.793457,775.072876 
z"/>
<path fill="#1C5EDB" opacity="1.000000" stroke="none" 
	d="
M530.848572,276.009216 
	C523.802612,277.948700 516.756653,279.888214 509.306824,281.809387 
	C515.281921,279.847931 521.660889,277.904846 528.788086,275.965576 
	C529.973755,275.982697 530.411194,275.995941 530.848572,276.009216 
z"/>
<path fill="#2157C9" opacity="1.000000" stroke="none" 
	d="
M531.259521,276.009491 
	C530.411194,275.995941 529.973755,275.982697 529.205261,275.955200 
	C536.007202,273.977173 543.140259,272.013367 550.700684,270.059204 
	C544.642151,272.049164 538.156372,274.029449 531.259521,276.009491 
z"/>
<path fill="#1C52C7" opacity="1.000000" stroke="none" 
	d="
M426.252625,829.951538 
	C430.989655,826.950867 436.123138,823.982849 441.618164,820.963257 
	C436.869446,823.935791 431.759247,826.960022 426.252625,829.951538 
z"/>
<path fill="#1C52C7" opacity="1.000000" stroke="none" 
	d="
M412.391541,836.281067 
	C412.503845,835.992798 412.778198,836.013672 413.259155,836.035950 
	C417.386200,834.007019 421.306671,831.976746 425.586853,829.894165 
	C423.156799,832.438721 420.554688,835.302490 417.465668,837.473511 
	C416.508209,838.146423 414.228149,836.937500 412.391541,836.281067 
z"/>
<path fill="#2157C9" opacity="1.000000" stroke="none" 
	d="
M534.517273,562.254639 
	C533.308167,567.807129 531.818726,573.556152 530.142212,579.280151 
	C529.936646,578.792603 529.918152,578.330200 529.899658,577.867798 
	C531.345398,572.728943 532.791199,567.590149 534.517273,562.254639 
z"/>
<path fill="#2157C9" opacity="1.000000" stroke="none" 
	d="
M439.929321,787.777222 
	C436.613373,784.357605 433.341217,780.556885 429.918854,776.450195 
	C435.669006,777.628540 438.491089,781.904663 439.929321,787.777222 
z"/>
<path fill="#2157C9" opacity="1.000000" stroke="none" 
	d="
M565.692810,266.032745 
	C561.295837,267.408691 556.475647,268.757263 551.330811,270.128357 
	C555.760620,268.769012 560.515076,267.387177 565.692810,266.032745 
z"/>
<path fill="#0644CF" opacity="1.000000" stroke="none" 
	d="
M720.441406,809.993469 
	C725.421448,809.836975 730.871887,809.696167 736.671753,809.772217 
	C731.651428,809.995789 726.281616,810.002441 720.441406,809.993469 
z"/>
<path fill="#124BBE" opacity="1.000000" stroke="none" 
	d="
M474.163330,367.554779 
	C474.486694,367.936188 474.722229,368.687805 474.989624,369.746521 
	C474.282074,372.336975 473.542633,374.620331 472.464355,377.005096 
	C472.775513,374.045990 473.425507,370.985474 474.163330,367.554779 
z"/>
<path fill="#1C52C7" opacity="1.000000" stroke="none" 
	d="
M418.292908,967.972290 
	C420.274261,966.927551 422.653442,965.927246 425.388123,964.926819 
	C423.392670,965.956665 421.041687,966.986633 418.292908,967.972290 
z"/>
<path fill="#2157C9" opacity="1.000000" stroke="none" 
	d="
M429.844116,775.872192 
	C427.943542,775.107727 426.019104,773.972412 423.901855,772.577393 
	C425.746155,773.378845 427.783234,774.440063 429.844116,775.872192 
z"/>
<path fill="#1C52C7" opacity="1.000000" stroke="none" 
	d="
M769.405334,969.960632 
	C769.011169,969.622253 768.981079,969.309448 768.946533,968.761353 
	C770.220337,968.243286 771.490295,967.961365 772.952515,967.330872 
	C773.144836,966.982361 773.545471,966.984924 773.745239,966.986511 
	C772.555969,967.987183 771.166870,968.986267 769.405334,969.960632 
z"/>
<path fill="#2157C9" opacity="1.000000" stroke="none" 
	d="
M477.154114,961.263245 
	C478.375244,961.999634 479.582642,963.104370 480.908386,964.481628 
	C479.731262,963.713318 478.435852,962.672485 477.154114,961.263245 
z"/>
<path fill="#1C52C7" opacity="1.000000" stroke="none" 
	d="
M361.050598,963.304810 
	C362.562927,963.769897 364.127411,964.598755 365.887329,965.696289 
	C364.422760,965.199463 362.762787,964.433960 361.050598,963.304810 
z"/>
<path fill="#1C52C7" opacity="1.000000" stroke="none" 
	d="
M358.096191,961.254150 
	C358.933868,961.427368 359.828308,961.942627 360.894043,962.722046 
	C360.094543,962.522888 359.123718,962.059570 358.096191,961.254150 
z"/>
<path fill="#1C52C7" opacity="1.000000" stroke="none" 
	d="
M350.418335,952.945007 
	C351.108459,953.348572 351.711304,954.107178 352.439087,955.137024 
	C351.819672,954.705505 351.075348,954.002808 350.418335,952.945007 
z"/>
<path fill="#1C52C7" opacity="1.000000" stroke="none" 
	d="
M347.819336,789.127075 
	C347.786255,790.021851 347.381897,790.972839 346.770111,792.157593 
	C346.857788,791.322021 347.152954,790.252625 347.819336,789.127075 
z"/>
<path fill="#1C52C7" opacity="1.000000" stroke="none" 
	d="
M519.185425,437.409546 
	C519.702209,437.000793 520.048645,436.994293 520.653320,436.977753 
	C520.361023,437.975250 519.810364,438.982758 518.971313,440.212402 
	C518.793640,439.560272 518.904297,438.686035 519.185425,437.409546 
z"/>
<path fill="#1C52C7" opacity="1.000000" stroke="none" 
	d="
M774.307922,768.796875 
	C773.994019,769.012207 773.821777,769.008545 773.391052,768.998962 
	C773.074890,768.564087 773.017090,768.135132 772.942139,767.380493 
	C773.433105,767.562500 773.941345,768.070190 774.307922,768.796875 
z"/>
<path fill="#1C52C7" opacity="1.000000" stroke="none" 
	d="
M529.673218,578.176758 
	C529.918152,578.330200 529.936646,578.792603 529.968689,579.600708 
	C529.888550,580.570496 529.794861,581.194641 529.461365,582.031982 
	C529.296631,580.992065 529.371704,579.738831 529.673218,578.176758 
z"/>
<path fill="#1C52C7" opacity="1.000000" stroke="none" 
	d="
M582.658447,325.952393 
	C583.262939,326.200653 583.346924,326.471191 583.105469,326.907776 
	C582.490479,326.983002 581.984680,326.942505 581.124573,326.758057 
	C581.298096,326.384155 581.825989,326.154236 582.658447,325.952393 
z"/>
<path fill="#2157C9" opacity="1.000000" stroke="none" 
	d="
M378.998291,939.028198 
	C378.392212,938.531799 377.786133,938.035339 377.079163,937.256836 
	C377.523376,937.161682 378.068512,937.348572 378.810303,938.015259 
	C379.004028,938.672729 379.001160,938.850464 378.998291,939.028198 
z"/>
<path fill="#1C52C7" opacity="1.000000" stroke="none" 
	d="
M352.570984,955.817261 
	C353.167450,955.975464 353.723083,956.473999 354.411774,957.225342 
	C353.873291,957.037964 353.201752,956.597778 352.570984,955.817261 
z"/>
<path fill="#1C52C7" opacity="1.000000" stroke="none" 
	d="
M381.426392,940.314331 
	C380.990936,940.406738 380.475616,940.175354 379.775024,939.728455 
	C380.175354,939.672180 380.760925,939.831360 381.426392,940.314331 
z"/>
<path fill="#1C52C7" opacity="1.000000" stroke="none" 
	d="
M366.162842,966.172607 
	C366.577576,966.081238 367.171844,966.248840 367.938202,966.681030 
	C367.520996,966.774231 366.931702,966.602905 366.162842,966.172607 
z"/>
<path fill="#2157C9" opacity="1.000000" stroke="none" 
	d="
M442.229340,820.940979 
	C442.392273,820.600281 442.872681,820.242126 443.662628,819.829956 
	C443.497040,820.158508 443.021912,820.541016 442.229340,820.940979 
z"/>
<path fill="#1C52C7" opacity="1.000000" stroke="none" 
	d="
M355.480408,958.781006 
	C355.922394,958.781250 356.406982,959.096313 356.976685,959.689819 
	C356.548889,959.677490 356.035980,959.386658 355.480408,958.781006 
z"/>
<path fill="#1C52C7" opacity="1.000000" stroke="none" 
	d="
M349.123688,951.151184 
	C349.506073,951.238770 349.905670,951.650391 350.413635,952.338867 
	C350.061646,952.235596 349.601257,951.855408 349.123688,951.151184 
z"/>
<path fill="#1C52C7" opacity="1.000000" stroke="none" 
	d="
M354.503784,957.736389 
	C354.750061,957.648315 355.042450,957.846191 355.424438,958.302368 
	C355.192657,958.381287 354.871277,958.201843 354.503784,957.736389 
z"/>
<path fill="#1C52C7" opacity="1.000000" stroke="none" 
	d="
M357.105896,960.185059 
	C357.330719,960.101196 357.646454,960.267456 358.023621,960.704041 
	C357.788971,960.794678 357.492889,960.614868 357.105896,960.185059 
z"/>
<path fill="#2157C9" opacity="1.000000" stroke="none" 
	d="
M476.361481,960.146729 
	C476.592194,959.965637 476.836639,960.110779 477.056610,960.610596 
	C476.848633,960.724121 476.629669,960.559998 476.361481,960.146729 
z"/>
<path fill="#2157C9" opacity="1.000000" stroke="none" 
	d="
M640.391907,245.333618 
	C640.471802,245.414352 640.437622,245.592728 640.236145,245.830841 
	C640.158264,245.732986 640.227966,245.579880 640.391907,245.333618 
z"/>
<path fill="#2D5FD8" opacity="1.000000" stroke="none" 
	d="
M470.967163,609.840820 
	C470.830017,609.888306 470.916534,609.477356 470.982239,609.278870 
	C471.314758,609.303284 471.333557,609.540894 470.967163,609.840820 
z"/>
<path fill="#1C52C7" opacity="1.000000" stroke="none" 
	d="
M447.238464,857.055420 
	C447.044250,856.967468 447.038818,856.547241 447.047150,856.338623 
	C447.316406,856.272766 447.526276,856.469971 447.771759,856.920410 
	C447.858429,857.119324 447.432709,857.143311 447.238464,857.055420 
z"/>
<path fill="#2157C9" opacity="1.000000" stroke="none" 
	d="
M532.103821,957.782593 
	C531.972595,957.554016 532.111633,957.102600 532.555603,956.454834 
	C532.698364,956.692261 532.536194,957.126038 532.103821,957.782593 
z"/>
<path fill="#0644CF" opacity="1.000000" stroke="none" 
	d="
M504.871582,937.272522 
	C504.630402,937.288574 504.267487,937.000000 503.903320,936.357056 
	C504.184662,936.324463 504.467285,936.646240 504.871582,937.272522 
z"/>
<path fill="#1C5EDB" opacity="1.000000" stroke="none" 
	d="
M596.815857,771.089478 
	C596.918823,770.990540 596.892578,771.464722 596.857727,771.698181 
	C596.586853,771.709839 596.550171,771.462097 596.815857,771.089478 
z"/>
<path fill="#1C52C7" opacity="1.000000" stroke="none" 
	d="
M379.086853,939.203735 
	C379.001160,938.850464 379.004028,938.672729 379.012177,938.228027 
	C379.202850,938.289307 379.388275,938.617615 379.557251,939.235291 
	C379.540833,939.524719 379.175446,939.379333 379.086853,939.203735 
z"/>
<path fill="#1C52C7" opacity="1.000000" stroke="none" 
	d="
M669.916077,237.393646 
	C669.918823,237.530960 669.704102,237.766205 669.240173,238.071671 
	C669.189880,237.884888 669.425781,237.668121 669.916077,237.393646 
z"/>
<path fill="#085EFF" opacity="1.000000" stroke="none" 
	d="
M580.486633,617.461914 
	C573.308044,617.767395 565.686584,618.011108 558.063843,618.055481 
	C545.606567,618.127991 533.148499,618.070740 520.186035,618.048584 
	C519.746155,617.837219 519.810974,617.645569 519.951416,617.159668 
	C535.235901,616.977417 550.444702,617.089111 565.653564,617.201477 
	C570.450073,617.236877 575.246643,617.274170 580.486633,617.461914 
z"/>
<path fill="#FFFFFF" opacity="1.000000" stroke="none" 
	d="
M494.001221,866.000000 
	C494.001221,882.653381 494.027191,898.806885 493.973724,914.960144 
	C493.965546,917.437378 493.333282,919.927856 493.471008,922.385254 
	C493.573425,924.213013 493.917755,926.985046 495.086456,927.619507 
	C498.927490,929.704834 499.367188,932.191345 497.037964,935.709534 
	C498.427979,936.661011 499.578094,937.448242 501.228699,938.578125 
	C499.360229,939.520874 498.012085,940.201172 496.114777,941.158508 
	C497.295258,941.922302 498.005981,942.760986 498.777496,942.821350 
	C504.867676,943.297241 510.967834,943.656311 517.068970,943.972229 
	C518.382141,944.040222 519.769714,943.994568 521.024231,943.645874 
	C526.973755,941.992432 530.279175,945.059509 529.384949,951.448608 
	C528.777039,955.791321 529.491272,961.016846 523.560791,962.224976 
	C516.259338,963.712341 508.877716,964.825745 501.503235,965.914490 
	C500.329987,966.087646 498.762085,965.609436 497.805603,964.874268 
	C493.934662,961.899231 489.656586,960.667542 484.821472,960.972473 
	C481.926025,961.155029 480.172424,960.535645 480.681305,956.725525 
	C481.178345,953.004272 478.942352,950.878174 475.537170,951.250549 
	C474.632080,948.312012 473.677643,945.613770 472.978607,942.850952 
	C471.894775,938.567322 470.147614,934.243103 470.129700,929.930054 
	C469.927551,881.304138 469.999084,832.677124 470.014465,784.050354 
	C470.015015,782.275330 470.192535,780.500366 470.284271,778.786926 
	C478.639343,778.410461 486.121246,771.385986 493.729156,776.785339 
	C493.729156,779.699585 493.694977,781.895813 493.740326,784.090332 
	C493.774597,785.748840 493.988434,787.405273 493.989502,789.062683 
	C494.006256,814.541809 494.001190,840.020874 494.001221,866.000000 
M479.107605,945.468018 
	C479.410187,945.750000 479.712769,946.031921 480.015350,946.313782 
	C480.113251,946.205322 480.211151,946.096863 480.309082,945.988464 
	C479.872742,945.658936 479.436371,945.329468 478.999390,944.173828 
	C477.453186,939.407349 475.906952,934.640930 474.158051,929.249634 
	C472.164368,935.805054 474.531860,942.773010 479.107605,945.468018 
z"/>
<path fill="#085EFF" opacity="1.000000" stroke="none" 
	d="
M284.578613,778.582458 
	C284.355316,778.553650 284.221588,778.259155 284.151703,777.950134 
	C284.119232,777.806580 284.210907,777.634949 284.353699,777.327271 
	C284.538788,777.555908 284.616516,777.933350 284.578613,778.582458 
z"/>
<path fill="#085EFF" opacity="1.000000" stroke="none" 
	d="
M284.557861,785.694214 
	C284.273987,785.721558 284.221680,785.524048 284.384827,785.210510 
	C284.462250,785.131409 284.651367,785.506226 284.557861,785.694214 
z"/>
<path fill="#FCFEFE" opacity="1.000000" stroke="none" 
	d="
M188.959671,772.471680 
	C190.255524,771.337280 191.612076,770.112366 192.992569,770.084839 
	C202.021591,769.904358 211.055786,769.982971 220.559235,769.986694 
	C221.081146,816.286987 221.134018,862.577576 221.181625,908.868164 
	C221.191864,918.827942 221.183121,928.787720 221.183121,939.135010 
	C238.069962,939.135010 254.641418,939.135010 271.776245,939.135010 
	C269.208527,948.362793 266.836884,957.102783 264.274170,965.786377 
	C263.994202,966.735107 262.614075,968.036011 261.745026,968.035400 
	C237.622025,968.018616 213.499084,967.854492 189.132736,967.344727 
	C188.941162,950.516113 189.031967,934.057495 189.037491,917.598877 
	C189.053665,869.377502 189.035904,821.156189 188.959671,772.471680 
z"/>
<path fill="#F9FDFD" opacity="1.000000" stroke="none" 
	d="
M478.999695,944.586914 
	C474.531860,942.773010 472.164368,935.805054 474.158051,929.249634 
	C475.906952,934.640930 477.453186,939.407349 478.999695,944.586914 
z"/>
<path fill="#F9FDFD" opacity="1.000000" stroke="none" 
	d="
M479.053802,945.234009 
	C479.436371,945.329468 479.872742,945.658936 480.309082,945.988403 
	C480.211151,946.096863 480.113251,946.205322 480.015350,946.313843 
	C479.712769,946.031921 479.410187,945.750000 479.053802,945.234009 
z"/>
</svg>